STARTFONT 2.1
COMMENT
COMMENT Converted from OpenType font "JacquardaBastarda9-Regular.ttf" by "otf2bdf 3.0".
COMMENT
FONT -FreeType-Jacquarda Bastarda 9-Medium-R-Normal--9-90-72-72-P-47-ISO10646-1
SIZE 9 72 72
FONTBOUNDINGBOX 15 12 0 -3
STARTPROPERTIES 19
FOUNDRY "FreeType"
FAMILY_NAME "Jacquarda Bastarda 9"
WEIGHT_NAME "Medium"
SLANT "R"
SETWIDTH_NAME "Normal"
ADD_STYLE_NAME ""
PIXEL_SIZE 9
POINT_SIZE 90
RESOLUTION_X 72
RESOLUTION_Y 72
SPACING "P"
AVERAGE_WIDTH 47
CHARSET_REGISTRY "ISO10646"
CHARSET_ENCODING "1"
FONT_ASCENT 9
FONT_DESCENT 2
COPYRIGHT "Copyright 2023 The Soft Type Project Authors (https://github.com/scfried/soft-type-jacquarda-bastarda)"
_OTF_FONTFILE "JacquardaBastarda9-Regular.ttf"
_OTF_PSNAME "JacquardaBastarda9-Regular"
ENDPROPERTIES
CHARS 331
STARTCHAR 0020
ENCODING 32
SWIDTH 333 0
DWIDTH 3 0
BBX 0 0 0 0
BITMAP
ENDCHAR
STARTCHAR 0021
ENCODING 33
SWIDTH 333 0
DWIDTH 3 0
BBX 2 7 1 -1
BITMAP
C0
80
80
C0
80
C0
80
ENDCHAR
STARTCHAR 0022
ENCODING 34
SWIDTH 333 0
DWIDTH 3 0
BBX 2 2 1 4
BITMAP
C0
C0
ENDCHAR
STARTCHAR 0023
ENCODING 35
SWIDTH 777 0
DWIDTH 7 0
BBX 6 6 1 0
BITMAP
14
28
7C
50
F8
A0
ENDCHAR
STARTCHAR 0024
ENCODING 36
SWIDTH 555 0
DWIDTH 5 0
BBX 4 7 1 -1
BITMAP
40
40
F0
A0
E0
C0
20
ENDCHAR
STARTCHAR 0025
ENCODING 37
SWIDTH 666 0
DWIDTH 6 0
BBX 5 6 1 0
BITMAP
C8
90
20
40
B8
10
ENDCHAR
STARTCHAR 0026
ENCODING 38
SWIDTH 666 0
DWIDTH 6 0
BBX 5 6 1 0
BITMAP
40
A0
D8
A8
90
E0
ENDCHAR
STARTCHAR 0027
ENCODING 39
SWIDTH 111 0
DWIDTH 1 0
BBX 1 2 1 4
BITMAP
80
80
ENDCHAR
STARTCHAR 0028
ENCODING 40
SWIDTH 333 0
DWIDTH 3 0
BBX 2 8 1 -1
BITMAP
40
80
80
80
80
00
80
40
ENDCHAR
STARTCHAR 0029
ENCODING 41
SWIDTH 333 0
DWIDTH 3 0
BBX 2 8 1 -1
BITMAP
80
80
40
40
40
00
80
80
ENDCHAR
STARTCHAR 002A
ENCODING 42
SWIDTH 444 0
DWIDTH 4 0
BBX 3 3 1 3
BITMAP
A0
40
A0
ENDCHAR
STARTCHAR 002B
ENCODING 43
SWIDTH 444 0
DWIDTH 4 0
BBX 3 3 1 1
BITMAP
40
E0
40
ENDCHAR
STARTCHAR 002C
ENCODING 44
SWIDTH 333 0
DWIDTH 3 0
BBX 2 3 1 -1
BITMAP
80
C0
80
ENDCHAR
STARTCHAR 002D
ENCODING 45
SWIDTH 333 0
DWIDTH 3 0
BBX 2 1 1 2
BITMAP
C0
ENDCHAR
STARTCHAR 002E
ENCODING 46
SWIDTH 333 0
DWIDTH 3 0
BBX 2 3 1 -1
BITMAP
80
C0
80
ENDCHAR
STARTCHAR 002F
ENCODING 47
SWIDTH 444 0
DWIDTH 4 0
BBX 3 6 1 0
BITMAP
20
20
00
40
80
80
ENDCHAR
STARTCHAR 0030
ENCODING 48
SWIDTH 333 0
DWIDTH 3 0
BBX 2 4 1 0
BITMAP
C0
C0
C0
C0
ENDCHAR
STARTCHAR 0031
ENCODING 49
SWIDTH 333 0
DWIDTH 3 0
BBX 2 4 1 0
BITMAP
80
80
80
C0
ENDCHAR
STARTCHAR 0032
ENCODING 50
SWIDTH 444 0
DWIDTH 4 0
BBX 3 4 1 0
BITMAP
C0
A0
E0
C0
ENDCHAR
STARTCHAR 0033
ENCODING 51
SWIDTH 333 0
DWIDTH 3 0
BBX 2 6 1 -2
BITMAP
C0
C0
C0
40
C0
C0
ENDCHAR
STARTCHAR 0034
ENCODING 52
SWIDTH 444 0
DWIDTH 4 0
BBX 3 6 1 -2
BITMAP
20
E0
A0
C0
20
60
ENDCHAR
STARTCHAR 0035
ENCODING 53
SWIDTH 333 0
DWIDTH 3 0
BBX 2 6 1 -2
BITMAP
C0
80
C0
40
C0
C0
ENDCHAR
STARTCHAR 0036
ENCODING 54
SWIDTH 333 0
DWIDTH 3 0
BBX 2 6 1 0
BITMAP
C0
C0
C0
C0
C0
C0
ENDCHAR
STARTCHAR 0037
ENCODING 55
SWIDTH 333 0
DWIDTH 3 0
BBX 2 6 1 -2
BITMAP
C0
40
40
80
80
80
ENDCHAR
STARTCHAR 0038
ENCODING 56
SWIDTH 333 0
DWIDTH 3 0
BBX 2 6 1 0
BITMAP
C0
C0
C0
C0
C0
C0
ENDCHAR
STARTCHAR 0039
ENCODING 57
SWIDTH 333 0
DWIDTH 3 0
BBX 2 6 1 0
BITMAP
C0
C0
C0
C0
C0
C0
ENDCHAR
STARTCHAR 003A
ENCODING 58
SWIDTH 333 0
DWIDTH 3 0
BBX 2 6 1 -1
BITMAP
80
C0
00
80
C0
80
ENDCHAR
STARTCHAR 003B
ENCODING 59
SWIDTH 333 0
DWIDTH 3 0
BBX 2 6 1 -1
BITMAP
80
C0
00
80
C0
80
ENDCHAR
STARTCHAR 003C
ENCODING 60
SWIDTH 444 0
DWIDTH 4 0
BBX 3 4 1 1
BITMAP
20
C0
C0
20
ENDCHAR
STARTCHAR 003D
ENCODING 61
SWIDTH 444 0
DWIDTH 4 0
BBX 3 2 1 2
BITMAP
E0
E0
ENDCHAR
STARTCHAR 003E
ENCODING 62
SWIDTH 444 0
DWIDTH 4 0
BBX 3 4 1 1
BITMAP
80
40
60
80
ENDCHAR
STARTCHAR 003F
ENCODING 63
SWIDTH 444 0
DWIDTH 4 0
BBX 3 7 1 -1
BITMAP
C0
A0
20
40
40
A0
40
ENDCHAR
STARTCHAR 0040
ENCODING 64
SWIDTH 888 0
DWIDTH 8 0
BBX 7 7 1 -1
BITMAP
FE
82
BA
AA
BA
A4
78
ENDCHAR
STARTCHAR 0041
ENCODING 65
SWIDTH 888 0
DWIDTH 8 0
BBX 7 6 1 0
BITMAP
DE
A8
A8
E8
2A
34
ENDCHAR
STARTCHAR 0042
ENCODING 66
SWIDTH 888 0
DWIDTH 8 0
BBX 7 6 1 0
BITMAP
FE
A8
B6
22
E4
B8
ENDCHAR
STARTCHAR 0043
ENCODING 67
SWIDTH 666 0
DWIDTH 6 0
BBX 5 6 1 0
BITMAP
F8
A0
A0
A0
C8
38
ENDCHAR
STARTCHAR 0044
ENCODING 68
SWIDTH 777 0
DWIDTH 7 0
BBX 6 6 1 0
BITMAP
F8
A4
64
44
C8
B8
ENDCHAR
STARTCHAR 0045
ENCODING 69
SWIDTH 666 0
DWIDTH 6 0
BBX 5 6 1 0
BITMAP
F8
A0
B8
A8
C8
38
ENDCHAR
STARTCHAR 0046
ENCODING 70
SWIDTH 777 0
DWIDTH 7 0
BBX 6 8 1 -2
BITMAP
F4
88
94
58
44
84
48
38
ENDCHAR
STARTCHAR 0047
ENCODING 71
SWIDTH 666 0
DWIDTH 6 0
BBX 5 6 1 0
BITMAP
F8
80
B8
C8
88
70
ENDCHAR
STARTCHAR 0048
ENCODING 72
SWIDTH 777 0
DWIDTH 7 0
BBX 6 9 1 -2
BITMAP
18
C8
B0
D8
24
A4
C8
08
18
ENDCHAR
STARTCHAR 0049
ENCODING 73
SWIDTH 666 0
DWIDTH 6 0
BBX 5 6 1 0
BITMAP
F8
C8
98
08
C8
38
ENDCHAR
STARTCHAR 004A
ENCODING 74
SWIDTH 666 0
DWIDTH 6 0
BBX 5 8 1 -2
BITMAP
F8
88
D8
88
08
88
C8
38
ENDCHAR
STARTCHAR 004B
ENCODING 75
SWIDTH 777 0
DWIDTH 7 0
BBX 6 8 1 -1
BITMAP
3C
F8
A8
F8
28
A8
C8
04
ENDCHAR
STARTCHAR 004C
ENCODING 76
SWIDTH 666 0
DWIDTH 6 0
BBX 5 6 1 0
BITMAP
60
90
F0
20
C8
B0
ENDCHAR
STARTCHAR 004D
ENCODING 77
SWIDTH 888 0
DWIDTH 8 0
BBX 7 6 1 0
BITMAP
F6
CA
AA
AA
AA
CA
ENDCHAR
STARTCHAR 004E
ENCODING 78
SWIDTH 888 0
DWIDTH 8 0
BBX 7 6 1 0
BITMAP
DC
A2
94
14
F4
C2
ENDCHAR
STARTCHAR 004F
ENCODING 79
SWIDTH 777 0
DWIDTH 7 0
BBX 6 6 1 0
BITMAP
F8
88
84
84
C4
B8
ENDCHAR
STARTCHAR 0050
ENCODING 80
SWIDTH 888 0
DWIDTH 8 0
BBX 7 8 1 -2
BITMAP
D8
A6
A2
22
74
A8
20
20
ENDCHAR
STARTCHAR 0051
ENCODING 81
SWIDTH 888 0
DWIDTH 8 0
BBX 7 6 1 0
BITMAP
F8
88
84
84
DE
BE
ENDCHAR
STARTCHAR 0052
ENCODING 82
SWIDTH 888 0
DWIDTH 8 0
BBX 7 6 1 0
BITMAP
DC
A2
9C
14
E2
C2
ENDCHAR
STARTCHAR 0053
ENCODING 83
SWIDTH 777 0
DWIDTH 7 0
BBX 6 6 1 0
BITMAP
FC
80
C8
B4
C8
38
ENDCHAR
STARTCHAR 0054
ENCODING 84
SWIDTH 777 0
DWIDTH 7 0
BBX 6 6 1 0
BITMAP
E4
B8
F0
10
28
78
ENDCHAR
STARTCHAR 0055
ENCODING 85
SWIDTH 666 0
DWIDTH 6 0
BBX 5 6 1 0
BITMAP
B0
90
90
90
B0
C8
ENDCHAR
STARTCHAR 0056
ENCODING 86
SWIDTH 888 0
DWIDTH 8 0
BBX 7 6 1 0
BITMAP
DE
A6
E4
22
D2
8C
ENDCHAR
STARTCHAR 0057
ENCODING 87
SWIDTH 888 0
DWIDTH 8 0
BBX 7 6 1 0
BITMAP
F6
AA
EA
2A
DA
8E
ENDCHAR
STARTCHAR 0058
ENCODING 88
SWIDTH 777 0
DWIDTH 7 0
BBX 6 6 1 0
BITMAP
DC
20
30
20
B4
D8
ENDCHAR
STARTCHAR 0059
ENCODING 89
SWIDTH 888 0
DWIDTH 8 0
BBX 7 8 1 -2
BITMAP
EE
B4
A4
E4
24
C8
B0
C0
ENDCHAR
STARTCHAR 005A
ENCODING 90
SWIDTH 666 0
DWIDTH 6 0
BBX 5 8 1 -2
BITMAP
78
88
48
30
28
08
C8
B8
ENDCHAR
STARTCHAR 005B
ENCODING 91
SWIDTH 222 0
DWIDTH 2 0
BBX 1 8 1 -1
BITMAP
80
80
80
80
80
80
80
80
ENDCHAR
STARTCHAR 005C
ENCODING 92
SWIDTH 444 0
DWIDTH 4 0
BBX 3 6 1 0
BITMAP
80
80
00
40
20
20
ENDCHAR
STARTCHAR 005D
ENCODING 93
SWIDTH 222 0
DWIDTH 2 0
BBX 1 8 1 -1
BITMAP
80
80
80
80
80
80
80
80
ENDCHAR
STARTCHAR 005E
ENCODING 94
SWIDTH 333 0
DWIDTH 3 0
BBX 2 2 1 4
BITMAP
80
C0
ENDCHAR
STARTCHAR 005F
ENCODING 95
SWIDTH 555 0
DWIDTH 5 0
BBX 4 1 1 -1
BITMAP
F0
ENDCHAR
STARTCHAR 0060
ENCODING 96
SWIDTH 111 0
DWIDTH 1 0
BBX 1 2 0 5
BITMAP
80
80
ENDCHAR
STARTCHAR 0061
ENCODING 97
SWIDTH 555 0
DWIDTH 5 0
BBX 4 4 1 0
BITMAP
F0
A0
A0
D0
ENDCHAR
STARTCHAR 0062
ENCODING 98
SWIDTH 555 0
DWIDTH 5 0
BBX 4 6 1 0
BITMAP
40
80
D0
A0
A0
C0
ENDCHAR
STARTCHAR 0063
ENCODING 99
SWIDTH 444 0
DWIDTH 4 0
BBX 3 4 1 0
BITMAP
E0
80
A0
C0
ENDCHAR
STARTCHAR 0064
ENCODING 100
SWIDTH 444 0
DWIDTH 4 0
BBX 3 6 1 0
BITMAP
C0
20
60
A0
A0
C0
ENDCHAR
STARTCHAR 0065
ENCODING 101
SWIDTH 444 0
DWIDTH 4 0
BBX 3 4 1 0
BITMAP
E0
E0
A0
C0
ENDCHAR
STARTCHAR 0066
ENCODING 102
SWIDTH 333 0
DWIDTH 3 0
BBX 2 7 1 -1
BITMAP
C0
80
C0
80
80
80
80
ENDCHAR
STARTCHAR 0067
ENCODING 103
SWIDTH 555 0
DWIDTH 5 0
BBX 4 6 1 -2
BITMAP
50
A0
A0
E0
A0
40
ENDCHAR
STARTCHAR 0068
ENCODING 104
SWIDTH 555 0
DWIDTH 5 0
BBX 4 8 1 -2
BITMAP
40
80
B0
E0
A0
E0
20
40
ENDCHAR
STARTCHAR 0069
ENCODING 105
SWIDTH 333 0
DWIDTH 3 0
BBX 2 6 1 0
BITMAP
40
00
C0
C0
40
C0
ENDCHAR
STARTCHAR 006A
ENCODING 106
SWIDTH 333 0
DWIDTH 3 0
BBX 2 8 1 -2
BITMAP
40
00
C0
40
40
40
C0
80
ENDCHAR
STARTCHAR 006B
ENCODING 107
SWIDTH 555 0
DWIDTH 5 0
BBX 4 6 1 0
BITMAP
40
80
B0
A0
E0
D0
ENDCHAR
STARTCHAR 006C
ENCODING 108
SWIDTH 333 0
DWIDTH 3 0
BBX 2 6 1 0
BITMAP
40
80
80
80
80
C0
ENDCHAR
STARTCHAR 006D
ENCODING 109
SWIDTH 888 0
DWIDTH 8 0
BBX 7 4 1 0
BITMAP
A8
DC
54
AA
ENDCHAR
STARTCHAR 006E
ENCODING 110
SWIDTH 666 0
DWIDTH 6 0
BBX 5 4 1 0
BITMAP
A8
D0
50
A8
ENDCHAR
STARTCHAR 006F
ENCODING 111
SWIDTH 555 0
DWIDTH 5 0
BBX 4 4 1 0
BITMAP
50
A0
A0
C0
ENDCHAR
STARTCHAR 0070
ENCODING 112
SWIDTH 555 0
DWIDTH 5 0
BBX 4 6 1 -2
BITMAP
D0
A0
A0
C0
80
80
ENDCHAR
STARTCHAR 0071
ENCODING 113
SWIDTH 555 0
DWIDTH 5 0
BBX 4 6 1 -2
BITMAP
50
A0
A0
E0
20
10
ENDCHAR
STARTCHAR 0072
ENCODING 114
SWIDTH 555 0
DWIDTH 5 0
BBX 4 4 1 0
BITMAP
F0
40
60
A0
ENDCHAR
STARTCHAR 0073
ENCODING 115
SWIDTH 555 0
DWIDTH 5 0
BBX 4 4 1 0
BITMAP
F0
A0
E0
C0
ENDCHAR
STARTCHAR 0074
ENCODING 116
SWIDTH 333 0
DWIDTH 3 0
BBX 2 6 1 0
BITMAP
40
80
C0
80
C0
40
ENDCHAR
STARTCHAR 0075
ENCODING 117
SWIDTH 666 0
DWIDTH 6 0
BBX 5 4 1 0
BITMAP
D8
50
78
A8
ENDCHAR
STARTCHAR 0076
ENCODING 118
SWIDTH 666 0
DWIDTH 6 0
BBX 5 4 1 0
BITMAP
A8
D0
50
A0
ENDCHAR
STARTCHAR 0077
ENCODING 119
SWIDTH 888 0
DWIDTH 8 0
BBX 7 4 1 0
BITMAP
AA
D4
54
A8
ENDCHAR
STARTCHAR 0078
ENCODING 120
SWIDTH 555 0
DWIDTH 5 0
BBX 5 4 0 0
BITMAP
78
20
F0
50
ENDCHAR
STARTCHAR 0079
ENCODING 121
SWIDTH 555 0
DWIDTH 5 0
BBX 4 6 1 -2
BITMAP
90
D0
50
30
50
20
ENDCHAR
STARTCHAR 007A
ENCODING 122
SWIDTH 444 0
DWIDTH 4 0
BBX 3 6 1 -2
BITMAP
E0
20
E0
20
A0
C0
ENDCHAR
STARTCHAR 007B
ENCODING 123
SWIDTH 222 0
DWIDTH 2 0
BBX 1 8 1 -1
BITMAP
80
80
80
80
80
80
80
80
ENDCHAR
STARTCHAR 007C
ENCODING 124
SWIDTH 333 0
DWIDTH 3 0
BBX 1 8 1 -1
BITMAP
80
80
80
80
80
80
80
80
ENDCHAR
STARTCHAR 007D
ENCODING 125
SWIDTH 222 0
DWIDTH 2 0
BBX 1 8 1 -1
BITMAP
80
80
80
80
80
80
80
80
ENDCHAR
STARTCHAR 007E
ENCODING 126
SWIDTH 555 0
DWIDTH 5 0
BBX 4 2 1 2
BITMAP
D0
A0
ENDCHAR
STARTCHAR 00A0
ENCODING 160
SWIDTH 333 0
DWIDTH 3 0
BBX 0 0 0 0
BITMAP
ENDCHAR
STARTCHAR 00A1
ENCODING 161
SWIDTH 333 0
DWIDTH 3 0
BBX 2 7 1 -1
BITMAP
C0
80
C0
80
80
80
C0
ENDCHAR
STARTCHAR 00A2
ENCODING 162
SWIDTH 444 0
DWIDTH 4 0
BBX 3 5 1 0
BITMAP
40
E0
C0
E0
C0
ENDCHAR
STARTCHAR 00A3
ENCODING 163
SWIDTH 555 0
DWIDTH 5 0
BBX 4 5 1 0
BITMAP
60
90
E0
40
F0
ENDCHAR
STARTCHAR 00A5
ENCODING 165
SWIDTH 333 0
DWIDTH 3 0
BBX 2 5 1 0
BITMAP
C0
00
C0
C0
80
ENDCHAR
STARTCHAR 00A7
ENCODING 167
SWIDTH 444 0
DWIDTH 4 0
BBX 3 8 1 -2
BITMAP
C0
A0
C0
A0
A0
C0
A0
C0
ENDCHAR
STARTCHAR 00A8
ENCODING 168
SWIDTH 222 0
DWIDTH 2 0
BBX 2 1 0 5
BITMAP
C0
ENDCHAR
STARTCHAR 00A9
ENCODING 169
SWIDTH 888 0
DWIDTH 8 0
BBX 7 8 1 -1
BITMAP
FE
82
BA
A2
AA
BA
82
7C
ENDCHAR
STARTCHAR 00AA
ENCODING 170
SWIDTH 555 0
DWIDTH 5 0
BBX 4 4 1 0
BITMAP
50
A0
A0
D0
ENDCHAR
STARTCHAR 00AB
ENCODING 171
SWIDTH 555 0
DWIDTH 5 0
BBX 4 4 1 0
BITMAP
50
A0
A0
50
ENDCHAR
STARTCHAR 00AE
ENCODING 174
SWIDTH 666 0
DWIDTH 6 0
BBX 5 6 1 1
BITMAP
60
90
E8
C8
B0
60
ENDCHAR
STARTCHAR 00AF
ENCODING 175
SWIDTH 222 0
DWIDTH 2 0
BBX 2 1 0 5
BITMAP
C0
ENDCHAR
STARTCHAR 00B0
ENCODING 176
SWIDTH 333 0
DWIDTH 3 0
BBX 2 2 1 4
BITMAP
C0
80
ENDCHAR
STARTCHAR 00B4
ENCODING 180
SWIDTH 111 0
DWIDTH 1 0
BBX 1 2 0 5
BITMAP
80
80
ENDCHAR
STARTCHAR 00B6
ENCODING 182
SWIDTH 555 0
DWIDTH 5 0
BBX 4 7 1 -1
BITMAP
D0
B0
B0
D0
30
30
30
ENDCHAR
STARTCHAR 00B7
ENCODING 183
SWIDTH 333 0
DWIDTH 3 0
BBX 2 2 1 2
BITMAP
80
C0
ENDCHAR
STARTCHAR 00B8
ENCODING 184
SWIDTH 222 0
DWIDTH 2 0
BBX 2 2 0 -2
BITMAP
40
80
ENDCHAR
STARTCHAR 00BA
ENCODING 186
SWIDTH 555 0
DWIDTH 5 0
BBX 4 4 1 0
BITMAP
50
A0
A0
C0
ENDCHAR
STARTCHAR 00BB
ENCODING 187
SWIDTH 555 0
DWIDTH 5 0
BBX 4 4 1 0
BITMAP
A0
50
A0
A0
ENDCHAR
STARTCHAR 00BF
ENCODING 191
SWIDTH 444 0
DWIDTH 4 0
BBX 3 7 1 -1
BITMAP
C0
40
00
40
80
A0
C0
ENDCHAR
STARTCHAR 00C0
ENCODING 192
SWIDTH 888 0
DWIDTH 8 0
BBX 7 8 1 0
BITMAP
30
00
DE
A8
A8
E8
2A
34
ENDCHAR
STARTCHAR 00C1
ENCODING 193
SWIDTH 888 0
DWIDTH 8 0
BBX 7 8 1 0
BITMAP
30
00
DE
A8
A8
E8
2A
34
ENDCHAR
STARTCHAR 00C2
ENCODING 194
SWIDTH 888 0
DWIDTH 8 0
BBX 7 8 1 0
BITMAP
38
00
DE
A8
A8
E8
2A
34
ENDCHAR
STARTCHAR 00C3
ENCODING 195
SWIDTH 888 0
DWIDTH 8 0
BBX 7 8 1 0
BITMAP
38
00
DE
A8
A8
E8
2A
34
ENDCHAR
STARTCHAR 00C4
ENCODING 196
SWIDTH 888 0
DWIDTH 8 0
BBX 7 8 1 0
BITMAP
28
00
DE
A8
A8
E8
2A
34
ENDCHAR
STARTCHAR 00C5
ENCODING 197
SWIDTH 888 0
DWIDTH 8 0
BBX 7 9 1 0
BITMAP
10
38
00
DE
A8
A8
E8
2A
34
ENDCHAR
STARTCHAR 00C6
ENCODING 198
SWIDTH 1111 0
DWIDTH 10 0
BBX 9 6 1 0
BITMAP
DA80
A580
E980
EA80
2E80
3180
ENDCHAR
STARTCHAR 00C7
ENCODING 199
SWIDTH 666 0
DWIDTH 6 0
BBX 5 8 1 -2
BITMAP
F8
A0
A0
A0
C8
38
10
20
ENDCHAR
STARTCHAR 00C8
ENCODING 200
SWIDTH 666 0
DWIDTH 6 0
BBX 5 8 1 0
BITMAP
20
00
F8
A0
B8
A8
C8
38
ENDCHAR
STARTCHAR 00C9
ENCODING 201
SWIDTH 666 0
DWIDTH 6 0
BBX 5 8 1 0
BITMAP
20
00
F8
A0
B8
A8
C8
38
ENDCHAR
STARTCHAR 00CA
ENCODING 202
SWIDTH 666 0
DWIDTH 6 0
BBX 5 8 1 0
BITMAP
30
00
F8
A0
B8
A8
C8
38
ENDCHAR
STARTCHAR 00CB
ENCODING 203
SWIDTH 666 0
DWIDTH 6 0
BBX 5 8 1 0
BITMAP
30
00
F8
A0
B8
A8
C8
38
ENDCHAR
STARTCHAR 00CC
ENCODING 204
SWIDTH 666 0
DWIDTH 6 0
BBX 5 8 1 0
BITMAP
20
00
F8
C8
98
08
C8
38
ENDCHAR
STARTCHAR 00CD
ENCODING 205
SWIDTH 666 0
DWIDTH 6 0
BBX 5 8 1 0
BITMAP
20
00
F8
C8
98
08
C8
38
ENDCHAR
STARTCHAR 00CE
ENCODING 206
SWIDTH 666 0
DWIDTH 6 0
BBX 5 8 1 0
BITMAP
30
00
F8
C8
98
08
C8
38
ENDCHAR
STARTCHAR 00CF
ENCODING 207
SWIDTH 666 0
DWIDTH 6 0
BBX 5 8 1 0
BITMAP
30
00
F8
C8
98
08
C8
38
ENDCHAR
STARTCHAR 00D0
ENCODING 208
SWIDTH 777 0
DWIDTH 7 0
BBX 6 6 1 0
BITMAP
F8
A4
64
24
C8
B8
ENDCHAR
STARTCHAR 00D1
ENCODING 209
SWIDTH 888 0
DWIDTH 8 0
BBX 7 8 1 0
BITMAP
38
00
DC
A2
94
14
F4
C2
ENDCHAR
STARTCHAR 00D2
ENCODING 210
SWIDTH 777 0
DWIDTH 7 0
BBX 6 8 1 0
BITMAP
20
00
F8
88
84
84
C4
B8
ENDCHAR
STARTCHAR 00D3
ENCODING 211
SWIDTH 777 0
DWIDTH 7 0
BBX 6 8 1 0
BITMAP
20
00
F8
88
84
84
C4
B8
ENDCHAR
STARTCHAR 00D4
ENCODING 212
SWIDTH 777 0
DWIDTH 7 0
BBX 6 8 1 0
BITMAP
30
00
F8
88
84
84
C4
B8
ENDCHAR
STARTCHAR 00D5
ENCODING 213
SWIDTH 777 0
DWIDTH 7 0
BBX 6 8 1 0
BITMAP
70
00
F8
88
84
84
C4
B8
ENDCHAR
STARTCHAR 00D6
ENCODING 214
SWIDTH 777 0
DWIDTH 7 0
BBX 6 8 1 0
BITMAP
30
00
F8
88
84
84
C4
B8
ENDCHAR
STARTCHAR 00D7
ENCODING 215
SWIDTH 444 0
DWIDTH 4 0
BBX 3 4 1 1
BITMAP
A0
A0
E0
A0
ENDCHAR
STARTCHAR 00D8
ENCODING 216
SWIDTH 777 0
DWIDTH 7 0
BBX 6 6 1 0
BITMAP
F4
88
B4
A4
C8
B8
ENDCHAR
STARTCHAR 00D9
ENCODING 217
SWIDTH 666 0
DWIDTH 6 0
BBX 5 8 1 0
BITMAP
60
00
B0
90
90
90
B0
C8
ENDCHAR
STARTCHAR 00DA
ENCODING 218
SWIDTH 666 0
DWIDTH 6 0
BBX 5 8 1 0
BITMAP
40
00
B0
90
90
90
B0
C8
ENDCHAR
STARTCHAR 00DB
ENCODING 219
SWIDTH 666 0
DWIDTH 6 0
BBX 5 8 1 0
BITMAP
60
00
B0
90
90
90
B0
C8
ENDCHAR
STARTCHAR 00DC
ENCODING 220
SWIDTH 666 0
DWIDTH 6 0
BBX 5 8 1 0
BITMAP
60
00
B0
90
90
90
B0
C8
ENDCHAR
STARTCHAR 00DD
ENCODING 221
SWIDTH 888 0
DWIDTH 8 0
BBX 7 10 1 -2
BITMAP
30
00
EE
B4
A4
E4
24
C8
B0
C0
ENDCHAR
STARTCHAR 00DE
ENCODING 222
SWIDTH 888 0
DWIDTH 8 0
BBX 7 8 1 -2
BITMAP
C0
A0
BC
22
74
A8
20
20
ENDCHAR
STARTCHAR 00DF
ENCODING 223
SWIDTH 666 0
DWIDTH 6 0
BBX 5 6 1 0
BITMAP
70
88
B8
A8
A8
B0
ENDCHAR
STARTCHAR 00E0
ENCODING 224
SWIDTH 555 0
DWIDTH 5 0
BBX 4 7 1 0
BITMAP
40
20
00
F0
A0
A0
D0
ENDCHAR
STARTCHAR 00E1
ENCODING 225
SWIDTH 555 0
DWIDTH 5 0
BBX 4 7 1 0
BITMAP
20
40
00
F0
A0
A0
D0
ENDCHAR
STARTCHAR 00E2
ENCODING 226
SWIDTH 555 0
DWIDTH 5 0
BBX 4 7 1 0
BITMAP
20
60
00
F0
A0
A0
D0
ENDCHAR
STARTCHAR 00E3
ENCODING 227
SWIDTH 555 0
DWIDTH 5 0
BBX 4 7 1 0
BITMAP
E0
A0
00
F0
A0
A0
D0
ENDCHAR
STARTCHAR 00E4
ENCODING 228
SWIDTH 555 0
DWIDTH 5 0
BBX 4 6 1 0
BITMAP
60
00
F0
A0
A0
D0
ENDCHAR
STARTCHAR 00E5
ENCODING 229
SWIDTH 555 0
DWIDTH 5 0
BBX 4 8 1 0
BITMAP
20
60
20
00
F0
A0
A0
D0
ENDCHAR
STARTCHAR 00E6
ENCODING 230
SWIDTH 666 0
DWIDTH 6 0
BBX 5 4 1 0
BITMAP
F8
B8
A8
F8
ENDCHAR
STARTCHAR 00E7
ENCODING 231
SWIDTH 444 0
DWIDTH 4 0
BBX 3 6 1 -2
BITMAP
E0
80
A0
C0
20
40
ENDCHAR
STARTCHAR 00E8
ENCODING 232
SWIDTH 444 0
DWIDTH 4 0
BBX 3 7 1 0
BITMAP
40
20
00
E0
E0
A0
C0
ENDCHAR
STARTCHAR 00E9
ENCODING 233
SWIDTH 444 0
DWIDTH 4 0
BBX 3 7 1 0
BITMAP
20
40
00
E0
E0
A0
C0
ENDCHAR
STARTCHAR 00EA
ENCODING 234
SWIDTH 444 0
DWIDTH 4 0
BBX 3 7 1 0
BITMAP
20
60
00
E0
E0
A0
C0
ENDCHAR
STARTCHAR 00EB
ENCODING 235
SWIDTH 444 0
DWIDTH 4 0
BBX 3 6 1 0
BITMAP
60
00
E0
E0
A0
C0
ENDCHAR
STARTCHAR 00EC
ENCODING 236
SWIDTH 333 0
DWIDTH 3 0
BBX 2 7 1 0
BITMAP
80
40
00
C0
C0
40
C0
ENDCHAR
STARTCHAR 00ED
ENCODING 237
SWIDTH 333 0
DWIDTH 3 0
BBX 2 7 1 0
BITMAP
40
80
00
C0
C0
40
C0
ENDCHAR
STARTCHAR 00EE
ENCODING 238
SWIDTH 333 0
DWIDTH 3 0
BBX 2 7 1 0
BITMAP
40
C0
00
C0
C0
40
C0
ENDCHAR
STARTCHAR 00EF
ENCODING 239
SWIDTH 333 0
DWIDTH 3 0
BBX 2 6 1 0
BITMAP
C0
00
C0
C0
40
C0
ENDCHAR
STARTCHAR 00F0
ENCODING 240
SWIDTH 555 0
DWIDTH 5 0
BBX 4 6 1 0
BITMAP
C0
A0
70
B0
90
E0
ENDCHAR
STARTCHAR 00F1
ENCODING 241
SWIDTH 666 0
DWIDTH 6 0
BBX 5 7 1 0
BITMAP
50
70
00
A8
D0
50
A8
ENDCHAR
STARTCHAR 00F2
ENCODING 242
SWIDTH 555 0
DWIDTH 5 0
BBX 4 7 1 0
BITMAP
40
20
00
50
A0
A0
C0
ENDCHAR
STARTCHAR 00F3
ENCODING 243
SWIDTH 555 0
DWIDTH 5 0
BBX 4 7 1 0
BITMAP
20
40
00
50
A0
A0
C0
ENDCHAR
STARTCHAR 00F4
ENCODING 244
SWIDTH 555 0
DWIDTH 5 0
BBX 4 7 1 0
BITMAP
20
60
00
50
A0
A0
C0
ENDCHAR
STARTCHAR 00F5
ENCODING 245
SWIDTH 555 0
DWIDTH 5 0
BBX 4 7 1 0
BITMAP
E0
A0
00
50
A0
A0
C0
ENDCHAR
STARTCHAR 00F6
ENCODING 246
SWIDTH 555 0
DWIDTH 5 0
BBX 4 6 1 0
BITMAP
60
00
50
A0
A0
C0
ENDCHAR
STARTCHAR 00F7
ENCODING 247
SWIDTH 444 0
DWIDTH 4 0
BBX 3 6 1 0
BITMAP
C0
40
E0
00
E0
40
ENDCHAR
STARTCHAR 00F8
ENCODING 248
SWIDTH 666 0
DWIDTH 6 0
BBX 5 4 1 0
BITMAP
68
B0
B0
E0
ENDCHAR
STARTCHAR 00F9
ENCODING 249
SWIDTH 666 0
DWIDTH 6 0
BBX 5 7 1 0
BITMAP
20
20
00
D8
50
78
A8
ENDCHAR
STARTCHAR 00FA
ENCODING 250
SWIDTH 666 0
DWIDTH 6 0
BBX 5 7 1 0
BITMAP
20
20
00
D8
50
78
A8
ENDCHAR
STARTCHAR 00FB
ENCODING 251
SWIDTH 666 0
DWIDTH 6 0
BBX 5 7 1 0
BITMAP
20
30
00
D8
50
78
A8
ENDCHAR
STARTCHAR 00FC
ENCODING 252
SWIDTH 666 0
DWIDTH 6 0
BBX 5 6 1 0
BITMAP
30
00
D8
50
78
A8
ENDCHAR
STARTCHAR 00FD
ENCODING 253
SWIDTH 555 0
DWIDTH 5 0
BBX 4 9 1 -2
BITMAP
20
40
00
90
D0
50
30
50
20
ENDCHAR
STARTCHAR 00FE
ENCODING 254
SWIDTH 666 0
DWIDTH 6 0
BBX 4 8 1 -2
BITMAP
40
80
D0
A0
A0
C0
80
80
ENDCHAR
STARTCHAR 00FF
ENCODING 255
SWIDTH 555 0
DWIDTH 5 0
BBX 4 8 1 -2
BITMAP
60
00
90
D0
50
30
50
20
ENDCHAR
STARTCHAR 0100
ENCODING 256
SWIDTH 888 0
DWIDTH 8 0
BBX 7 8 1 0
BITMAP
38
00
DE
A8
A8
E8
2A
34
ENDCHAR
STARTCHAR 0101
ENCODING 257
SWIDTH 555 0
DWIDTH 5 0
BBX 4 6 1 0
BITMAP
60
00
F0
A0
A0
D0
ENDCHAR
STARTCHAR 0102
ENCODING 258
SWIDTH 888 0
DWIDTH 8 0
BBX 7 8 1 0
BITMAP
38
00
DE
A8
A8
E8
2A
34
ENDCHAR
STARTCHAR 0103
ENCODING 259
SWIDTH 555 0
DWIDTH 5 0
BBX 4 7 1 0
BITMAP
A0
40
00
F0
A0
A0
D0
ENDCHAR
STARTCHAR 0104
ENCODING 260
SWIDTH 888 0
DWIDTH 8 0
BBX 7 8 1 -2
BITMAP
DE
A8
A8
E8
2A
34
20
18
ENDCHAR
STARTCHAR 0105
ENCODING 261
SWIDTH 555 0
DWIDTH 5 0
BBX 4 6 1 -2
BITMAP
F0
A0
A0
D0
40
20
ENDCHAR
STARTCHAR 0106
ENCODING 262
SWIDTH 666 0
DWIDTH 6 0
BBX 5 8 1 0
BITMAP
20
00
F8
A0
A0
A0
C8
38
ENDCHAR
STARTCHAR 0107
ENCODING 263
SWIDTH 444 0
DWIDTH 4 0
BBX 3 7 1 0
BITMAP
20
40
00
E0
80
A0
C0
ENDCHAR
STARTCHAR 010A
ENCODING 266
SWIDTH 666 0
DWIDTH 6 0
BBX 5 8 1 0
BITMAP
20
00
F8
A0
A0
A0
C8
38
ENDCHAR
STARTCHAR 010B
ENCODING 267
SWIDTH 444 0
DWIDTH 4 0
BBX 3 6 1 0
BITMAP
20
00
E0
80
A0
C0
ENDCHAR
STARTCHAR 010C
ENCODING 268
SWIDTH 666 0
DWIDTH 6 0
BBX 5 8 1 0
BITMAP
30
00
F8
A0
A0
A0
C8
38
ENDCHAR
STARTCHAR 010D
ENCODING 269
SWIDTH 444 0
DWIDTH 4 0
BBX 3 7 1 0
BITMAP
60
20
00
E0
80
A0
C0
ENDCHAR
STARTCHAR 010E
ENCODING 270
SWIDTH 777 0
DWIDTH 7 0
BBX 6 8 1 0
BITMAP
38
00
F8
A4
64
44
C8
B8
ENDCHAR
STARTCHAR 010F
ENCODING 271
SWIDTH 444 0
DWIDTH 4 0
BBX 3 6 1 0
BITMAP
E0
20
60
A0
A0
C0
ENDCHAR
STARTCHAR 0110
ENCODING 272
SWIDTH 666 0
DWIDTH 6 0
BBX 6 6 0 0
BITMAP
7C
A4
64
24
64
B8
ENDCHAR
STARTCHAR 0111
ENCODING 273
SWIDTH 555 0
DWIDTH 5 0
BBX 4 6 1 0
BITMAP
30
20
60
A0
A0
C0
ENDCHAR
STARTCHAR 0112
ENCODING 274
SWIDTH 666 0
DWIDTH 6 0
BBX 5 8 1 0
BITMAP
30
00
F8
A0
B8
A8
C8
38
ENDCHAR
STARTCHAR 0113
ENCODING 275
SWIDTH 444 0
DWIDTH 4 0
BBX 3 6 1 0
BITMAP
60
00
E0
E0
A0
C0
ENDCHAR
STARTCHAR 0116
ENCODING 278
SWIDTH 666 0
DWIDTH 6 0
BBX 5 8 1 0
BITMAP
20
00
F8
A0
B8
A8
C8
38
ENDCHAR
STARTCHAR 0117
ENCODING 279
SWIDTH 444 0
DWIDTH 4 0
BBX 3 6 1 0
BITMAP
20
00
E0
E0
A0
C0
ENDCHAR
STARTCHAR 0118
ENCODING 280
SWIDTH 666 0
DWIDTH 6 0
BBX 5 8 1 -2
BITMAP
F8
A0
B8
A8
C8
38
20
30
ENDCHAR
STARTCHAR 0119
ENCODING 281
SWIDTH 444 0
DWIDTH 4 0
BBX 3 6 1 -2
BITMAP
E0
E0
A0
C0
80
40
ENDCHAR
STARTCHAR 011A
ENCODING 282
SWIDTH 666 0
DWIDTH 6 0
BBX 5 8 1 0
BITMAP
30
00
F8
A0
B8
A8
C8
38
ENDCHAR
STARTCHAR 011B
ENCODING 283
SWIDTH 444 0
DWIDTH 4 0
BBX 3 7 1 0
BITMAP
60
20
00
E0
E0
A0
C0
ENDCHAR
STARTCHAR 011E
ENCODING 286
SWIDTH 666 0
DWIDTH 6 0
BBX 5 8 1 0
BITMAP
70
00
F8
80
B8
C8
88
70
ENDCHAR
STARTCHAR 011F
ENCODING 287
SWIDTH 555 0
DWIDTH 5 0
BBX 4 9 1 -2
BITMAP
A0
40
00
50
A0
A0
E0
A0
40
ENDCHAR
STARTCHAR 0120
ENCODING 288
SWIDTH 666 0
DWIDTH 6 0
BBX 5 8 1 0
BITMAP
20
00
F8
80
B8
C8
88
70
ENDCHAR
STARTCHAR 0121
ENCODING 289
SWIDTH 555 0
DWIDTH 5 0
BBX 4 8 1 -2
BITMAP
20
00
50
A0
A0
E0
A0
40
ENDCHAR
STARTCHAR 0122
ENCODING 290
SWIDTH 666 0
DWIDTH 6 0
BBX 5 9 1 -3
BITMAP
F8
80
B8
C8
88
70
00
20
20
ENDCHAR
STARTCHAR 0123
ENCODING 291
SWIDTH 555 0
DWIDTH 5 0
BBX 4 10 1 -2
BITMAP
20
40
00
00
50
A0
A0
E0
A0
40
ENDCHAR
STARTCHAR 0126
ENCODING 294
SWIDTH 888 0
DWIDTH 8 0
BBX 7 6 1 0
BITMAP
C6
BC
F8
E8
2A
24
ENDCHAR
STARTCHAR 0127
ENCODING 295
SWIDTH 555 0
DWIDTH 5 0
BBX 4 8 1 -2
BITMAP
C0
80
B0
E0
A0
E0
20
40
ENDCHAR
STARTCHAR 012A
ENCODING 298
SWIDTH 666 0
DWIDTH 6 0
BBX 5 8 1 0
BITMAP
30
00
F8
C8
98
08
C8
38
ENDCHAR
STARTCHAR 012B
ENCODING 299
SWIDTH 333 0
DWIDTH 3 0
BBX 2 6 1 0
BITMAP
C0
00
C0
C0
40
C0
ENDCHAR
STARTCHAR 012E
ENCODING 302
SWIDTH 666 0
DWIDTH 6 0
BBX 5 8 1 -2
BITMAP
F8
C8
98
08
C8
38
20
30
ENDCHAR
STARTCHAR 012F
ENCODING 303
SWIDTH 333 0
DWIDTH 3 0
BBX 2 8 1 -2
BITMAP
40
00
C0
C0
40
C0
80
40
ENDCHAR
STARTCHAR 0130
ENCODING 304
SWIDTH 666 0
DWIDTH 6 0
BBX 5 8 1 0
BITMAP
20
00
F8
C8
98
08
C8
38
ENDCHAR
STARTCHAR 0131
ENCODING 305
SWIDTH 333 0
DWIDTH 3 0
BBX 2 4 1 0
BITMAP
C0
C0
40
C0
ENDCHAR
STARTCHAR 0132
ENCODING 306
SWIDTH 1333 0
DWIDTH 12 0
BBX 11 8 1 -2
BITMAP
FBE0
CA20
9B60
0820
C820
3A20
0320
00E0
ENDCHAR
STARTCHAR 0133
ENCODING 307
SWIDTH 777 0
DWIDTH 7 0
BBX 6 8 1 -2
BITMAP
48
00
AC
D8
48
A8
18
08
ENDCHAR
STARTCHAR 0136
ENCODING 310
SWIDTH 777 0
DWIDTH 7 0
BBX 6 10 1 -3
BITMAP
3C
F8
A8
F8
28
A8
C8
04
10
20
ENDCHAR
STARTCHAR 0137
ENCODING 311
SWIDTH 555 0
DWIDTH 5 0
BBX 4 9 1 -3
BITMAP
40
80
B0
A0
E0
D0
00
20
40
ENDCHAR
STARTCHAR 0139
ENCODING 313
SWIDTH 666 0
DWIDTH 6 0
BBX 5 8 1 0
BITMAP
20
00
60
90
F0
20
C8
B0
ENDCHAR
STARTCHAR 013A
ENCODING 314
SWIDTH 333 0
DWIDTH 3 0
BBX 2 8 1 0
BITMAP
C0
00
40
80
80
80
80
C0
ENDCHAR
STARTCHAR 013B
ENCODING 315
SWIDTH 666 0
DWIDTH 6 0
BBX 5 9 1 -3
BITMAP
60
90
F0
20
C8
B0
00
20
40
ENDCHAR
STARTCHAR 013C
ENCODING 316
SWIDTH 333 0
DWIDTH 3 0
BBX 2 9 1 -3
BITMAP
40
80
80
80
80
C0
00
80
80
ENDCHAR
STARTCHAR 013D
ENCODING 317
SWIDTH 666 0
DWIDTH 6 0
BBX 5 6 1 0
BITMAP
60
98
F0
20
C8
B0
ENDCHAR
STARTCHAR 013E
ENCODING 318
SWIDTH 444 0
DWIDTH 4 0
BBX 3 6 1 0
BITMAP
60
80
80
80
80
C0
ENDCHAR
STARTCHAR 0141
ENCODING 321
SWIDTH 666 0
DWIDTH 6 0
BBX 5 6 1 0
BITMAP
F0
A0
C0
A0
C8
B0
ENDCHAR
STARTCHAR 0142
ENCODING 322
SWIDTH 333 0
DWIDTH 3 0
BBX 2 6 1 0
BITMAP
40
80
C0
80
80
C0
ENDCHAR
STARTCHAR 0143
ENCODING 323
SWIDTH 888 0
DWIDTH 8 0
BBX 7 8 1 0
BITMAP
18
00
DC
A2
94
14
F4
C2
ENDCHAR
STARTCHAR 0144
ENCODING 324
SWIDTH 666 0
DWIDTH 6 0
BBX 5 7 1 0
BITMAP
20
20
00
A8
D0
50
A8
ENDCHAR
STARTCHAR 0145
ENCODING 325
SWIDTH 888 0
DWIDTH 8 0
BBX 7 9 1 -3
BITMAP
DC
A2
94
14
F4
C2
00
10
20
ENDCHAR
STARTCHAR 0146
ENCODING 326
SWIDTH 666 0
DWIDTH 6 0
BBX 5 7 1 -3
BITMAP
A8
D0
50
A8
00
20
40
ENDCHAR
STARTCHAR 0147
ENCODING 327
SWIDTH 888 0
DWIDTH 8 0
BBX 7 8 1 0
BITMAP
18
00
DC
A2
94
14
F4
C2
ENDCHAR
STARTCHAR 0148
ENCODING 328
SWIDTH 666 0
DWIDTH 6 0
BBX 5 7 1 0
BITMAP
30
20
00
A8
D0
50
A8
ENDCHAR
STARTCHAR 014A
ENCODING 330
SWIDTH 888 0
DWIDTH 8 0
BBX 7 7 1 -1
BITMAP
DC
A2
92
94
F4
C4
08
ENDCHAR
STARTCHAR 014B
ENCODING 331
SWIDTH 666 0
DWIDTH 6 0
BBX 5 5 1 -1
BITMAP
A8
D0
50
B0
20
ENDCHAR
STARTCHAR 014C
ENCODING 332
SWIDTH 777 0
DWIDTH 7 0
BBX 6 8 1 0
BITMAP
30
00
F8
88
84
84
C4
B8
ENDCHAR
STARTCHAR 014D
ENCODING 333
SWIDTH 555 0
DWIDTH 5 0
BBX 4 6 1 0
BITMAP
60
00
50
A0
A0
C0
ENDCHAR
STARTCHAR 0150
ENCODING 336
SWIDTH 777 0
DWIDTH 7 0
BBX 6 8 1 0
BITMAP
70
00
F8
88
84
84
C4
B8
ENDCHAR
STARTCHAR 0151
ENCODING 337
SWIDTH 555 0
DWIDTH 5 0
BBX 4 7 1 0
BITMAP
60
A0
00
50
A0
A0
C0
ENDCHAR
STARTCHAR 0152
ENCODING 338
SWIDTH 1111 0
DWIDTH 10 0
BBX 9 6 1 0
BITMAP
F780
8A00
8980
8A80
CE80
B180
ENDCHAR
STARTCHAR 0153
ENCODING 339
SWIDTH 666 0
DWIDTH 6 0
BBX 5 4 1 0
BITMAP
F8
B8
A8
D8
ENDCHAR
STARTCHAR 0154
ENCODING 340
SWIDTH 888 0
DWIDTH 8 0
BBX 7 8 1 0
BITMAP
18
00
DC
A2
9C
14
E2
C2
ENDCHAR
STARTCHAR 0155
ENCODING 341
SWIDTH 555 0
DWIDTH 5 0
BBX 4 7 1 0
BITMAP
20
40
00
F0
40
60
A0
ENDCHAR
STARTCHAR 0156
ENCODING 342
SWIDTH 888 0
DWIDTH 8 0
BBX 7 9 1 -3
BITMAP
DC
A2
9C
14
E2
C2
00
10
20
ENDCHAR
STARTCHAR 0157
ENCODING 343
SWIDTH 555 0
DWIDTH 5 0
BBX 4 7 1 -3
BITMAP
F0
40
60
A0
00
20
40
ENDCHAR
STARTCHAR 0158
ENCODING 344
SWIDTH 888 0
DWIDTH 8 0
BBX 7 8 1 0
BITMAP
18
00
DC
A2
9C
14
E2
C2
ENDCHAR
STARTCHAR 0159
ENCODING 345
SWIDTH 555 0
DWIDTH 5 0
BBX 4 7 1 0
BITMAP
60
20
00
F0
40
60
A0
ENDCHAR
STARTCHAR 015A
ENCODING 346
SWIDTH 777 0
DWIDTH 7 0
BBX 6 8 1 0
BITMAP
30
00
FC
80
C8
B4
C8
38
ENDCHAR
STARTCHAR 015B
ENCODING 347
SWIDTH 555 0
DWIDTH 5 0
BBX 4 7 1 0
BITMAP
20
40
00
F0
A0
E0
C0
ENDCHAR
STARTCHAR 015E
ENCODING 350
SWIDTH 777 0
DWIDTH 7 0
BBX 6 8 1 -2
BITMAP
FC
80
C8
B4
C8
38
08
30
ENDCHAR
STARTCHAR 015F
ENCODING 351
SWIDTH 555 0
DWIDTH 5 0
BBX 4 6 1 -2
BITMAP
F0
A0
E0
C0
20
40
ENDCHAR
STARTCHAR 0160
ENCODING 352
SWIDTH 777 0
DWIDTH 7 0
BBX 6 8 1 0
BITMAP
38
00
FC
80
C8
B4
C8
38
ENDCHAR
STARTCHAR 0161
ENCODING 353
SWIDTH 555 0
DWIDTH 5 0
BBX 4 7 1 0
BITMAP
60
20
00
F0
A0
E0
C0
ENDCHAR
STARTCHAR 0164
ENCODING 356
SWIDTH 777 0
DWIDTH 7 0
BBX 6 8 1 0
BITMAP
30
00
E4
B8
F0
10
28
78
ENDCHAR
STARTCHAR 0165
ENCODING 357
SWIDTH 444 0
DWIDTH 4 0
BBX 3 7 1 0
BITMAP
20
40
80
C0
80
A0
40
ENDCHAR
STARTCHAR 016A
ENCODING 362
SWIDTH 666 0
DWIDTH 6 0
BBX 5 8 1 0
BITMAP
60
00
B0
90
90
90
B0
C8
ENDCHAR
STARTCHAR 016B
ENCODING 363
SWIDTH 666 0
DWIDTH 6 0
BBX 5 6 1 0
BITMAP
30
00
D8
50
78
A8
ENDCHAR
STARTCHAR 016C
ENCODING 364
SWIDTH 666 0
DWIDTH 6 0
BBX 5 8 1 0
BITMAP
E0
00
B0
90
90
90
B0
C8
ENDCHAR
STARTCHAR 016D
ENCODING 365
SWIDTH 666 0
DWIDTH 6 0
BBX 5 7 1 0
BITMAP
50
20
00
D8
50
78
A8
ENDCHAR
STARTCHAR 016E
ENCODING 366
SWIDTH 666 0
DWIDTH 6 0
BBX 5 9 1 0
BITMAP
20
60
00
B0
90
90
90
B0
C8
ENDCHAR
STARTCHAR 016F
ENCODING 367
SWIDTH 666 0
DWIDTH 6 0
BBX 5 8 1 0
BITMAP
20
30
20
00
D8
50
78
A8
ENDCHAR
STARTCHAR 0170
ENCODING 368
SWIDTH 666 0
DWIDTH 6 0
BBX 5 8 1 0
BITMAP
E0
00
B0
90
90
90
B0
C8
ENDCHAR
STARTCHAR 0171
ENCODING 369
SWIDTH 666 0
DWIDTH 6 0
BBX 5 7 1 0
BITMAP
30
60
00
D8
50
78
A8
ENDCHAR
STARTCHAR 0172
ENCODING 370
SWIDTH 666 0
DWIDTH 6 0
BBX 5 8 1 -2
BITMAP
B0
90
90
90
B0
C8
40
20
ENDCHAR
STARTCHAR 0173
ENCODING 371
SWIDTH 666 0
DWIDTH 6 0
BBX 5 6 1 -2
BITMAP
D8
50
78
A8
20
30
ENDCHAR
STARTCHAR 0174
ENCODING 372
SWIDTH 888 0
DWIDTH 8 0
BBX 7 8 1 0
BITMAP
18
00
F6
AA
EA
2A
DA
8E
ENDCHAR
STARTCHAR 0175
ENCODING 373
SWIDTH 888 0
DWIDTH 8 0
BBX 7 7 1 0
BITMAP
10
28
00
AA
D4
54
A8
ENDCHAR
STARTCHAR 0176
ENCODING 374
SWIDTH 888 0
DWIDTH 8 0
BBX 7 10 1 -2
BITMAP
38
00
EE
B4
A4
E4
24
C8
B0
C0
ENDCHAR
STARTCHAR 0177
ENCODING 375
SWIDTH 555 0
DWIDTH 5 0
BBX 4 9 1 -2
BITMAP
20
60
00
90
D0
50
30
50
20
ENDCHAR
STARTCHAR 0178
ENCODING 376
SWIDTH 888 0
DWIDTH 8 0
BBX 7 10 1 -2
BITMAP
28
00
EE
B4
A4
E4
24
C8
B0
C0
ENDCHAR
STARTCHAR 0179
ENCODING 377
SWIDTH 666 0
DWIDTH 6 0
BBX 5 10 1 -2
BITMAP
20
20
78
88
48
30
28
08
C8
B8
ENDCHAR
STARTCHAR 017A
ENCODING 378
SWIDTH 444 0
DWIDTH 4 0
BBX 3 9 1 -2
BITMAP
40
80
00
E0
20
E0
20
A0
C0
ENDCHAR
STARTCHAR 017B
ENCODING 379
SWIDTH 666 0
DWIDTH 6 0
BBX 5 9 1 -2
BITMAP
20
78
88
48
30
28
08
C8
B8
ENDCHAR
STARTCHAR 017C
ENCODING 380
SWIDTH 444 0
DWIDTH 4 0
BBX 3 8 1 -2
BITMAP
40
00
E0
20
E0
20
A0
C0
ENDCHAR
STARTCHAR 017D
ENCODING 381
SWIDTH 666 0
DWIDTH 6 0
BBX 5 10 1 -2
BITMAP
30
20
78
88
48
30
28
08
C8
B8
ENDCHAR
STARTCHAR 017E
ENCODING 382
SWIDTH 444 0
DWIDTH 4 0
BBX 3 9 1 -2
BITMAP
A0
40
00
E0
20
E0
20
A0
C0
ENDCHAR
STARTCHAR 0218
ENCODING 536
SWIDTH 777 0
DWIDTH 7 0
BBX 6 9 1 -3
BITMAP
FC
80
C8
B4
C8
38
00
10
20
ENDCHAR
STARTCHAR 0219
ENCODING 537
SWIDTH 555 0
DWIDTH 5 0
BBX 4 7 1 -3
BITMAP
F0
A0
E0
C0
00
20
40
ENDCHAR
STARTCHAR 021A
ENCODING 538
SWIDTH 777 0
DWIDTH 7 0
BBX 6 9 1 -3
BITMAP
E4
B8
F0
10
28
78
00
20
20
ENDCHAR
STARTCHAR 021B
ENCODING 539
SWIDTH 333 0
DWIDTH 3 0
BBX 2 9 1 -3
BITMAP
40
80
C0
80
C0
40
00
40
80
ENDCHAR
STARTCHAR 0237
ENCODING 567
SWIDTH 333 0
DWIDTH 3 0
BBX 2 6 1 -2
BITMAP
C0
40
40
40
C0
80
ENDCHAR
STARTCHAR 02C6
ENCODING 710
SWIDTH 222 0
DWIDTH 2 0
BBX 2 2 0 5
BITMAP
40
C0
ENDCHAR
STARTCHAR 02C7
ENCODING 711
SWIDTH 222 0
DWIDTH 2 0
BBX 2 2 0 5
BITMAP
C0
40
ENDCHAR
STARTCHAR 02D8
ENCODING 728
SWIDTH 333 0
DWIDTH 3 0
BBX 3 2 0 5
BITMAP
A0
40
ENDCHAR
STARTCHAR 02D9
ENCODING 729
SWIDTH 111 0
DWIDTH 1 0
BBX 1 1 0 5
BITMAP
80
ENDCHAR
STARTCHAR 02DA
ENCODING 730
SWIDTH 222 0
DWIDTH 2 0
BBX 2 2 0 5
BITMAP
C0
40
ENDCHAR
STARTCHAR 02DB
ENCODING 731
SWIDTH 222 0
DWIDTH 2 0
BBX 2 2 0 -2
BITMAP
80
40
ENDCHAR
STARTCHAR 02DC
ENCODING 732
SWIDTH 333 0
DWIDTH 3 0
BBX 3 2 0 5
BITMAP
A0
E0
ENDCHAR
STARTCHAR 02DD
ENCODING 733
SWIDTH 333 0
DWIDTH 3 0
BBX 3 2 0 5
BITMAP
60
C0
ENDCHAR
STARTCHAR 0300
ENCODING 768
SWIDTH 0 0
DWIDTH 0 0
BBX 1 2 0 5
BITMAP
80
80
ENDCHAR
STARTCHAR 0301
ENCODING 769
SWIDTH 0 0
DWIDTH 0 0
BBX 1 2 0 5
BITMAP
80
80
ENDCHAR
STARTCHAR 0302
ENCODING 770
SWIDTH 0 0
DWIDTH 0 0
BBX 2 2 0 5
BITMAP
40
C0
ENDCHAR
STARTCHAR 0303
ENCODING 771
SWIDTH 0 0
DWIDTH 0 0
BBX 3 2 0 5
BITMAP
A0
E0
ENDCHAR
STARTCHAR 0304
ENCODING 772
SWIDTH 0 0
DWIDTH 0 0
BBX 2 1 0 5
BITMAP
C0
ENDCHAR
STARTCHAR 0306
ENCODING 774
SWIDTH 0 0
DWIDTH 0 0
BBX 3 2 0 5
BITMAP
A0
40
ENDCHAR
STARTCHAR 0307
ENCODING 775
SWIDTH 0 0
DWIDTH 0 0
BBX 1 1 0 5
BITMAP
80
ENDCHAR
STARTCHAR 0308
ENCODING 776
SWIDTH 0 0
DWIDTH 0 0
BBX 2 1 0 5
BITMAP
C0
ENDCHAR
STARTCHAR 030A
ENCODING 778
SWIDTH 0 0
DWIDTH 0 0
BBX 2 2 0 5
BITMAP
C0
40
ENDCHAR
STARTCHAR 030B
ENCODING 779
SWIDTH 0 0
DWIDTH 0 0
BBX 3 2 0 5
BITMAP
60
C0
ENDCHAR
STARTCHAR 030C
ENCODING 780
SWIDTH 0 0
DWIDTH 0 0
BBX 2 2 0 5
BITMAP
C0
40
ENDCHAR
STARTCHAR 0312
ENCODING 786
SWIDTH 0 0
DWIDTH 0 0
BBX 1 2 0 6
BITMAP
80
80
ENDCHAR
STARTCHAR 0326
ENCODING 806
SWIDTH 0 0
DWIDTH 0 0
BBX 1 2 0 -3
BITMAP
80
80
ENDCHAR
STARTCHAR 0327
ENCODING 807
SWIDTH 0 0
DWIDTH 0 0
BBX 2 2 0 -2
BITMAP
40
80
ENDCHAR
STARTCHAR 0328
ENCODING 808
SWIDTH 0 0
DWIDTH 0 0
BBX 2 2 0 -2
BITMAP
80
40
ENDCHAR
STARTCHAR 1E80
ENCODING 7808
SWIDTH 888 0
DWIDTH 8 0
BBX 7 8 1 0
BITMAP
18
00
F6
AA
EA
2A
DA
8E
ENDCHAR
STARTCHAR 1E81
ENCODING 7809
SWIDTH 888 0
DWIDTH 8 0
BBX 7 7 1 0
BITMAP
20
10
00
AA
D4
54
A8
ENDCHAR
STARTCHAR 1E82
ENCODING 7810
SWIDTH 888 0
DWIDTH 8 0
BBX 7 8 1 0
BITMAP
18
00
F6
AA
EA
2A
DA
8E
ENDCHAR
STARTCHAR 1E83
ENCODING 7811
SWIDTH 888 0
DWIDTH 8 0
BBX 7 7 1 0
BITMAP
10
20
00
AA
D4
54
A8
ENDCHAR
STARTCHAR 1E84
ENCODING 7812
SWIDTH 888 0
DWIDTH 8 0
BBX 7 8 1 0
BITMAP
18
00
F6
AA
EA
2A
DA
8E
ENDCHAR
STARTCHAR 1E85
ENCODING 7813
SWIDTH 888 0
DWIDTH 8 0
BBX 7 6 1 0
BITMAP
28
00
AA
D4
54
A8
ENDCHAR
STARTCHAR 1E9E
ENCODING 7838
SWIDTH 888 0
DWIDTH 8 0
BBX 7 6 1 0
BITMAP
DE
A4
E4
E2
2A
26
ENDCHAR
STARTCHAR 1EF2
ENCODING 7922
SWIDTH 888 0
DWIDTH 8 0
BBX 7 10 1 -2
BITMAP
30
00
EE
B4
A4
E4
24
C8
B0
C0
ENDCHAR
STARTCHAR 1EF3
ENCODING 7923
SWIDTH 555 0
DWIDTH 5 0
BBX 4 9 1 -2
BITMAP
40
20
00
90
D0
50
30
50
20
ENDCHAR
STARTCHAR 200A
ENCODING 8202
SWIDTH 111 0
DWIDTH 1 0
BBX 0 0 0 0
BITMAP
ENDCHAR
STARTCHAR 2013
ENCODING 8211
SWIDTH 555 0
DWIDTH 5 0
BBX 4 1 1 2
BITMAP
F0
ENDCHAR
STARTCHAR 2014
ENCODING 8212
SWIDTH 888 0
DWIDTH 8 0
BBX 7 1 1 2
BITMAP
FE
ENDCHAR
STARTCHAR 2018
ENCODING 8216
SWIDTH 222 0
DWIDTH 2 0
BBX 1 2 1 4
BITMAP
80
80
ENDCHAR
STARTCHAR 2019
ENCODING 8217
SWIDTH 222 0
DWIDTH 2 0
BBX 1 2 1 4
BITMAP
80
80
ENDCHAR
STARTCHAR 201A
ENCODING 8218
SWIDTH 333 0
DWIDTH 3 0
BBX 2 3 1 -1
BITMAP
80
C0
80
ENDCHAR
STARTCHAR 201C
ENCODING 8220
SWIDTH 333 0
DWIDTH 3 0
BBX 2 2 1 4
BITMAP
C0
C0
ENDCHAR
STARTCHAR 201D
ENCODING 8221
SWIDTH 333 0
DWIDTH 3 0
BBX 2 2 1 4
BITMAP
C0
C0
ENDCHAR
STARTCHAR 201E
ENCODING 8222
SWIDTH 666 0
DWIDTH 6 0
BBX 5 3 1 -1
BITMAP
90
E8
B0
ENDCHAR
STARTCHAR 2022
ENCODING 8226
SWIDTH 333 0
DWIDTH 3 0
BBX 2 2 1 2
BITMAP
C0
C0
ENDCHAR
STARTCHAR 2026
ENCODING 8230
SWIDTH 777 0
DWIDTH 7 0
BBX 6 3 1 -1
BITMAP
A8
AC
A8
ENDCHAR
STARTCHAR 2039
ENCODING 8249
SWIDTH 333 0
DWIDTH 3 0
BBX 2 4 1 0
BITMAP
40
80
80
40
ENDCHAR
STARTCHAR 203A
ENCODING 8250
SWIDTH 333 0
DWIDTH 3 0
BBX 2 4 1 0
BITMAP
80
40
80
80
ENDCHAR
STARTCHAR 20AC
ENCODING 8364
SWIDTH 444 0
DWIDTH 4 0
BBX 3 5 1 0
BITMAP
40
E0
80
E0
40
ENDCHAR
STARTCHAR 2122
ENCODING 8482
SWIDTH 1666 0
DWIDTH 15 0
BBX 14 7 1 0
BITMAP
E5EC
BA94
0204
F254
1154
2954
7994
ENDCHAR
STARTCHAR 2212
ENCODING 8722
SWIDTH 444 0
DWIDTH 4 0
BBX 3 1 1 3
BITMAP
E0
ENDCHAR
ENDFONT
