STARTFONT 2.1
COMMENT
COMMENT Converted from OpenType font "JacquardaBastarda9-Regular.ttf" by "otf2bdf 3.0".
COMMENT
FONT -FreeType-Jacquarda Bastarda 9-Medium-R-Normal--13-130-72-72-P-69-ISO10646-1
SIZE 13 72 72
FONTBOUNDINGBOX 22 17 0 -4
STARTPROPERTIES 19
FOUNDRY "FreeType"
FAMILY_NAME "Jacquarda Bastarda 9"
WEIGHT_NAME "Medium"
SLANT "R"
SETWIDTH_NAME "Normal"
ADD_STYLE_NAME ""
PIXEL_SIZE 13
POINT_SIZE 130
RESOLUTION_X 72
RESOLUTION_Y 72
SPACING "P"
AVERAGE_WIDTH 69
CHARSET_REGISTRY "ISO10646"
CHARSET_ENCODING "1"
FONT_ASCENT 13
FONT_DESCENT 4
COPYRIGHT "Copyright 2023 The Soft Type Project Authors (https://github.com/scfried/soft-type-jacquarda-bastarda)"
_OTF_FONTFILE "JacquardaBastarda9-Regular.ttf"
_OTF_PSNAME "JacquardaBastarda9-Regular"
ENDPROPERTIES
CHARS 331
STARTCHAR 0020
ENCODING 32
SWIDTH 384 0
DWIDTH 5 0
BBX 0 0 0 0
BITMAP
ENDCHAR
STARTCHAR 0021
ENCODING 33
SWIDTH 307 0
DWIDTH 4 0
BBX 3 10 1 -1
BITMAP
A0
40
40
40
40
A0
00
40
A0
40
ENDCHAR
STARTCHAR 0022
ENCODING 34
SWIDTH 307 0
DWIDTH 4 0
BBX 3 3 1 6
BITMAP
A0
A0
A0
ENDCHAR
STARTCHAR 0023
ENCODING 35
SWIDTH 769 0
DWIDTH 10 0
BBX 9 8 1 0
BITMAP
0480
0900
3F80
1200
2400
FE00
4800
9000
ENDCHAR
STARTCHAR 0024
ENCODING 36
SWIDTH 538 0
DWIDTH 7 0
BBX 6 10 1 -2
BITMAP
20
20
34
48
50
28
48
B0
10
10
ENDCHAR
STARTCHAR 0025
ENCODING 37
SWIDTH 615 0
DWIDTH 8 0
BBX 7 9 1 0
BITMAP
40
A2
44
08
10
20
44
8A
04
ENDCHAR
STARTCHAR 0026
ENCODING 38
SWIDTH 615 0
DWIDTH 8 0
BBX 7 9 1 0
BITMAP
30
48
40
32
44
8A
82
84
78
ENDCHAR
STARTCHAR 0027
ENCODING 39
SWIDTH 153 0
DWIDTH 2 0
BBX 1 3 1 6
BITMAP
80
80
80
ENDCHAR
STARTCHAR 0028
ENCODING 40
SWIDTH 307 0
DWIDTH 4 0
BBX 3 11 1 -1
BITMAP
20
40
40
80
80
80
80
80
40
40
20
ENDCHAR
STARTCHAR 0029
ENCODING 41
SWIDTH 307 0
DWIDTH 4 0
BBX 3 11 1 -1
BITMAP
80
40
40
20
20
20
20
20
40
40
80
ENDCHAR
STARTCHAR 002A
ENCODING 42
SWIDTH 461 0
DWIDTH 6 0
BBX 5 5 1 4
BITMAP
50
D8
20
D8
50
ENDCHAR
STARTCHAR 002B
ENCODING 43
SWIDTH 461 0
DWIDTH 6 0
BBX 5 5 1 2
BITMAP
20
20
F8
20
20
ENDCHAR
STARTCHAR 002C
ENCODING 44
SWIDTH 307 0
DWIDTH 4 0
BBX 3 4 1 -2
BITMAP
40
A0
40
80
ENDCHAR
STARTCHAR 002D
ENCODING 45
SWIDTH 384 0
DWIDTH 5 0
BBX 4 1 1 3
BITMAP
F0
ENDCHAR
STARTCHAR 002E
ENCODING 46
SWIDTH 307 0
DWIDTH 4 0
BBX 3 3 1 -1
BITMAP
40
A0
40
ENDCHAR
STARTCHAR 002F
ENCODING 47
SWIDTH 461 0
DWIDTH 6 0
BBX 5 10 1 -1
BITMAP
08
08
10
10
20
20
40
40
80
80
ENDCHAR
STARTCHAR 0030
ENCODING 48
SWIDTH 384 0
DWIDTH 5 0
BBX 4 6 1 0
BITMAP
60
90
90
90
90
60
ENDCHAR
STARTCHAR 0031
ENCODING 49
SWIDTH 307 0
DWIDTH 4 0
BBX 3 6 1 0
BITMAP
80
40
40
40
40
A0
ENDCHAR
STARTCHAR 0032
ENCODING 50
SWIDTH 461 0
DWIDTH 6 0
BBX 5 6 1 0
BITMAP
60
90
10
20
48
B0
ENDCHAR
STARTCHAR 0033
ENCODING 51
SWIDTH 384 0
DWIDTH 5 0
BBX 4 8 1 -2
BITMAP
60
90
10
60
10
10
90
60
ENDCHAR
STARTCHAR 0034
ENCODING 52
SWIDTH 461 0
DWIDTH 6 0
BBX 5 8 1 -2
BITMAP
10
30
50
90
F0
10
10
28
ENDCHAR
STARTCHAR 0035
ENCODING 53
SWIDTH 384 0
DWIDTH 5 0
BBX 4 8 1 -2
BITMAP
70
80
80
E0
10
10
90
60
ENDCHAR
STARTCHAR 0036
ENCODING 54
SWIDTH 384 0
DWIDTH 5 0
BBX 4 8 1 0
BITMAP
60
90
80
E0
90
90
90
60
ENDCHAR
STARTCHAR 0037
ENCODING 55
SWIDTH 384 0
DWIDTH 5 0
BBX 4 8 1 -2
BITMAP
F0
10
10
20
40
40
40
40
ENDCHAR
STARTCHAR 0038
ENCODING 56
SWIDTH 384 0
DWIDTH 5 0
BBX 4 8 1 0
BITMAP
60
90
90
60
90
90
90
60
ENDCHAR
STARTCHAR 0039
ENCODING 57
SWIDTH 384 0
DWIDTH 5 0
BBX 4 8 1 0
BITMAP
60
90
90
90
70
10
90
60
ENDCHAR
STARTCHAR 003A
ENCODING 58
SWIDTH 307 0
DWIDTH 4 0
BBX 3 8 1 -1
BITMAP
40
A0
40
00
00
40
A0
40
ENDCHAR
STARTCHAR 003B
ENCODING 59
SWIDTH 307 0
DWIDTH 4 0
BBX 3 9 1 -2
BITMAP
40
A0
40
00
00
40
A0
40
80
ENDCHAR
STARTCHAR 003C
ENCODING 60
SWIDTH 461 0
DWIDTH 6 0
BBX 5 5 1 2
BITMAP
18
60
80
60
18
ENDCHAR
STARTCHAR 003D
ENCODING 61
SWIDTH 461 0
DWIDTH 6 0
BBX 5 3 1 3
BITMAP
F8
00
F8
ENDCHAR
STARTCHAR 003E
ENCODING 62
SWIDTH 461 0
DWIDTH 6 0
BBX 5 5 1 2
BITMAP
C0
30
08
30
C0
ENDCHAR
STARTCHAR 003F
ENCODING 63
SWIDTH 461 0
DWIDTH 6 0
BBX 5 10 1 -1
BITMAP
70
88
08
10
20
20
00
20
50
20
ENDCHAR
STARTCHAR 0040
ENCODING 64
SWIDTH 923 0
DWIDTH 12 0
BBX 11 11 1 -2
BITMAP
3F80
4040
8020
8D20
9220
9220
9220
9640
8980
4000
3F00
ENDCHAR
STARTCHAR 0041
ENCODING 65
SWIDTH 846 0
DWIDTH 11 0
BBX 10 9 1 0
BITMAP
76C0
8900
8900
4900
2900
6900
0900
0B40
1480
ENDCHAR
STARTCHAR 0042
ENCODING 66
SWIDTH 846 0
DWIDTH 11 0
BBX 10 9 1 0
BITMAP
6EC0
9180
9300
5C80
D040
1040
7040
9080
CF00
ENDCHAR
STARTCHAR 0043
ENCODING 67
SWIDTH 692 0
DWIDTH 9 0
BBX 8 9 1 0
BITMAP
3B
45
98
90
88
98
40
61
1E
ENDCHAR
STARTCHAR 0044
ENCODING 68
SWIDTH 769 0
DWIDTH 10 0
BBX 9 9 1 0
BITMAP
3E00
5100
9080
8080
2880
3080
0080
7100
9E00
ENDCHAR
STARTCHAR 0045
ENCODING 69
SWIDTH 692 0
DWIDTH 9 0
BBX 8 9 1 0
BITMAP
3B
45
90
92
8E
92
40
61
1E
ENDCHAR
STARTCHAR 0046
ENCODING 70
SWIDTH 769 0
DWIDTH 10 0
BBX 9 12 1 -3
BITMAP
7980
8480
8300
4400
0580
3600
1300
2180
4080
4080
2100
1E00
ENDCHAR
STARTCHAR 0047
ENCODING 71
SWIDTH 692 0
DWIDTH 9 0
BBX 8 9 1 0
BITMAP
3A
44
80
9E
91
B1
81
42
3C
ENDCHAR
STARTCHAR 0048
ENCODING 72
SWIDTH 769 0
DWIDTH 10 0
BBX 9 13 1 -3
BITMAP
0600
7200
8C00
8000
6700
1880
1080
D080
9080
6100
0200
0400
0600
ENDCHAR
STARTCHAR 0049
ENCODING 73
SWIDTH 692 0
DWIDTH 9 0
BBX 8 9 1 0
BITMAP
73
8D
A2
45
02
01
C1
A1
1E
ENDCHAR
STARTCHAR 004A
ENCODING 74
SWIDTH 692 0
DWIDTH 9 0
BBX 8 12 1 -3
BITMAP
73
8D
82
A5
42
02
02
02
C1
A1
21
1E
ENDCHAR
STARTCHAR 004B
ENCODING 75
SWIDTH 769 0
DWIDTH 10 0
BBX 9 11 1 -1
BITMAP
1F80
2000
4E00
5100
6200
2C00
1200
D200
9100
6100
0180
ENDCHAR
STARTCHAR 004C
ENCODING 76
SWIDTH 615 0
DWIDTH 8 0
BBX 7 9 1 0
BITMAP
38
44
44
48
24
10
10
62
9C
ENDCHAR
STARTCHAR 004D
ENCODING 77
SWIDTH 923 0
DWIDTH 12 0
BBX 11 9 1 0
BITMAP
6CC0
B320
9220
8920
4920
C920
0920
D120
6220
ENDCHAR
STARTCHAR 004E
ENCODING 78
SWIDTH 923 0
DWIDTH 12 0
BBX 11 9 1 0
BITMAP
7780
98C0
8840
4440
C480
0480
0480
6880
B060
ENDCHAR
STARTCHAR 004F
ENCODING 79
SWIDTH 769 0
DWIDTH 10 0
BBX 9 9 1 0
BITMAP
3C00
4200
8100
8080
4080
C080
0080
6100
9E00
ENDCHAR
STARTCHAR 0050
ENCODING 80
SWIDTH 846 0
DWIDTH 11 0
BBX 10 12 1 -3
BITMAP
7700
9880
8840
4840
C840
0840
0840
3C80
CB00
0800
0800
0800
ENDCHAR
STARTCHAR 0051
ENCODING 81
SWIDTH 923 0
DWIDTH 12 0
BBX 11 9 1 0
BITMAP
3C00
4200
8100
8080
4080
C080
0680
6120
9EC0
ENDCHAR
STARTCHAR 0052
ENCODING 82
SWIDTH 923 0
DWIDTH 12 0
BBX 11 9 1 0
BITMAP
7780
98C0
8840
4480
C700
0480
0480
6840
B060
ENDCHAR
STARTCHAR 0053
ENCODING 83
SWIDTH 769 0
DWIDTH 10 0
BBX 9 9 1 0
BITMAP
3C80
4700
8000
B300
A480
9880
4080
6100
1E00
ENDCHAR
STARTCHAR 0054
ENCODING 84
SWIDTH 769 0
DWIDTH 10 0
BBX 9 9 1 0
BITMAP
7880
8F00
8000
6C00
0800
0400
0C00
1100
2E00
ENDCHAR
STARTCHAR 0055
ENCODING 85
SWIDTH 615 0
DWIDTH 8 0
BBX 7 9 1 0
BITMAP
CC
44
44
44
44
44
8C
94
62
ENDCHAR
STARTCHAR 0056
ENCODING 86
SWIDTH 923 0
DWIDTH 12 0
BBX 11 9 1 0
BITMAP
7780
8060
C8C0
2900
6980
1040
3840
4440
4380
ENDCHAR
STARTCHAR 0057
ENCODING 87
SWIDTH 923 0
DWIDTH 12 0
BBX 11 9 1 0
BITMAP
6DA0
9240
D240
2920
6920
0920
3920
4520
42C0
ENDCHAR
STARTCHAR 0058
ENCODING 88
SWIDTH 769 0
DWIDTH 10 0
BBX 9 9 1 0
BITMAP
7300
9580
0800
0800
1C00
0800
0800
D480
6700
ENDCHAR
STARTCHAR 0059
ENCODING 89
SWIDTH 846 0
DWIDTH 11 0
BBX 10 12 1 -3
BITMAP
7180
9AC0
8C80
C880
2880
6880
1080
6100
0100
C200
8C00
7000
ENDCHAR
STARTCHAR 005A
ENCODING 90
SWIDTH 692 0
DWIDTH 9 0
BBX 8 11 1 -2
BITMAP
3E
43
41
21
02
0C
1A
01
01
71
9E
ENDCHAR
STARTCHAR 005B
ENCODING 91
SWIDTH 230 0
DWIDTH 3 0
BBX 2 11 1 -1
BITMAP
C0
40
40
40
40
40
40
40
40
40
C0
ENDCHAR
STARTCHAR 005C
ENCODING 92
SWIDTH 461 0
DWIDTH 6 0
BBX 5 10 1 -1
BITMAP
80
80
40
40
20
20
10
10
08
08
ENDCHAR
STARTCHAR 005D
ENCODING 93
SWIDTH 230 0
DWIDTH 3 0
BBX 2 11 1 -1
BITMAP
C0
80
80
80
80
80
80
80
80
80
C0
ENDCHAR
STARTCHAR 005E
ENCODING 94
SWIDTH 307 0
DWIDTH 4 0
BBX 3 3 1 6
BITMAP
40
A0
A0
ENDCHAR
STARTCHAR 005F
ENCODING 95
SWIDTH 538 0
DWIDTH 7 0
BBX 6 1 1 -1
BITMAP
FC
ENDCHAR
STARTCHAR 0060
ENCODING 96
SWIDTH 153 0
DWIDTH 2 0
BBX 2 2 0 8
BITMAP
80
40
ENDCHAR
STARTCHAR 0061
ENCODING 97
SWIDTH 538 0
DWIDTH 7 0
BBX 6 6 1 0
BITMAP
34
48
48
48
58
A4
ENDCHAR
STARTCHAR 0062
ENCODING 98
SWIDTH 538 0
DWIDTH 7 0
BBX 6 9 1 0
BITMAP
20
40
40
74
48
48
48
48
B0
ENDCHAR
STARTCHAR 0063
ENCODING 99
SWIDTH 461 0
DWIDTH 6 0
BBX 5 6 1 0
BITMAP
30
48
40
40
48
B0
ENDCHAR
STARTCHAR 0064
ENCODING 100
SWIDTH 461 0
DWIDTH 6 0
BBX 5 9 1 0
BITMAP
40
20
10
28
48
48
48
48
B0
ENDCHAR
STARTCHAR 0065
ENCODING 101
SWIDTH 461 0
DWIDTH 6 0
BBX 5 6 1 0
BITMAP
30
48
78
40
48
B0
ENDCHAR
STARTCHAR 0066
ENCODING 102
SWIDTH 384 0
DWIDTH 5 0
BBX 4 10 1 -1
BITMAP
20
50
40
F0
40
40
40
40
40
80
ENDCHAR
STARTCHAR 0067
ENCODING 103
SWIDTH 538 0
DWIDTH 7 0
BBX 6 9 1 -3
BITMAP
34
48
48
48
48
B8
08
48
30
ENDCHAR
STARTCHAR 0068
ENCODING 104
SWIDTH 538 0
DWIDTH 7 0
BBX 6 12 1 -3
BITMAP
20
40
40
54
68
48
48
48
A8
08
10
20
ENDCHAR
STARTCHAR 0069
ENCODING 105
SWIDTH 384 0
DWIDTH 5 0
BBX 4 9 1 0
BITMAP
20
00
00
50
A0
20
20
20
50
ENDCHAR
STARTCHAR 006A
ENCODING 106
SWIDTH 384 0
DWIDTH 5 0
BBX 4 12 1 -3
BITMAP
20
00
00
50
A0
20
20
20
20
20
A0
40
ENDCHAR
STARTCHAR 006B
ENCODING 107
SWIDTH 538 0
DWIDTH 7 0
BBX 6 9 1 0
BITMAP
20
40
40
44
48
50
68
48
A4
ENDCHAR
STARTCHAR 006C
ENCODING 108
SWIDTH 307 0
DWIDTH 4 0
BBX 3 9 1 0
BITMAP
20
40
40
40
40
40
40
40
A0
ENDCHAR
STARTCHAR 006D
ENCODING 109
SWIDTH 846 0
DWIDTH 11 0
BBX 10 6 1 0
BITMAP
4900
B680
2480
2480
2480
5240
ENDCHAR
STARTCHAR 006E
ENCODING 110
SWIDTH 615 0
DWIDTH 8 0
BBX 7 6 1 0
BITMAP
4A
B4
24
24
24
52
ENDCHAR
STARTCHAR 006F
ENCODING 111
SWIDTH 538 0
DWIDTH 7 0
BBX 6 6 1 0
BITMAP
34
48
48
48
48
B0
ENDCHAR
STARTCHAR 0070
ENCODING 112
SWIDTH 538 0
DWIDTH 7 0
BBX 6 9 1 -3
BITMAP
B4
48
48
48
48
F0
40
40
80
ENDCHAR
STARTCHAR 0071
ENCODING 113
SWIDTH 538 0
DWIDTH 7 0
BBX 6 9 1 -3
BITMAP
34
48
48
48
48
B8
08
08
04
ENDCHAR
STARTCHAR 0072
ENCODING 114
SWIDTH 538 0
DWIDTH 7 0
BBX 6 6 1 0
BITMAP
58
A4
20
20
28
50
ENDCHAR
STARTCHAR 0073
ENCODING 115
SWIDTH 538 0
DWIDTH 7 0
BBX 6 6 1 0
BITMAP
34
48
50
28
48
B0
ENDCHAR
STARTCHAR 0074
ENCODING 116
SWIDTH 384 0
DWIDTH 5 0
BBX 4 8 1 0
BITMAP
20
40
F0
40
40
40
50
20
ENDCHAR
STARTCHAR 0075
ENCODING 117
SWIDTH 692 0
DWIDTH 9 0
BBX 8 6 1 0
BITMAP
45
A6
24
24
2D
52
ENDCHAR
STARTCHAR 0076
ENCODING 118
SWIDTH 615 0
DWIDTH 8 0
BBX 7 6 1 0
BITMAP
5A
A4
24
24
24
58
ENDCHAR
STARTCHAR 0077
ENCODING 119
SWIDTH 846 0
DWIDTH 11 0
BBX 10 6 1 0
BITMAP
5B40
A480
2480
2480
2480
5B00
ENDCHAR
STARTCHAR 0078
ENCODING 120
SWIDTH 538 0
DWIDTH 7 0
BBX 7 6 0 0
BITMAP
2C
52
18
30
94
68
ENDCHAR
STARTCHAR 0079
ENCODING 121
SWIDTH 538 0
DWIDTH 7 0
BBX 6 9 1 -3
BITMAP
44
A4
24
24
24
1C
04
24
18
ENDCHAR
STARTCHAR 007A
ENCODING 122
SWIDTH 461 0
DWIDTH 6 0
BBX 5 9 1 -3
BITMAP
78
88
10
20
58
08
08
88
70
ENDCHAR
STARTCHAR 007B
ENCODING 123
SWIDTH 230 0
DWIDTH 3 0
BBX 2 11 1 -1
BITMAP
40
80
80
80
40
80
40
80
80
80
40
ENDCHAR
STARTCHAR 007C
ENCODING 124
SWIDTH 307 0
DWIDTH 4 0
BBX 1 12 2 -2
BITMAP
80
80
80
80
80
80
80
80
80
80
80
80
ENDCHAR
STARTCHAR 007D
ENCODING 125
SWIDTH 230 0
DWIDTH 3 0
BBX 2 11 1 -1
BITMAP
80
40
40
40
80
40
80
40
40
40
80
ENDCHAR
STARTCHAR 007E
ENCODING 126
SWIDTH 538 0
DWIDTH 7 0
BBX 6 2 1 3
BITMAP
64
98
ENDCHAR
STARTCHAR 00A0
ENCODING 160
SWIDTH 384 0
DWIDTH 5 0
BBX 0 0 0 0
BITMAP
ENDCHAR
STARTCHAR 00A1
ENCODING 161
SWIDTH 307 0
DWIDTH 4 0
BBX 3 10 1 -1
BITMAP
40
A0
40
00
A0
40
40
40
40
A0
ENDCHAR
STARTCHAR 00A2
ENCODING 162
SWIDTH 461 0
DWIDTH 6 0
BBX 5 8 1 -1
BITMAP
20
70
A8
A0
A0
A8
70
20
ENDCHAR
STARTCHAR 00A3
ENCODING 163
SWIDTH 538 0
DWIDTH 7 0
BBX 6 7 1 0
BITMAP
38
44
20
F8
20
40
FC
ENDCHAR
STARTCHAR 00A5
ENCODING 165
SWIDTH 307 0
DWIDTH 4 0
BBX 3 7 1 0
BITMAP
A0
A0
40
E0
40
E0
40
ENDCHAR
STARTCHAR 00A7
ENCODING 167
SWIDTH 461 0
DWIDTH 6 0
BBX 5 11 1 -2
BITMAP
70
88
80
70
88
88
88
70
08
88
70
ENDCHAR
STARTCHAR 00A8
ENCODING 168
SWIDTH 230 0
DWIDTH 3 0
BBX 3 1 0 8
BITMAP
A0
ENDCHAR
STARTCHAR 00A9
ENCODING 169
SWIDTH 923 0
DWIDTH 12 0
BBX 11 12 1 -2
BITMAP
3F80
4040
8020
8E20
9120
9020
9020
9120
8E20
8020
4040
3F80
ENDCHAR
STARTCHAR 00AA
ENCODING 170
SWIDTH 538 0
DWIDTH 7 0
BBX 6 6 1 0
BITMAP
34
48
48
48
58
A4
ENDCHAR
STARTCHAR 00AB
ENCODING 171
SWIDTH 538 0
DWIDTH 7 0
BBX 6 5 1 1
BITMAP
24
48
90
48
24
ENDCHAR
STARTCHAR 00AE
ENCODING 174
SWIDTH 615 0
DWIDTH 8 0
BBX 7 8 1 2
BITMAP
38
44
92
AA
B2
AA
44
38
ENDCHAR
STARTCHAR 00AF
ENCODING 175
SWIDTH 230 0
DWIDTH 3 0
BBX 3 1 0 8
BITMAP
E0
ENDCHAR
STARTCHAR 00B0
ENCODING 176
SWIDTH 307 0
DWIDTH 4 0
BBX 3 3 1 6
BITMAP
40
A0
40
ENDCHAR
STARTCHAR 00B4
ENCODING 180
SWIDTH 153 0
DWIDTH 2 0
BBX 2 2 0 8
BITMAP
40
80
ENDCHAR
STARTCHAR 00B6
ENCODING 182
SWIDTH 538 0
DWIDTH 7 0
BBX 6 11 1 -2
BITMAP
74
D4
94
D4
74
14
14
14
14
14
14
ENDCHAR
STARTCHAR 00B7
ENCODING 183
SWIDTH 307 0
DWIDTH 4 0
BBX 3 3 1 3
BITMAP
40
A0
40
ENDCHAR
STARTCHAR 00B8
ENCODING 184
SWIDTH 230 0
DWIDTH 3 0
BBX 3 3 0 -3
BITMAP
40
20
C0
ENDCHAR
STARTCHAR 00BA
ENCODING 186
SWIDTH 538 0
DWIDTH 7 0
BBX 6 6 1 0
BITMAP
34
48
48
48
48
B0
ENDCHAR
STARTCHAR 00BB
ENCODING 187
SWIDTH 538 0
DWIDTH 7 0
BBX 6 5 1 1
BITMAP
90
48
24
48
90
ENDCHAR
STARTCHAR 00BF
ENCODING 191
SWIDTH 461 0
DWIDTH 6 0
BBX 5 10 1 -1
BITMAP
20
50
20
00
20
20
40
80
88
70
ENDCHAR
STARTCHAR 00C0
ENCODING 192
SWIDTH 846 0
DWIDTH 11 0
BBX 10 12 1 0
BITMAP
0800
0400
0000
76C0
8900
8900
4900
2900
6900
0900
0B40
1480
ENDCHAR
STARTCHAR 00C1
ENCODING 193
SWIDTH 846 0
DWIDTH 11 0
BBX 10 12 1 0
BITMAP
0400
0800
0000
76C0
8900
8900
4900
2900
6900
0900
0B40
1480
ENDCHAR
STARTCHAR 00C2
ENCODING 194
SWIDTH 846 0
DWIDTH 11 0
BBX 10 12 1 0
BITMAP
0400
0A00
0000
76C0
8900
8900
4900
2900
6900
0900
0B40
1480
ENDCHAR
STARTCHAR 00C3
ENCODING 195
SWIDTH 846 0
DWIDTH 11 0
BBX 10 12 1 0
BITMAP
1A00
1600
0000
76C0
8900
8900
4900
2900
6900
0900
0B40
1480
ENDCHAR
STARTCHAR 00C4
ENCODING 196
SWIDTH 846 0
DWIDTH 11 0
BBX 10 11 1 0
BITMAP
0A00
0000
76C0
8900
8900
4900
2900
6900
0900
0B40
1480
ENDCHAR
STARTCHAR 00C5
ENCODING 197
SWIDTH 846 0
DWIDTH 11 0
BBX 10 13 1 0
BITMAP
0400
0A00
0400
0000
76C0
8900
8900
4900
2900
6900
0900
0B40
1480
ENDCHAR
STARTCHAR 00C6
ENCODING 198
SWIDTH 1153 0
DWIDTH 15 0
BBX 14 9 1 0
BITMAP
766C
8994
8920
4928
2918
6928
0980
0AC4
1438
ENDCHAR
STARTCHAR 00C7
ENCODING 199
SWIDTH 692 0
DWIDTH 9 0
BBX 8 12 1 -3
BITMAP
3B
45
98
90
88
98
40
61
1E
08
04
18
ENDCHAR
STARTCHAR 00C8
ENCODING 200
SWIDTH 692 0
DWIDTH 9 0
BBX 8 12 1 0
BITMAP
10
08
00
3B
45
90
92
8E
92
40
61
1E
ENDCHAR
STARTCHAR 00C9
ENCODING 201
SWIDTH 692 0
DWIDTH 9 0
BBX 8 12 1 0
BITMAP
08
10
00
3B
45
90
92
8E
92
40
61
1E
ENDCHAR
STARTCHAR 00CA
ENCODING 202
SWIDTH 692 0
DWIDTH 9 0
BBX 8 12 1 0
BITMAP
08
14
00
3B
45
90
92
8E
92
40
61
1E
ENDCHAR
STARTCHAR 00CB
ENCODING 203
SWIDTH 692 0
DWIDTH 9 0
BBX 8 11 1 0
BITMAP
14
00
3B
45
90
92
8E
92
40
61
1E
ENDCHAR
STARTCHAR 00CC
ENCODING 204
SWIDTH 692 0
DWIDTH 9 0
BBX 8 12 1 0
BITMAP
10
08
00
73
8D
A2
45
02
01
C1
A1
1E
ENDCHAR
STARTCHAR 00CD
ENCODING 205
SWIDTH 692 0
DWIDTH 9 0
BBX 8 12 1 0
BITMAP
08
10
00
73
8D
A2
45
02
01
C1
A1
1E
ENDCHAR
STARTCHAR 00CE
ENCODING 206
SWIDTH 692 0
DWIDTH 9 0
BBX 8 12 1 0
BITMAP
08
14
00
73
8D
A2
45
02
01
C1
A1
1E
ENDCHAR
STARTCHAR 00CF
ENCODING 207
SWIDTH 692 0
DWIDTH 9 0
BBX 8 11 1 0
BITMAP
14
00
73
8D
A2
45
02
01
C1
A1
1E
ENDCHAR
STARTCHAR 00D0
ENCODING 208
SWIDTH 769 0
DWIDTH 10 0
BBX 9 9 1 0
BITMAP
3E00
5100
9080
8080
3880
0080
1080
7100
9E00
ENDCHAR
STARTCHAR 00D1
ENCODING 209
SWIDTH 923 0
DWIDTH 12 0
BBX 11 12 1 0
BITMAP
0D00
0B00
0000
7780
98C0
8840
4440
C480
0480
0480
6880
B060
ENDCHAR
STARTCHAR 00D2
ENCODING 210
SWIDTH 769 0
DWIDTH 10 0
BBX 9 12 1 0
BITMAP
1000
0800
0000
3C00
4200
8100
8080
4080
C080
0080
6100
9E00
ENDCHAR
STARTCHAR 00D3
ENCODING 211
SWIDTH 769 0
DWIDTH 10 0
BBX 9 12 1 0
BITMAP
0800
1000
0000
3C00
4200
8100
8080
4080
C080
0080
6100
9E00
ENDCHAR
STARTCHAR 00D4
ENCODING 212
SWIDTH 769 0
DWIDTH 10 0
BBX 9 12 1 0
BITMAP
0800
1400
0000
3C00
4200
8100
8080
4080
C080
0080
6100
9E00
ENDCHAR
STARTCHAR 00D5
ENCODING 213
SWIDTH 769 0
DWIDTH 10 0
BBX 9 12 1 0
BITMAP
3400
2C00
0000
3C00
4200
8100
8080
4080
C080
0080
6100
9E00
ENDCHAR
STARTCHAR 00D6
ENCODING 214
SWIDTH 769 0
DWIDTH 10 0
BBX 9 11 1 0
BITMAP
1400
0000
3C00
4200
8100
8080
4080
C080
0080
6100
9E00
ENDCHAR
STARTCHAR 00D7
ENCODING 215
SWIDTH 461 0
DWIDTH 6 0
BBX 5 5 1 2
BITMAP
88
50
20
50
88
ENDCHAR
STARTCHAR 00D8
ENCODING 216
SWIDTH 769 0
DWIDTH 10 0
BBX 9 9 1 0
BITMAP
3C80
4100
8200
8480
4880
D080
2080
4100
9E00
ENDCHAR
STARTCHAR 00D9
ENCODING 217
SWIDTH 615 0
DWIDTH 8 0
BBX 7 12 1 0
BITMAP
20
10
00
CC
44
44
44
44
44
8C
94
62
ENDCHAR
STARTCHAR 00DA
ENCODING 218
SWIDTH 615 0
DWIDTH 8 0
BBX 7 12 1 0
BITMAP
10
20
00
CC
44
44
44
44
44
8C
94
62
ENDCHAR
STARTCHAR 00DB
ENCODING 219
SWIDTH 615 0
DWIDTH 8 0
BBX 7 12 1 0
BITMAP
10
28
00
CC
44
44
44
44
44
8C
94
62
ENDCHAR
STARTCHAR 00DC
ENCODING 220
SWIDTH 615 0
DWIDTH 8 0
BBX 7 11 1 0
BITMAP
28
00
CC
44
44
44
44
44
8C
94
62
ENDCHAR
STARTCHAR 00DD
ENCODING 221
SWIDTH 846 0
DWIDTH 11 0
BBX 10 15 1 -3
BITMAP
0400
0800
0000
7180
9AC0
8C80
C880
2880
6880
1080
6100
0100
C200
8C00
7000
ENDCHAR
STARTCHAR 00DE
ENCODING 222
SWIDTH 846 0
DWIDTH 11 0
BBX 10 12 1 -3
BITMAP
7000
9800
8800
4B00
CC80
0840
0840
3C80
CB00
0800
0800
0800
ENDCHAR
STARTCHAR 00DF
ENCODING 223
SWIDTH 615 0
DWIDTH 8 0
BBX 7 9 1 0
BITMAP
3C
42
42
4C
42
4A
52
52
8C
ENDCHAR
STARTCHAR 00E0
ENCODING 224
SWIDTH 538 0
DWIDTH 7 0
BBX 6 10 1 0
BITMAP
20
10
00
00
34
48
48
48
58
A4
ENDCHAR
STARTCHAR 00E1
ENCODING 225
SWIDTH 538 0
DWIDTH 7 0
BBX 6 10 1 0
BITMAP
10
20
00
00
34
48
48
48
58
A4
ENDCHAR
STARTCHAR 00E2
ENCODING 226
SWIDTH 538 0
DWIDTH 7 0
BBX 6 10 1 0
BITMAP
10
28
00
00
34
48
48
48
58
A4
ENDCHAR
STARTCHAR 00E3
ENCODING 227
SWIDTH 538 0
DWIDTH 7 0
BBX 6 10 1 0
BITMAP
68
58
00
00
34
48
48
48
58
A4
ENDCHAR
STARTCHAR 00E4
ENCODING 228
SWIDTH 538 0
DWIDTH 7 0
BBX 6 9 1 0
BITMAP
28
00
00
34
48
48
48
58
A4
ENDCHAR
STARTCHAR 00E5
ENCODING 229
SWIDTH 538 0
DWIDTH 7 0
BBX 6 11 1 0
BITMAP
10
28
10
00
00
34
48
48
48
58
A4
ENDCHAR
STARTCHAR 00E6
ENCODING 230
SWIDTH 692 0
DWIDTH 9 0
BBX 8 6 1 0
BITMAP
36
49
4F
48
59
AE
ENDCHAR
STARTCHAR 00E7
ENCODING 231
SWIDTH 461 0
DWIDTH 6 0
BBX 5 9 1 -3
BITMAP
30
48
40
40
48
B0
10
08
30
ENDCHAR
STARTCHAR 00E8
ENCODING 232
SWIDTH 461 0
DWIDTH 6 0
BBX 5 10 1 0
BITMAP
20
10
00
00
30
48
78
40
48
B0
ENDCHAR
STARTCHAR 00E9
ENCODING 233
SWIDTH 461 0
DWIDTH 6 0
BBX 5 10 1 0
BITMAP
10
20
00
00
30
48
78
40
48
B0
ENDCHAR
STARTCHAR 00EA
ENCODING 234
SWIDTH 461 0
DWIDTH 6 0
BBX 5 10 1 0
BITMAP
10
28
00
00
30
48
78
40
48
B0
ENDCHAR
STARTCHAR 00EB
ENCODING 235
SWIDTH 461 0
DWIDTH 6 0
BBX 5 9 1 0
BITMAP
28
00
00
30
48
78
40
48
B0
ENDCHAR
STARTCHAR 00EC
ENCODING 236
SWIDTH 384 0
DWIDTH 5 0
BBX 4 10 1 0
BITMAP
40
20
00
00
50
A0
20
20
20
50
ENDCHAR
STARTCHAR 00ED
ENCODING 237
SWIDTH 384 0
DWIDTH 5 0
BBX 4 10 1 0
BITMAP
20
40
00
00
50
A0
20
20
20
50
ENDCHAR
STARTCHAR 00EE
ENCODING 238
SWIDTH 384 0
DWIDTH 5 0
BBX 4 10 1 0
BITMAP
20
50
00
00
50
A0
20
20
20
50
ENDCHAR
STARTCHAR 00EF
ENCODING 239
SWIDTH 384 0
DWIDTH 5 0
BBX 4 9 1 0
BITMAP
50
00
00
50
A0
20
20
20
50
ENDCHAR
STARTCHAR 00F0
ENCODING 240
SWIDTH 538 0
DWIDTH 7 0
BBX 6 9 1 0
BITMAP
50
20
50
08
34
4C
44
44
B8
ENDCHAR
STARTCHAR 00F1
ENCODING 241
SWIDTH 615 0
DWIDTH 8 0
BBX 7 10 1 0
BITMAP
34
2C
00
00
4A
B4
24
24
24
52
ENDCHAR
STARTCHAR 00F2
ENCODING 242
SWIDTH 538 0
DWIDTH 7 0
BBX 6 10 1 0
BITMAP
20
10
00
00
34
48
48
48
48
B0
ENDCHAR
STARTCHAR 00F3
ENCODING 243
SWIDTH 538 0
DWIDTH 7 0
BBX 6 10 1 0
BITMAP
10
20
00
00
34
48
48
48
48
B0
ENDCHAR
STARTCHAR 00F4
ENCODING 244
SWIDTH 538 0
DWIDTH 7 0
BBX 6 10 1 0
BITMAP
10
28
00
00
34
48
48
48
48
B0
ENDCHAR
STARTCHAR 00F5
ENCODING 245
SWIDTH 538 0
DWIDTH 7 0
BBX 6 10 1 0
BITMAP
68
58
00
00
34
48
48
48
48
B0
ENDCHAR
STARTCHAR 00F6
ENCODING 246
SWIDTH 538 0
DWIDTH 7 0
BBX 6 9 1 0
BITMAP
28
00
00
34
48
48
48
48
B0
ENDCHAR
STARTCHAR 00F7
ENCODING 247
SWIDTH 461 0
DWIDTH 6 0
BBX 5 9 1 0
BITMAP
20
50
20
00
F8
00
20
50
20
ENDCHAR
STARTCHAR 00F8
ENCODING 248
SWIDTH 615 0
DWIDTH 8 0
BBX 7 6 1 0
BITMAP
3A
44
4C
54
64
B8
ENDCHAR
STARTCHAR 00F9
ENCODING 249
SWIDTH 692 0
DWIDTH 9 0
BBX 8 10 1 0
BITMAP
10
08
00
00
45
A6
24
24
2D
52
ENDCHAR
STARTCHAR 00FA
ENCODING 250
SWIDTH 692 0
DWIDTH 9 0
BBX 8 10 1 0
BITMAP
08
10
00
00
45
A6
24
24
2D
52
ENDCHAR
STARTCHAR 00FB
ENCODING 251
SWIDTH 692 0
DWIDTH 9 0
BBX 8 10 1 0
BITMAP
08
14
00
00
45
A6
24
24
2D
52
ENDCHAR
STARTCHAR 00FC
ENCODING 252
SWIDTH 692 0
DWIDTH 9 0
BBX 8 9 1 0
BITMAP
14
00
00
45
A6
24
24
2D
52
ENDCHAR
STARTCHAR 00FD
ENCODING 253
SWIDTH 538 0
DWIDTH 7 0
BBX 6 13 1 -3
BITMAP
10
20
00
00
44
A4
24
24
24
1C
04
24
18
ENDCHAR
STARTCHAR 00FE
ENCODING 254
SWIDTH 615 0
DWIDTH 8 0
BBX 6 12 1 -3
BITMAP
20
40
40
74
48
48
48
48
F0
40
40
80
ENDCHAR
STARTCHAR 00FF
ENCODING 255
SWIDTH 538 0
DWIDTH 7 0
BBX 6 12 1 -3
BITMAP
28
00
00
44
A4
24
24
24
1C
04
24
18
ENDCHAR
STARTCHAR 0100
ENCODING 256
SWIDTH 846 0
DWIDTH 11 0
BBX 10 11 1 0
BITMAP
0E00
0000
76C0
8900
8900
4900
2900
6900
0900
0B40
1480
ENDCHAR
STARTCHAR 0101
ENCODING 257
SWIDTH 538 0
DWIDTH 7 0
BBX 6 9 1 0
BITMAP
38
00
00
34
48
48
48
58
A4
ENDCHAR
STARTCHAR 0102
ENCODING 258
SWIDTH 846 0
DWIDTH 11 0
BBX 10 12 1 0
BITMAP
1200
0C00
0000
76C0
8900
8900
4900
2900
6900
0900
0B40
1480
ENDCHAR
STARTCHAR 0103
ENCODING 259
SWIDTH 538 0
DWIDTH 7 0
BBX 6 10 1 0
BITMAP
48
30
00
00
34
48
48
48
58
A4
ENDCHAR
STARTCHAR 0104
ENCODING 260
SWIDTH 846 0
DWIDTH 11 0
BBX 10 12 1 -3
BITMAP
76C0
8900
8900
4900
2900
6900
0900
0B40
1480
0400
0800
0600
ENDCHAR
STARTCHAR 0105
ENCODING 261
SWIDTH 538 0
DWIDTH 7 0
BBX 6 9 1 -3
BITMAP
34
48
48
48
58
A4
10
20
18
ENDCHAR
STARTCHAR 0106
ENCODING 262
SWIDTH 692 0
DWIDTH 9 0
BBX 8 12 1 0
BITMAP
08
10
00
3B
45
98
90
88
98
40
61
1E
ENDCHAR
STARTCHAR 0107
ENCODING 263
SWIDTH 461 0
DWIDTH 6 0
BBX 5 10 1 0
BITMAP
10
20
00
00
30
48
40
40
48
B0
ENDCHAR
STARTCHAR 010A
ENCODING 266
SWIDTH 692 0
DWIDTH 9 0
BBX 8 11 1 0
BITMAP
08
00
3B
45
98
90
88
98
40
61
1E
ENDCHAR
STARTCHAR 010B
ENCODING 267
SWIDTH 461 0
DWIDTH 6 0
BBX 5 9 1 0
BITMAP
10
00
00
30
48
40
40
48
B0
ENDCHAR
STARTCHAR 010C
ENCODING 268
SWIDTH 692 0
DWIDTH 9 0
BBX 8 12 1 0
BITMAP
14
08
00
3B
45
98
90
88
98
40
61
1E
ENDCHAR
STARTCHAR 010D
ENCODING 269
SWIDTH 461 0
DWIDTH 6 0
BBX 5 10 1 0
BITMAP
28
10
00
00
30
48
40
40
48
B0
ENDCHAR
STARTCHAR 010E
ENCODING 270
SWIDTH 769 0
DWIDTH 10 0
BBX 9 12 1 0
BITMAP
0A00
0400
0000
3E00
5100
9080
8080
2880
3080
0080
7100
9E00
ENDCHAR
STARTCHAR 010F
ENCODING 271
SWIDTH 461 0
DWIDTH 6 0
BBX 5 10 1 0
BITMAP
08
48
20
10
28
48
48
48
48
B0
ENDCHAR
STARTCHAR 0110
ENCODING 272
SWIDTH 692 0
DWIDTH 9 0
BBX 9 9 0 0
BITMAP
3E00
5100
9080
8080
3880
0080
1080
7100
9E00
ENDCHAR
STARTCHAR 0111
ENCODING 273
SWIDTH 538 0
DWIDTH 7 0
BBX 6 9 1 0
BITMAP
08
14
08
38
48
48
48
48
B0
ENDCHAR
STARTCHAR 0112
ENCODING 274
SWIDTH 692 0
DWIDTH 9 0
BBX 8 11 1 0
BITMAP
1C
00
3B
45
90
92
8E
92
40
61
1E
ENDCHAR
STARTCHAR 0113
ENCODING 275
SWIDTH 461 0
DWIDTH 6 0
BBX 5 9 1 0
BITMAP
38
00
00
30
48
78
40
48
B0
ENDCHAR
STARTCHAR 0116
ENCODING 278
SWIDTH 692 0
DWIDTH 9 0
BBX 8 11 1 0
BITMAP
08
00
3B
45
90
92
8E
92
40
61
1E
ENDCHAR
STARTCHAR 0117
ENCODING 279
SWIDTH 461 0
DWIDTH 6 0
BBX 5 9 1 0
BITMAP
10
00
00
30
48
78
40
48
B0
ENDCHAR
STARTCHAR 0118
ENCODING 280
SWIDTH 692 0
DWIDTH 9 0
BBX 8 12 1 -3
BITMAP
3B
45
90
92
8E
92
40
61
1E
08
10
0C
ENDCHAR
STARTCHAR 0119
ENCODING 281
SWIDTH 461 0
DWIDTH 6 0
BBX 5 9 1 -3
BITMAP
30
48
78
40
48
B0
20
40
30
ENDCHAR
STARTCHAR 011A
ENCODING 282
SWIDTH 692 0
DWIDTH 9 0
BBX 8 12 1 0
BITMAP
14
08
00
3B
45
90
92
8E
92
40
61
1E
ENDCHAR
STARTCHAR 011B
ENCODING 283
SWIDTH 461 0
DWIDTH 6 0
BBX 5 10 1 0
BITMAP
28
10
00
00
30
48
78
40
48
B0
ENDCHAR
STARTCHAR 011E
ENCODING 286
SWIDTH 692 0
DWIDTH 9 0
BBX 8 12 1 0
BITMAP
24
18
00
3A
44
80
9E
91
B1
81
42
3C
ENDCHAR
STARTCHAR 011F
ENCODING 287
SWIDTH 538 0
DWIDTH 7 0
BBX 6 13 1 -3
BITMAP
48
30
00
00
34
48
48
48
48
B8
08
48
30
ENDCHAR
STARTCHAR 0120
ENCODING 288
SWIDTH 692 0
DWIDTH 9 0
BBX 8 11 1 0
BITMAP
08
00
3A
44
80
9E
91
B1
81
42
3C
ENDCHAR
STARTCHAR 0121
ENCODING 289
SWIDTH 538 0
DWIDTH 7 0
BBX 6 12 1 -3
BITMAP
10
00
00
34
48
48
48
48
B8
08
48
30
ENDCHAR
STARTCHAR 0122
ENCODING 290
SWIDTH 692 0
DWIDTH 9 0
BBX 8 13 1 -4
BITMAP
3A
44
80
9E
91
B1
81
42
3C
00
08
08
10
ENDCHAR
STARTCHAR 0123
ENCODING 291
SWIDTH 538 0
DWIDTH 7 0
BBX 6 14 1 -3
BITMAP
10
20
20
00
00
34
48
48
48
48
B8
08
48
30
ENDCHAR
STARTCHAR 0126
ENCODING 294
SWIDTH 846 0
DWIDTH 11 0
BBX 10 9 1 0
BITMAP
70C0
8900
9F80
4900
2F00
6900
0900
0940
1080
ENDCHAR
STARTCHAR 0127
ENCODING 295
SWIDTH 538 0
DWIDTH 7 0
BBX 6 12 1 -3
BITMAP
40
E0
40
54
68
48
48
48
A8
08
10
20
ENDCHAR
STARTCHAR 012A
ENCODING 298
SWIDTH 692 0
DWIDTH 9 0
BBX 8 11 1 0
BITMAP
1C
00
73
8D
A2
45
02
01
C1
A1
1E
ENDCHAR
STARTCHAR 012B
ENCODING 299
SWIDTH 384 0
DWIDTH 5 0
BBX 4 9 1 0
BITMAP
70
00
00
50
A0
20
20
20
50
ENDCHAR
STARTCHAR 012E
ENCODING 302
SWIDTH 692 0
DWIDTH 9 0
BBX 8 12 1 -3
BITMAP
73
8D
A2
45
02
01
C1
A1
1E
08
10
0C
ENDCHAR
STARTCHAR 012F
ENCODING 303
SWIDTH 384 0
DWIDTH 5 0
BBX 4 12 1 -3
BITMAP
20
00
00
50
A0
20
20
20
50
20
40
30
ENDCHAR
STARTCHAR 0130
ENCODING 304
SWIDTH 692 0
DWIDTH 9 0
BBX 8 11 1 0
BITMAP
08
00
73
8D
A2
45
02
01
C1
A1
1E
ENDCHAR
STARTCHAR 0131
ENCODING 305
SWIDTH 384 0
DWIDTH 5 0
BBX 4 6 1 0
BITMAP
50
A0
20
20
20
50
ENDCHAR
STARTCHAR 0132
ENCODING 306
SWIDTH 1384 0
DWIDTH 18 0
BBX 17 12 1 -3
BITMAP
733980
8D4680
A24100
455280
022100
010100
C10100
A10100
1E6080
005080
001080
000F00
ENDCHAR
STARTCHAR 0133
ENCODING 307
SWIDTH 769 0
DWIDTH 10 0
BBX 9 12 1 -3
BITMAP
2100
0000
0000
5280
A500
2100
2100
2100
5100
0100
0500
0200
ENDCHAR
STARTCHAR 0136
ENCODING 310
SWIDTH 769 0
DWIDTH 10 0
BBX 9 14 1 -4
BITMAP
1F80
2000
4E00
5100
6200
2C00
1200
D200
9100
6100
0180
0400
0400
0800
ENDCHAR
STARTCHAR 0137
ENCODING 311
SWIDTH 538 0
DWIDTH 7 0
BBX 6 13 1 -4
BITMAP
20
40
40
44
48
50
68
48
A4
00
10
10
20
ENDCHAR
STARTCHAR 0139
ENCODING 313
SWIDTH 615 0
DWIDTH 8 0
BBX 7 12 1 0
BITMAP
08
10
00
38
44
44
48
24
10
10
62
9C
ENDCHAR
STARTCHAR 013A
ENCODING 314
SWIDTH 307 0
DWIDTH 4 0
BBX 3 12 1 0
BITMAP
20
40
00
20
40
40
40
40
40
40
40
A0
ENDCHAR
STARTCHAR 013B
ENCODING 315
SWIDTH 615 0
DWIDTH 8 0
BBX 7 13 1 -4
BITMAP
38
44
44
48
24
10
10
62
9C
00
10
10
20
ENDCHAR
STARTCHAR 013C
ENCODING 316
SWIDTH 307 0
DWIDTH 4 0
BBX 3 13 1 -4
BITMAP
20
40
40
40
40
40
40
40
A0
00
40
40
80
ENDCHAR
STARTCHAR 013D
ENCODING 317
SWIDTH 692 0
DWIDTH 9 0
BBX 8 9 1 0
BITMAP
38
45
45
48
24
10
10
62
9C
ENDCHAR
STARTCHAR 013E
ENCODING 318
SWIDTH 461 0
DWIDTH 6 0
BBX 5 10 1 0
BITMAP
08
28
40
40
40
40
40
40
40
A0
ENDCHAR
STARTCHAR 0141
ENCODING 321
SWIDTH 615 0
DWIDTH 8 0
BBX 7 9 1 0
BITMAP
38
44
48
50
20
50
10
62
9C
ENDCHAR
STARTCHAR 0142
ENCODING 322
SWIDTH 307 0
DWIDTH 4 0
BBX 3 9 1 0
BITMAP
20
40
40
60
C0
40
40
40
A0
ENDCHAR
STARTCHAR 0143
ENCODING 323
SWIDTH 923 0
DWIDTH 12 0
BBX 11 12 1 0
BITMAP
0200
0400
0000
7780
98C0
8840
4440
C480
0480
0480
6880
B060
ENDCHAR
STARTCHAR 0144
ENCODING 324
SWIDTH 615 0
DWIDTH 8 0
BBX 7 10 1 0
BITMAP
08
10
00
00
4A
B4
24
24
24
52
ENDCHAR
STARTCHAR 0145
ENCODING 325
SWIDTH 923 0
DWIDTH 12 0
BBX 11 13 1 -4
BITMAP
7780
98C0
8840
4440
C480
0480
0480
6880
B060
0000
0400
0400
0800
ENDCHAR
STARTCHAR 0146
ENCODING 326
SWIDTH 615 0
DWIDTH 8 0
BBX 7 10 1 -4
BITMAP
4A
B4
24
24
24
52
00
10
10
20
ENDCHAR
STARTCHAR 0147
ENCODING 327
SWIDTH 923 0
DWIDTH 12 0
BBX 11 12 1 0
BITMAP
0500
0200
0000
7780
98C0
8840
4440
C480
0480
0480
6880
B060
ENDCHAR
STARTCHAR 0148
ENCODING 328
SWIDTH 615 0
DWIDTH 8 0
BBX 7 10 1 0
BITMAP
14
08
00
00
4A
B4
24
24
24
52
ENDCHAR
STARTCHAR 014A
ENCODING 330
SWIDTH 846 0
DWIDTH 11 0
BBX 10 11 1 -2
BITMAP
7780
98C0
8840
4440
C480
0480
0480
6880
B080
0080
0100
ENDCHAR
STARTCHAR 014B
ENCODING 331
SWIDTH 615 0
DWIDTH 8 0
BBX 7 8 1 -2
BITMAP
4A
B4
24
24
24
54
04
08
ENDCHAR
STARTCHAR 014C
ENCODING 332
SWIDTH 769 0
DWIDTH 10 0
BBX 9 11 1 0
BITMAP
1C00
0000
3C00
4200
8100
8080
4080
C080
0080
6100
9E00
ENDCHAR
STARTCHAR 014D
ENCODING 333
SWIDTH 538 0
DWIDTH 7 0
BBX 6 9 1 0
BITMAP
38
00
00
34
48
48
48
48
B0
ENDCHAR
STARTCHAR 0150
ENCODING 336
SWIDTH 769 0
DWIDTH 10 0
BBX 9 12 1 0
BITMAP
1400
2800
0000
3C00
4200
8100
8080
4080
C080
0080
6100
9E00
ENDCHAR
STARTCHAR 0151
ENCODING 337
SWIDTH 538 0
DWIDTH 7 0
BBX 6 10 1 0
BITMAP
28
50
00
00
34
48
48
48
48
B0
ENDCHAR
STARTCHAR 0152
ENCODING 338
SWIDTH 1153 0
DWIDTH 15 0
BBX 14 9 1 0
BITMAP
386C
4494
8320
8128
4118
C128
0180
62C4
9C38
ENDCHAR
STARTCHAR 0153
ENCODING 339
SWIDTH 692 0
DWIDTH 9 0
BBX 8 6 1 0
BITMAP
36
49
4F
48
49
B6
ENDCHAR
STARTCHAR 0154
ENCODING 340
SWIDTH 923 0
DWIDTH 12 0
BBX 11 12 1 0
BITMAP
0200
0400
0000
7780
98C0
8840
4480
C700
0480
0480
6840
B060
ENDCHAR
STARTCHAR 0155
ENCODING 341
SWIDTH 538 0
DWIDTH 7 0
BBX 6 10 1 0
BITMAP
10
20
00
00
58
A4
20
20
28
50
ENDCHAR
STARTCHAR 0156
ENCODING 342
SWIDTH 923 0
DWIDTH 12 0
BBX 11 13 1 -4
BITMAP
7780
98C0
8840
4480
C700
0480
0480
6840
B060
0000
0400
0400
0800
ENDCHAR
STARTCHAR 0157
ENCODING 343
SWIDTH 538 0
DWIDTH 7 0
BBX 6 10 1 -4
BITMAP
58
A4
20
20
28
50
00
10
10
20
ENDCHAR
STARTCHAR 0158
ENCODING 344
SWIDTH 923 0
DWIDTH 12 0
BBX 11 12 1 0
BITMAP
0500
0200
0000
7780
98C0
8840
4480
C700
0480
0480
6840
B060
ENDCHAR
STARTCHAR 0159
ENCODING 345
SWIDTH 538 0
DWIDTH 7 0
BBX 6 10 1 0
BITMAP
28
10
00
00
58
A4
20
20
28
50
ENDCHAR
STARTCHAR 015A
ENCODING 346
SWIDTH 769 0
DWIDTH 10 0
BBX 9 12 1 0
BITMAP
0400
0800
0000
3C80
4700
8000
B300
A480
9880
4080
6100
1E00
ENDCHAR
STARTCHAR 015B
ENCODING 347
SWIDTH 538 0
DWIDTH 7 0
BBX 6 10 1 0
BITMAP
10
20
00
00
34
48
50
28
48
B0
ENDCHAR
STARTCHAR 015E
ENCODING 350
SWIDTH 769 0
DWIDTH 10 0
BBX 9 12 1 -3
BITMAP
3C80
4700
8000
B300
A480
9880
4080
6100
1E00
0400
0200
0C00
ENDCHAR
STARTCHAR 015F
ENCODING 351
SWIDTH 538 0
DWIDTH 7 0
BBX 6 9 1 -3
BITMAP
34
48
50
28
48
B0
10
08
30
ENDCHAR
STARTCHAR 0160
ENCODING 352
SWIDTH 769 0
DWIDTH 10 0
BBX 9 12 1 0
BITMAP
0A00
0400
0000
3C80
4700
8000
B300
A480
9880
4080
6100
1E00
ENDCHAR
STARTCHAR 0161
ENCODING 353
SWIDTH 538 0
DWIDTH 7 0
BBX 6 10 1 0
BITMAP
28
10
00
00
34
48
50
28
48
B0
ENDCHAR
STARTCHAR 0164
ENCODING 356
SWIDTH 769 0
DWIDTH 10 0
BBX 9 12 1 0
BITMAP
1400
0800
0000
7880
8F00
8000
6C00
0800
0400
0C00
1100
2E00
ENDCHAR
STARTCHAR 0165
ENCODING 357
SWIDTH 461 0
DWIDTH 6 0
BBX 5 10 1 0
BITMAP
08
08
20
40
F0
40
40
40
50
20
ENDCHAR
STARTCHAR 016A
ENCODING 362
SWIDTH 615 0
DWIDTH 8 0
BBX 7 11 1 0
BITMAP
38
00
CC
44
44
44
44
44
8C
94
62
ENDCHAR
STARTCHAR 016B
ENCODING 363
SWIDTH 692 0
DWIDTH 9 0
BBX 8 9 1 0
BITMAP
1C
00
00
45
A6
24
24
2D
52
ENDCHAR
STARTCHAR 016C
ENCODING 364
SWIDTH 615 0
DWIDTH 8 0
BBX 7 12 1 0
BITMAP
48
30
00
CC
44
44
44
44
44
8C
94
62
ENDCHAR
STARTCHAR 016D
ENCODING 365
SWIDTH 692 0
DWIDTH 9 0
BBX 8 10 1 0
BITMAP
24
18
00
00
45
A6
24
24
2D
52
ENDCHAR
STARTCHAR 016E
ENCODING 366
SWIDTH 615 0
DWIDTH 8 0
BBX 7 13 1 0
BITMAP
10
28
10
00
CC
44
44
44
44
44
8C
94
62
ENDCHAR
STARTCHAR 016F
ENCODING 367
SWIDTH 692 0
DWIDTH 9 0
BBX 8 11 1 0
BITMAP
08
14
08
00
00
45
A6
24
24
2D
52
ENDCHAR
STARTCHAR 0170
ENCODING 368
SWIDTH 615 0
DWIDTH 8 0
BBX 7 12 1 0
BITMAP
28
50
00
CC
44
44
44
44
44
8C
94
62
ENDCHAR
STARTCHAR 0171
ENCODING 369
SWIDTH 692 0
DWIDTH 9 0
BBX 8 10 1 0
BITMAP
14
28
00
00
45
A6
24
24
2D
52
ENDCHAR
STARTCHAR 0172
ENCODING 370
SWIDTH 615 0
DWIDTH 8 0
BBX 7 12 1 -3
BITMAP
CC
44
44
44
44
44
8C
94
62
10
20
18
ENDCHAR
STARTCHAR 0173
ENCODING 371
SWIDTH 692 0
DWIDTH 9 0
BBX 8 9 1 -3
BITMAP
45
A6
24
24
2D
52
08
10
0C
ENDCHAR
STARTCHAR 0174
ENCODING 372
SWIDTH 923 0
DWIDTH 12 0
BBX 11 12 1 0
BITMAP
0200
0500
0000
6DA0
9240
D240
2920
6920
0920
3920
4520
42C0
ENDCHAR
STARTCHAR 0175
ENCODING 373
SWIDTH 846 0
DWIDTH 11 0
BBX 10 10 1 0
BITMAP
0400
0A00
0000
0000
5B40
A480
2480
2480
2480
5B00
ENDCHAR
STARTCHAR 0176
ENCODING 374
SWIDTH 846 0
DWIDTH 11 0
BBX 10 15 1 -3
BITMAP
0400
0A00
0000
7180
9AC0
8C80
C880
2880
6880
1080
6100
0100
C200
8C00
7000
ENDCHAR
STARTCHAR 0177
ENCODING 375
SWIDTH 538 0
DWIDTH 7 0
BBX 6 13 1 -3
BITMAP
10
28
00
00
44
A4
24
24
24
1C
04
24
18
ENDCHAR
STARTCHAR 0178
ENCODING 376
SWIDTH 846 0
DWIDTH 11 0
BBX 10 14 1 -3
BITMAP
0A00
0000
7180
9AC0
8C80
C880
2880
6880
1080
6100
0100
C200
8C00
7000
ENDCHAR
STARTCHAR 0179
ENCODING 377
SWIDTH 692 0
DWIDTH 9 0
BBX 8 14 1 -2
BITMAP
08
10
00
3E
43
41
21
02
0C
1A
01
01
71
9E
ENDCHAR
STARTCHAR 017A
ENCODING 378
SWIDTH 461 0
DWIDTH 6 0
BBX 5 13 1 -3
BITMAP
20
40
00
00
78
88
10
20
58
08
08
88
70
ENDCHAR
STARTCHAR 017B
ENCODING 379
SWIDTH 692 0
DWIDTH 9 0
BBX 8 13 1 -2
BITMAP
08
00
3E
43
41
21
02
0C
1A
01
01
71
9E
ENDCHAR
STARTCHAR 017C
ENCODING 380
SWIDTH 461 0
DWIDTH 6 0
BBX 5 12 1 -3
BITMAP
20
00
00
78
88
10
20
58
08
08
88
70
ENDCHAR
STARTCHAR 017D
ENCODING 381
SWIDTH 692 0
DWIDTH 9 0
BBX 8 14 1 -2
BITMAP
14
08
00
3E
43
41
21
02
0C
1A
01
01
71
9E
ENDCHAR
STARTCHAR 017E
ENCODING 382
SWIDTH 461 0
DWIDTH 6 0
BBX 5 13 1 -3
BITMAP
50
20
00
00
78
88
10
20
58
08
08
88
70
ENDCHAR
STARTCHAR 0218
ENCODING 536
SWIDTH 769 0
DWIDTH 10 0
BBX 9 13 1 -4
BITMAP
3C80
4700
8000
B300
A480
9880
4080
6100
1E00
0000
0400
0400
0800
ENDCHAR
STARTCHAR 0219
ENCODING 537
SWIDTH 538 0
DWIDTH 7 0
BBX 6 10 1 -4
BITMAP
34
48
50
28
48
B0
00
10
10
20
ENDCHAR
STARTCHAR 021A
ENCODING 538
SWIDTH 769 0
DWIDTH 10 0
BBX 9 13 1 -4
BITMAP
7880
8F00
8000
6C00
0800
0400
0C00
1100
2E00
0000
0800
0800
1000
ENDCHAR
STARTCHAR 021B
ENCODING 539
SWIDTH 384 0
DWIDTH 5 0
BBX 4 12 1 -4
BITMAP
20
40
F0
40
40
40
50
20
00
20
20
40
ENDCHAR
STARTCHAR 0237
ENCODING 567
SWIDTH 384 0
DWIDTH 5 0
BBX 4 9 1 -3
BITMAP
50
A0
20
20
20
20
20
A0
40
ENDCHAR
STARTCHAR 02C6
ENCODING 710
SWIDTH 230 0
DWIDTH 3 0
BBX 3 2 0 8
BITMAP
40
A0
ENDCHAR
STARTCHAR 02C7
ENCODING 711
SWIDTH 230 0
DWIDTH 3 0
BBX 3 2 0 8
BITMAP
A0
40
ENDCHAR
STARTCHAR 02D8
ENCODING 728
SWIDTH 307 0
DWIDTH 4 0
BBX 4 2 0 8
BITMAP
90
60
ENDCHAR
STARTCHAR 02D9
ENCODING 729
SWIDTH 76 0
DWIDTH 1 0
BBX 1 1 0 8
BITMAP
80
ENDCHAR
STARTCHAR 02DA
ENCODING 730
SWIDTH 230 0
DWIDTH 3 0
BBX 3 3 0 8
BITMAP
40
A0
40
ENDCHAR
STARTCHAR 02DB
ENCODING 731
SWIDTH 230 0
DWIDTH 3 0
BBX 3 3 0 -3
BITMAP
40
80
60
ENDCHAR
STARTCHAR 02DC
ENCODING 732
SWIDTH 307 0
DWIDTH 4 0
BBX 4 2 0 8
BITMAP
D0
B0
ENDCHAR
STARTCHAR 02DD
ENCODING 733
SWIDTH 307 0
DWIDTH 4 0
BBX 4 2 0 8
BITMAP
50
A0
ENDCHAR
STARTCHAR 0300
ENCODING 768
SWIDTH 0 0
DWIDTH 0 0
BBX 2 2 0 8
BITMAP
80
40
ENDCHAR
STARTCHAR 0301
ENCODING 769
SWIDTH 0 0
DWIDTH 0 0
BBX 2 2 0 8
BITMAP
40
80
ENDCHAR
STARTCHAR 0302
ENCODING 770
SWIDTH 0 0
DWIDTH 0 0
BBX 3 2 0 8
BITMAP
40
A0
ENDCHAR
STARTCHAR 0303
ENCODING 771
SWIDTH 0 0
DWIDTH 0 0
BBX 4 2 0 8
BITMAP
D0
B0
ENDCHAR
STARTCHAR 0304
ENCODING 772
SWIDTH 0 0
DWIDTH 0 0
BBX 3 1 0 8
BITMAP
E0
ENDCHAR
STARTCHAR 0306
ENCODING 774
SWIDTH 0 0
DWIDTH 0 0
BBX 4 2 0 8
BITMAP
90
60
ENDCHAR
STARTCHAR 0307
ENCODING 775
SWIDTH 0 0
DWIDTH 0 0
BBX 1 1 0 8
BITMAP
80
ENDCHAR
STARTCHAR 0308
ENCODING 776
SWIDTH 0 0
DWIDTH 0 0
BBX 3 1 0 8
BITMAP
A0
ENDCHAR
STARTCHAR 030A
ENCODING 778
SWIDTH 0 0
DWIDTH 0 0
BBX 3 3 0 8
BITMAP
40
A0
40
ENDCHAR
STARTCHAR 030B
ENCODING 779
SWIDTH 0 0
DWIDTH 0 0
BBX 4 2 0 8
BITMAP
50
A0
ENDCHAR
STARTCHAR 030C
ENCODING 780
SWIDTH 0 0
DWIDTH 0 0
BBX 3 2 0 8
BITMAP
A0
40
ENDCHAR
STARTCHAR 0312
ENCODING 786
SWIDTH 0 0
DWIDTH 0 0
BBX 2 3 0 8
BITMAP
40
80
80
ENDCHAR
STARTCHAR 0326
ENCODING 806
SWIDTH 0 0
DWIDTH 0 0
BBX 2 3 0 -4
BITMAP
40
40
80
ENDCHAR
STARTCHAR 0327
ENCODING 807
SWIDTH 0 0
DWIDTH 0 0
BBX 3 3 0 -3
BITMAP
40
20
C0
ENDCHAR
STARTCHAR 0328
ENCODING 808
SWIDTH 0 0
DWIDTH 0 0
BBX 3 3 0 -3
BITMAP
40
80
60
ENDCHAR
STARTCHAR 1E80
ENCODING 7808
SWIDTH 923 0
DWIDTH 12 0
BBX 11 12 1 0
BITMAP
0400
0200
0000
6DA0
9240
D240
2920
6920
0920
3920
4520
42C0
ENDCHAR
STARTCHAR 1E81
ENCODING 7809
SWIDTH 846 0
DWIDTH 11 0
BBX 10 10 1 0
BITMAP
0800
0400
0000
0000
5B40
A480
2480
2480
2480
5B00
ENDCHAR
STARTCHAR 1E82
ENCODING 7810
SWIDTH 923 0
DWIDTH 12 0
BBX 11 12 1 0
BITMAP
0200
0400
0000
6DA0
9240
D240
2920
6920
0920
3920
4520
42C0
ENDCHAR
STARTCHAR 1E83
ENCODING 7811
SWIDTH 846 0
DWIDTH 11 0
BBX 10 10 1 0
BITMAP
0400
0800
0000
0000
5B40
A480
2480
2480
2480
5B00
ENDCHAR
STARTCHAR 1E84
ENCODING 7812
SWIDTH 923 0
DWIDTH 12 0
BBX 11 11 1 0
BITMAP
0500
0000
6DA0
9240
D240
2920
6920
0920
3920
4520
42C0
ENDCHAR
STARTCHAR 1E85
ENCODING 7813
SWIDTH 846 0
DWIDTH 11 0
BBX 10 9 1 0
BITMAP
0A00
0000
0000
5B40
A480
2480
2480
2480
5B00
ENDCHAR
STARTCHAR 1E9E
ENCODING 7838
SWIDTH 923 0
DWIDTH 12 0
BBX 11 9 1 0
BITMAP
77E0
8840
8880
4900
2880
6840
0920
0A20
11C0
ENDCHAR
STARTCHAR 1EF2
ENCODING 7922
SWIDTH 846 0
DWIDTH 11 0
BBX 10 15 1 -3
BITMAP
0800
0400
0000
7180
9AC0
8C80
C880
2880
6880
1080
6100
0100
C200
8C00
7000
ENDCHAR
STARTCHAR 1EF3
ENCODING 7923
SWIDTH 538 0
DWIDTH 7 0
BBX 6 13 1 -3
BITMAP
20
10
00
00
44
A4
24
24
24
1C
04
24
18
ENDCHAR
STARTCHAR 200A
ENCODING 8202
SWIDTH 76 0
DWIDTH 1 0
BBX 0 0 0 0
BITMAP
ENDCHAR
STARTCHAR 2013
ENCODING 8211
SWIDTH 538 0
DWIDTH 7 0
BBX 6 1 1 3
BITMAP
FC
ENDCHAR
STARTCHAR 2014
ENCODING 8212
SWIDTH 846 0
DWIDTH 11 0
BBX 10 1 1 3
BITMAP
FFC0
ENDCHAR
STARTCHAR 2018
ENCODING 8216
SWIDTH 230 0
DWIDTH 3 0
BBX 2 3 1 6
BITMAP
40
80
80
ENDCHAR
STARTCHAR 2019
ENCODING 8217
SWIDTH 230 0
DWIDTH 3 0
BBX 2 3 1 6
BITMAP
80
40
40
ENDCHAR
STARTCHAR 201A
ENCODING 8218
SWIDTH 307 0
DWIDTH 4 0
BBX 3 4 1 -2
BITMAP
40
A0
40
80
ENDCHAR
STARTCHAR 201C
ENCODING 8220
SWIDTH 384 0
DWIDTH 5 0
BBX 4 3 1 6
BITMAP
50
A0
A0
ENDCHAR
STARTCHAR 201D
ENCODING 8221
SWIDTH 384 0
DWIDTH 5 0
BBX 4 3 1 6
BITMAP
A0
50
50
ENDCHAR
STARTCHAR 201E
ENCODING 8222
SWIDTH 615 0
DWIDTH 8 0
BBX 7 4 1 -2
BITMAP
44
AA
44
88
ENDCHAR
STARTCHAR 2022
ENCODING 8226
SWIDTH 307 0
DWIDTH 4 0
BBX 3 3 1 3
BITMAP
A0
40
A0
ENDCHAR
STARTCHAR 2026
ENCODING 8230
SWIDTH 769 0
DWIDTH 10 0
BBX 9 3 1 -1
BITMAP
4900
9280
4900
ENDCHAR
STARTCHAR 2039
ENCODING 8249
SWIDTH 307 0
DWIDTH 4 0
BBX 3 5 1 1
BITMAP
20
40
80
40
20
ENDCHAR
STARTCHAR 203A
ENCODING 8250
SWIDTH 307 0
DWIDTH 4 0
BBX 3 5 1 1
BITMAP
80
40
20
40
80
ENDCHAR
STARTCHAR 20AC
ENCODING 8364
SWIDTH 461 0
DWIDTH 6 0
BBX 5 7 1 0
BITMAP
30
48
E0
40
E0
48
30
ENDCHAR
STARTCHAR 2122
ENCODING 8482
SWIDTH 1692 0
DWIDTH 22 0
BBX 21 9 1 0
BITMAP
789B30
8F2CC8
802488
6C2248
081248
043248
0C0248
113448
2E1888
ENDCHAR
STARTCHAR 2212
ENCODING 8722
SWIDTH 461 0
DWIDTH 6 0
BBX 5 1 1 4
BITMAP
F8
ENDCHAR
ENDFONT
