STARTFONT 2.1
COMMENT
COMMENT Converted from OpenType font "LibreBarcode128-Regular.ttf" by "otf2bdf 3.0".
COMMENT
FONT -FreeType-Libre Barcode 128-Medium-R-Normal--30-300-72-72-P-82-ISO10646-1
SIZE 30 72 72
FONTBOUNDINGBOX 12 18 0 0
STARTPROPERTIES 19
FOUNDRY "FreeType"
FAMILY_NAME "Libre Barcode 128"
WEIGHT_NAME "Medium"
SLANT "R"
SETWIDTH_NAME "Normal"
ADD_STYLE_NAME ""
PIXEL_SIZE 30
POINT_SIZE 300
RESOLUTION_X 72
RESOLUTION_Y 72
SPACING "P"
AVERAGE_WIDTH 82
CHARSET_REGISTRY "ISO10646"
CHARSET_ENCODING "1"
FONT_ASCENT 18
FONT_DESCENT 12
COPYRIGHT "Copyright 2017-2020 The Libre Barcode Project Authors (https://github.com/graphicore/librebarcode)"
_OTF_FONTFILE "LibreBarcode128-Regular.ttf"
_OTF_PSNAME "LibreBarcode128-Regular"
ENDPROPERTIES
CHARS 113
STARTCHAR 0000
ENCODING 0
SWIDTH 0 0
DWIDTH 0 0
BBX 0 0 0 0
BITMAP
ENDCHAR
STARTCHAR 000D
ENCODING 13
SWIDTH 0 0
DWIDTH 0 0
BBX 0 0 0 0
BITMAP
ENDCHAR
STARTCHAR 0020
ENCODING 32
SWIDTH 333 0
DWIDTH 10 0
BBX 0 0 0 0
BITMAP
ENDCHAR
STARTCHAR 0021
ENCODING 33
SWIDTH 333 0
DWIDTH 10 0
BBX 8 18 0 0
BITMAP
CB
CB
CB
CB
CB
CB
CB
CB
CB
CB
CB
CB
CB
CB
CB
CB
CB
CB
ENDCHAR
STARTCHAR 0022
ENCODING 34
SWIDTH 333 0
DWIDTH 10 0
BBX 9 18 0 0
BITMAP
C980
C980
C980
C980
C980
C980
C980
C980
C980
C980
C980
C980
C980
C980
C980
C980
C980
C980
ENDCHAR
STARTCHAR 0023
ENCODING 35
SWIDTH 333 0
DWIDTH 10 0
BBX 7 18 0 0
BITMAP
96
96
96
96
96
96
96
96
96
96
96
96
96
96
96
96
96
96
ENDCHAR
STARTCHAR 0024
ENCODING 36
SWIDTH 333 0
DWIDTH 10 0
BBX 8 18 0 0
BITMAP
93
93
93
93
93
93
93
93
93
93
93
93
93
93
93
93
93
93
ENDCHAR
STARTCHAR 0025
ENCODING 37
SWIDTH 333 0
DWIDTH 10 0
BBX 8 18 0 0
BITMAP
8B
8B
8B
8B
8B
8B
8B
8B
8B
8B
8B
8B
8B
8B
8B
8B
8B
8B
ENDCHAR
STARTCHAR 0026
ENCODING 38
SWIDTH 333 0
DWIDTH 10 0
BBX 7 18 0 0
BITMAP
9A
9A
9A
9A
9A
9A
9A
9A
9A
9A
9A
9A
9A
9A
9A
9A
9A
9A
ENDCHAR
STARTCHAR 0027
ENCODING 39
SWIDTH 333 0
DWIDTH 10 0
BBX 8 18 0 0
BITMAP
99
99
99
99
99
99
99
99
99
99
99
99
99
99
99
99
99
99
ENDCHAR
STARTCHAR 0028
ENCODING 40
SWIDTH 333 0
DWIDTH 10 0
BBX 8 18 0 0
BITMAP
89
89
89
89
89
89
89
89
89
89
89
89
89
89
89
89
89
89
ENDCHAR
STARTCHAR 0029
ENCODING 41
SWIDTH 333 0
DWIDTH 10 0
BBX 7 18 0 0
BITMAP
CA
CA
CA
CA
CA
CA
CA
CA
CA
CA
CA
CA
CA
CA
CA
CA
CA
CA
ENDCHAR
STARTCHAR 002A
ENCODING 42
SWIDTH 333 0
DWIDTH 10 0
BBX 8 18 0 0
BITMAP
C9
C9
C9
C9
C9
C9
C9
C9
C9
C9
C9
C9
C9
C9
C9
C9
C9
C9
ENDCHAR
STARTCHAR 002B
ENCODING 43
SWIDTH 333 0
DWIDTH 10 0
BBX 8 18 0 0
BITMAP
C9
C9
C9
C9
C9
C9
C9
C9
C9
C9
C9
C9
C9
C9
C9
C9
C9
C9
ENDCHAR
STARTCHAR 002C
ENCODING 44
SWIDTH 333 0
DWIDTH 10 0
BBX 8 18 0 0
BITMAP
B7
B7
B7
B7
B7
B7
B7
B7
B7
B7
B7
B7
B7
B7
B7
B7
B7
B7
ENDCHAR
STARTCHAR 002D
ENCODING 45
SWIDTH 333 0
DWIDTH 10 0
BBX 8 18 0 0
BITMAP
9F
9F
9F
9F
9F
9F
9F
9F
9F
9F
9F
9F
9F
9F
9F
9F
9F
9F
ENDCHAR
STARTCHAR 002E
ENCODING 46
SWIDTH 333 0
DWIDTH 10 0
BBX 9 18 0 0
BITMAP
9B80
9B80
9B80
9B80
9B80
9B80
9B80
9B80
9B80
9B80
9B80
9B80
9B80
9B80
9B80
9B80
9B80
9B80
ENDCHAR
STARTCHAR 002F
ENCODING 47
SWIDTH 333 0
DWIDTH 10 0
BBX 8 18 0 0
BITMAP
BB
BB
BB
BB
BB
BB
BB
BB
BB
BB
BB
BB
BB
BB
BB
BB
BB
BB
ENDCHAR
STARTCHAR 0030
ENCODING 48
SWIDTH 333 0
DWIDTH 10 0
BBX 8 18 0 0
BITMAP
9B
9B
9B
9B
9B
9B
9B
9B
9B
9B
9B
9B
9B
9B
9B
9B
9B
9B
ENDCHAR
STARTCHAR 0031
ENCODING 49
SWIDTH 333 0
DWIDTH 10 0
BBX 9 18 0 0
BITMAP
9980
9980
9980
9980
9980
9980
9980
9980
9980
9980
9980
9980
9980
9980
9980
9980
9980
9980
ENDCHAR
STARTCHAR 0032
ENCODING 50
SWIDTH 333 0
DWIDTH 10 0
BBX 9 18 0 0
BITMAP
CC80
CC80
CC80
CC80
CC80
CC80
CC80
CC80
CC80
CC80
CC80
CC80
CC80
CC80
CC80
CC80
CC80
CC80
ENDCHAR
STARTCHAR 0033
ENCODING 51
SWIDTH 333 0
DWIDTH 10 0
BBX 8 18 0 0
BITMAP
CF
CF
CF
CF
CF
CF
CF
CF
CF
CF
CF
CF
CF
CF
CF
CF
CF
CF
ENDCHAR
STARTCHAR 0034
ENCODING 52
SWIDTH 333 0
DWIDTH 10 0
BBX 9 18 0 0
BITMAP
CB80
CB80
CB80
CB80
CB80
CB80
CB80
CB80
CB80
CB80
CB80
CB80
CB80
CB80
CB80
CB80
CB80
CB80
ENDCHAR
STARTCHAR 0035
ENCODING 53
SWIDTH 333 0
DWIDTH 10 0
BBX 8 18 0 0
BITMAP
D9
D9
D9
D9
D9
D9
D9
D9
D9
D9
D9
D9
D9
D9
D9
D9
D9
D9
ENDCHAR
STARTCHAR 0036
ENCODING 54
SWIDTH 333 0
DWIDTH 10 0
BBX 8 18 0 0
BITMAP
CD
CD
CD
CD
CD
CD
CD
CD
CD
CD
CD
CD
CD
CD
CD
CD
CD
CD
ENDCHAR
STARTCHAR 0037
ENCODING 55
SWIDTH 333 0
DWIDTH 10 0
BBX 9 18 0 0
BITMAP
EB80
EB80
EB80
EB80
EB80
EB80
EB80
EB80
EB80
EB80
EB80
EB80
EB80
EB80
EB80
EB80
EB80
EB80
ENDCHAR
STARTCHAR 0038
ENCODING 56
SWIDTH 333 0
DWIDTH 10 0
BBX 8 18 0 0
BITMAP
EB
EB
EB
EB
EB
EB
EB
EB
EB
EB
EB
EB
EB
EB
EB
EB
EB
EB
ENDCHAR
STARTCHAR 0039
ENCODING 57
SWIDTH 333 0
DWIDTH 10 0
BBX 8 18 0 0
BITMAP
EB
EB
EB
EB
EB
EB
EB
EB
EB
EB
EB
EB
EB
EB
EB
EB
EB
EB
ENDCHAR
STARTCHAR 003A
ENCODING 58
SWIDTH 333 0
DWIDTH 10 0
BBX 9 18 0 0
BITMAP
E980
E980
E980
E980
E980
E980
E980
E980
E980
E980
E980
E980
E980
E980
E980
E980
E980
E980
ENDCHAR
STARTCHAR 003B
ENCODING 59
SWIDTH 333 0
DWIDTH 10 0
BBX 8 18 0 0
BITMAP
E9
E9
E9
E9
E9
E9
E9
E9
E9
E9
E9
E9
E9
E9
E9
E9
E9
E9
ENDCHAR
STARTCHAR 003C
ENCODING 60
SWIDTH 333 0
DWIDTH 10 0
BBX 8 18 0 0
BITMAP
ED
ED
ED
ED
ED
ED
ED
ED
ED
ED
ED
ED
ED
ED
ED
ED
ED
ED
ENDCHAR
STARTCHAR 003D
ENCODING 61
SWIDTH 333 0
DWIDTH 10 0
BBX 9 18 0 0
BITMAP
EC80
EC80
EC80
EC80
EC80
EC80
EC80
EC80
EC80
EC80
EC80
EC80
EC80
EC80
EC80
EC80
EC80
EC80
ENDCHAR
STARTCHAR 003E
ENCODING 62
SWIDTH 333 0
DWIDTH 10 0
BBX 7 18 0 0
BITMAP
DE
DE
DE
DE
DE
DE
DE
DE
DE
DE
DE
DE
DE
DE
DE
DE
DE
DE
ENDCHAR
STARTCHAR 003F
ENCODING 63
SWIDTH 333 0
DWIDTH 10 0
BBX 9 18 0 0
BITMAP
D980
D980
D980
D980
D980
D980
D980
D980
D980
D980
D980
D980
D980
D980
D980
D980
D980
D980
ENDCHAR
STARTCHAR 0040
ENCODING 64
SWIDTH 333 0
DWIDTH 10 0
BBX 9 18 0 0
BITMAP
CD80
CD80
CD80
CD80
CD80
CD80
CD80
CD80
CD80
CD80
CD80
CD80
CD80
CD80
CD80
CD80
CD80
CD80
ENDCHAR
STARTCHAR 0041
ENCODING 65
SWIDTH 333 0
DWIDTH 10 0
BBX 7 18 0 0
BITMAP
A6
A6
A6
A6
A6
A6
A6
A6
A6
A6
A6
A6
A6
A6
A6
A6
A6
A6
ENDCHAR
STARTCHAR 0042
ENCODING 66
SWIDTH 333 0
DWIDTH 10 0
BBX 7 18 0 0
BITMAP
8E
8E
8E
8E
8E
8E
8E
8E
8E
8E
8E
8E
8E
8E
8E
8E
8E
8E
ENDCHAR
STARTCHAR 0043
ENCODING 67
SWIDTH 333 0
DWIDTH 10 0
BBX 9 18 0 0
BITMAP
8980
8980
8980
8980
8980
8980
8980
8980
8980
8980
8980
8980
8980
8980
8980
8980
8980
8980
ENDCHAR
STARTCHAR 0044
ENCODING 68
SWIDTH 333 0
DWIDTH 10 0
BBX 7 18 0 0
BITMAP
B2
B2
B2
B2
B2
B2
B2
B2
B2
B2
B2
B2
B2
B2
B2
B2
B2
B2
ENDCHAR
STARTCHAR 0045
ENCODING 69
SWIDTH 333 0
DWIDTH 10 0
BBX 7 18 0 0
BITMAP
8A
8A
8A
8A
8A
8A
8A
8A
8A
8A
8A
8A
8A
8A
8A
8A
8A
8A
ENDCHAR
STARTCHAR 0046
ENCODING 70
SWIDTH 333 0
DWIDTH 10 0
BBX 9 18 0 0
BITMAP
8880
8880
8880
8880
8880
8880
8880
8880
8880
8880
8880
8880
8880
8880
8880
8880
8880
8880
ENDCHAR
STARTCHAR 0047
ENCODING 71
SWIDTH 333 0
DWIDTH 10 0
BBX 7 18 0 0
BITMAP
D2
D2
D2
D2
D2
D2
D2
D2
D2
D2
D2
D2
D2
D2
D2
D2
D2
D2
ENDCHAR
STARTCHAR 0048
ENCODING 72
SWIDTH 333 0
DWIDTH 10 0
BBX 7 18 0 0
BITMAP
CA
CA
CA
CA
CA
CA
CA
CA
CA
CA
CA
CA
CA
CA
CA
CA
CA
CA
ENDCHAR
STARTCHAR 0049
ENCODING 73
SWIDTH 333 0
DWIDTH 10 0
BBX 9 18 0 0
BITMAP
C880
C880
C880
C880
C880
C880
C880
C880
C880
C880
C880
C880
C880
C880
C880
C880
C880
C880
ENDCHAR
STARTCHAR 004A
ENCODING 74
SWIDTH 333 0
DWIDTH 10 0
BBX 7 18 0 0
BITMAP
BE
BE
BE
BE
BE
BE
BE
BE
BE
BE
BE
BE
BE
BE
BE
BE
BE
BE
ENDCHAR
STARTCHAR 004B
ENCODING 75
SWIDTH 333 0
DWIDTH 10 0
BBX 9 18 0 0
BITMAP
B380
B380
B380
B380
B380
B380
B380
B380
B380
B380
B380
B380
B380
B380
B380
B380
B380
B380
ENDCHAR
STARTCHAR 004C
ENCODING 76
SWIDTH 333 0
DWIDTH 10 0
BBX 9 18 0 0
BITMAP
8B80
8B80
8B80
8B80
8B80
8B80
8B80
8B80
8B80
8B80
8B80
8B80
8B80
8B80
8B80
8B80
8B80
8B80
ENDCHAR
STARTCHAR 004D
ENCODING 77
SWIDTH 333 0
DWIDTH 10 0
BBX 7 18 0 0
BITMAP
BE
BE
BE
BE
BE
BE
BE
BE
BE
BE
BE
BE
BE
BE
BE
BE
BE
BE
ENDCHAR
STARTCHAR 004E
ENCODING 78
SWIDTH 333 0
DWIDTH 10 0
BBX 9 18 0 0
BITMAP
B980
B980
B980
B980
B980
B980
B980
B980
B980
B980
B980
B980
B980
B980
B980
B980
B980
B980
ENDCHAR
STARTCHAR 004F
ENCODING 79
SWIDTH 333 0
DWIDTH 10 0
BBX 9 18 0 0
BITMAP
8D80
8D80
8D80
8D80
8D80
8D80
8D80
8D80
8D80
8D80
8D80
8D80
8D80
8D80
8D80
8D80
8D80
8D80
ENDCHAR
STARTCHAR 0050
ENCODING 80
SWIDTH 333 0
DWIDTH 10 0
BBX 9 18 0 0
BITMAP
ED80
ED80
ED80
ED80
ED80
ED80
ED80
ED80
ED80
ED80
ED80
ED80
ED80
ED80
ED80
ED80
ED80
ED80
ENDCHAR
STARTCHAR 0051
ENCODING 81
SWIDTH 333 0
DWIDTH 10 0
BBX 9 18 0 0
BITMAP
D380
D380
D380
D380
D380
D380
D380
D380
D380
D380
D380
D380
D380
D380
D380
D380
D380
D380
ENDCHAR
STARTCHAR 0052
ENCODING 82
SWIDTH 333 0
DWIDTH 10 0
BBX 9 18 0 0
BITMAP
CB80
CB80
CB80
CB80
CB80
CB80
CB80
CB80
CB80
CB80
CB80
CB80
CB80
CB80
CB80
CB80
CB80
CB80
ENDCHAR
STARTCHAR 0053
ENCODING 83
SWIDTH 333 0
DWIDTH 10 0
BBX 7 18 0 0
BITMAP
DA
DA
DA
DA
DA
DA
DA
DA
DA
DA
DA
DA
DA
DA
DA
DA
DA
DA
ENDCHAR
STARTCHAR 0054
ENCODING 84
SWIDTH 333 0
DWIDTH 10 0
BBX 9 18 0 0
BITMAP
D880
D880
D880
D880
D880
D880
D880
D880
D880
D880
D880
D880
D880
D880
D880
D880
D880
D880
ENDCHAR
STARTCHAR 0055
ENCODING 85
SWIDTH 333 0
DWIDTH 10 0
BBX 9 18 0 0
BITMAP
DB80
DB80
DB80
DB80
DB80
DB80
DB80
DB80
DB80
DB80
DB80
DB80
DB80
DB80
DB80
DB80
DB80
DB80
ENDCHAR
STARTCHAR 0056
ENCODING 86
SWIDTH 333 0
DWIDTH 10 0
BBX 7 18 0 0
BITMAP
EE
EE
EE
EE
EE
EE
EE
EE
EE
EE
EE
EE
EE
EE
EE
EE
EE
EE
ENDCHAR
STARTCHAR 0057
ENCODING 87
SWIDTH 333 0
DWIDTH 10 0
BBX 9 18 0 0
BITMAP
E980
E980
E980
E980
E980
E980
E980
E980
E980
E980
E980
E980
E980
E980
E980
E980
E980
E980
ENDCHAR
STARTCHAR 0058
ENCODING 88
SWIDTH 333 0
DWIDTH 10 0
BBX 9 18 0 0
BITMAP
E580
E580
E580
E580
E580
E580
E580
E580
E580
E580
E580
E580
E580
E580
E580
E580
E580
E580
ENDCHAR
STARTCHAR 0059
ENCODING 89
SWIDTH 333 0
DWIDTH 10 0
BBX 7 18 0 0
BITMAP
EA
EA
EA
EA
EA
EA
EA
EA
EA
EA
EA
EA
EA
EA
EA
EA
EA
EA
ENDCHAR
STARTCHAR 005A
ENCODING 90
SWIDTH 333 0
DWIDTH 10 0
BBX 9 18 0 0
BITMAP
E880
E880
E880
E880
E880
E880
E880
E880
E880
E880
E880
E880
E880
E880
E880
E880
E880
E880
ENDCHAR
STARTCHAR 005B
ENCODING 91
SWIDTH 333 0
DWIDTH 10 0
BBX 9 18 0 0
BITMAP
E680
E680
E680
E680
E680
E680
E680
E680
E680
E680
E680
E680
E680
E680
E680
E680
E680
E680
ENDCHAR
STARTCHAR 005C
ENCODING 92
SWIDTH 333 0
DWIDTH 10 0
BBX 9 18 0 0
BITMAP
EE80
EE80
EE80
EE80
EE80
EE80
EE80
EE80
EE80
EE80
EE80
EE80
EE80
EE80
EE80
EE80
EE80
EE80
ENDCHAR
STARTCHAR 005D
ENCODING 93
SWIDTH 333 0
DWIDTH 10 0
BBX 9 18 0 0
BITMAP
C880
C880
C880
C880
C880
C880
C880
C880
C880
C880
C880
C880
C880
C880
C880
C880
C880
C880
ENDCHAR
STARTCHAR 005E
ENCODING 94
SWIDTH 333 0
DWIDTH 10 0
BBX 9 18 0 0
BITMAP
F280
F280
F280
F280
F280
F280
F280
F280
F280
F280
F280
F280
F280
F280
F280
F280
F280
F280
ENDCHAR
STARTCHAR 005F
ENCODING 95
SWIDTH 333 0
DWIDTH 10 0
BBX 6 18 0 0
BITMAP
AC
AC
AC
AC
AC
AC
AC
AC
AC
AC
AC
AC
AC
AC
AC
AC
AC
AC
ENDCHAR
STARTCHAR 0060
ENCODING 96
SWIDTH 333 0
DWIDTH 10 0
BBX 8 18 0 0
BITMAP
A3
A3
A3
A3
A3
A3
A3
A3
A3
A3
A3
A3
A3
A3
A3
A3
A3
A3
ENDCHAR
STARTCHAR 0061
ENCODING 97
SWIDTH 333 0
DWIDTH 10 0
BBX 6 18 0 0
BITMAP
9C
9C
9C
9C
9C
9C
9C
9C
9C
9C
9C
9C
9C
9C
9C
9C
9C
9C
ENDCHAR
STARTCHAR 0062
ENCODING 98
SWIDTH 333 0
DWIDTH 10 0
BBX 9 18 0 0
BITMAP
9180
9180
9180
9180
9180
9180
9180
9180
9180
9180
9180
9180
9180
9180
9180
9180
9180
9180
ENDCHAR
STARTCHAR 0063
ENCODING 99
SWIDTH 333 0
DWIDTH 10 0
BBX 8 18 0 0
BITMAP
8B
8B
8B
8B
8B
8B
8B
8B
8B
8B
8B
8B
8B
8B
8B
8B
8B
8B
ENDCHAR
STARTCHAR 0064
ENCODING 100
SWIDTH 333 0
DWIDTH 10 0
BBX 9 18 0 0
BITMAP
8980
8980
8980
8980
8980
8980
8980
8980
8980
8980
8980
8980
8980
8980
8980
8980
8980
8980
ENDCHAR
STARTCHAR 0065
ENCODING 101
SWIDTH 333 0
DWIDTH 10 0
BBX 6 18 0 0
BITMAP
B4
B4
B4
B4
B4
B4
B4
B4
B4
B4
B4
B4
B4
B4
B4
B4
B4
B4
ENDCHAR
STARTCHAR 0066
ENCODING 102
SWIDTH 333 0
DWIDTH 10 0
BBX 8 18 0 0
BITMAP
B1
B1
B1
B1
B1
B1
B1
B1
B1
B1
B1
B1
B1
B1
B1
B1
B1
B1
ENDCHAR
STARTCHAR 0067
ENCODING 103
SWIDTH 333 0
DWIDTH 10 0
BBX 6 18 0 0
BITMAP
9C
9C
9C
9C
9C
9C
9C
9C
9C
9C
9C
9C
9C
9C
9C
9C
9C
9C
ENDCHAR
STARTCHAR 0068
ENCODING 104
SWIDTH 333 0
DWIDTH 10 0
BBX 9 18 0 0
BITMAP
9880
9880
9880
9880
9880
9880
9880
9880
9880
9880
9880
9880
9880
9880
9880
9880
9880
9880
ENDCHAR
STARTCHAR 0069
ENCODING 105
SWIDTH 333 0
DWIDTH 10 0
BBX 8 18 0 0
BITMAP
8D
8D
8D
8D
8D
8D
8D
8D
8D
8D
8D
8D
8D
8D
8D
8D
8D
8D
ENDCHAR
STARTCHAR 006A
ENCODING 106
SWIDTH 333 0
DWIDTH 10 0
BBX 9 18 0 0
BITMAP
8C80
8C80
8C80
8C80
8C80
8C80
8C80
8C80
8C80
8C80
8C80
8C80
8C80
8C80
8C80
8C80
8C80
8C80
ENDCHAR
STARTCHAR 006B
ENCODING 107
SWIDTH 333 0
DWIDTH 10 0
BBX 9 18 0 0
BITMAP
C480
C480
C480
C480
C480
C480
C480
C480
C480
C480
C480
C480
C480
C480
C480
C480
C480
C480
ENDCHAR
STARTCHAR 006C
ENCODING 108
SWIDTH 333 0
DWIDTH 10 0
BBX 6 18 0 0
BITMAP
CC
CC
CC
CC
CC
CC
CC
CC
CC
CC
CC
CC
CC
CC
CC
CC
CC
CC
ENDCHAR
STARTCHAR 006D
ENCODING 109
SWIDTH 333 0
DWIDTH 10 0
BBX 9 18 0 0
BITMAP
FE80
FE80
FE80
FE80
FE80
FE80
FE80
FE80
FE80
FE80
FE80
FE80
FE80
FE80
FE80
FE80
FE80
FE80
ENDCHAR
STARTCHAR 006E
ENCODING 110
SWIDTH 333 0
DWIDTH 10 0
BBX 8 18 0 0
BITMAP
C5
C5
C5
C5
C5
C5
C5
C5
C5
C5
C5
C5
C5
C5
C5
C5
C5
C5
ENDCHAR
STARTCHAR 006F
ENCODING 111
SWIDTH 333 0
DWIDTH 10 0
BBX 9 18 0 0
BITMAP
8E80
8E80
8E80
8E80
8E80
8E80
8E80
8E80
8E80
8E80
8E80
8E80
8E80
8E80
8E80
8E80
8E80
8E80
ENDCHAR
STARTCHAR 0070
ENCODING 112
SWIDTH 333 0
DWIDTH 10 0
BBX 8 18 0 0
BITMAP
AF
AF
AF
AF
AF
AF
AF
AF
AF
AF
AF
AF
AF
AF
AF
AF
AF
AF
ENDCHAR
STARTCHAR 0071
ENCODING 113
SWIDTH 333 0
DWIDTH 10 0
BBX 8 18 0 0
BITMAP
9F
9F
9F
9F
9F
9F
9F
9F
9F
9F
9F
9F
9F
9F
9F
9F
9F
9F
ENDCHAR
STARTCHAR 0072
ENCODING 114
SWIDTH 333 0
DWIDTH 10 0
BBX 9 18 0 0
BITMAP
9780
9780
9780
9780
9780
9780
9780
9780
9780
9780
9780
9780
9780
9780
9780
9780
9780
9780
ENDCHAR
STARTCHAR 0073
ENCODING 115
SWIDTH 333 0
DWIDTH 10 0
BBX 8 18 0 0
BITMAP
B9
B9
B9
B9
B9
B9
B9
B9
B9
B9
B9
B9
B9
B9
B9
B9
B9
B9
ENDCHAR
STARTCHAR 0074
ENCODING 116
SWIDTH 333 0
DWIDTH 10 0
BBX 8 18 0 0
BITMAP
9D
9D
9D
9D
9D
9D
9D
9D
9D
9D
9D
9D
9D
9D
9D
9D
9D
9D
ENDCHAR
STARTCHAR 0075
ENCODING 117
SWIDTH 333 0
DWIDTH 10 0
BBX 9 18 0 0
BITMAP
9C80
9C80
9C80
9C80
9C80
9C80
9C80
9C80
9C80
9C80
9C80
9C80
9C80
9C80
9C80
9C80
9C80
9C80
ENDCHAR
STARTCHAR 0076
ENCODING 118
SWIDTH 333 0
DWIDTH 10 0
BBX 8 18 0 0
BITMAP
F9
F9
F9
F9
F9
F9
F9
F9
F9
F9
F9
F9
F9
F9
F9
F9
F9
F9
ENDCHAR
STARTCHAR 0077
ENCODING 119
SWIDTH 333 0
DWIDTH 10 0
BBX 8 18 0 0
BITMAP
F5
F5
F5
F5
F5
F5
F5
F5
F5
F5
F5
F5
F5
F5
F5
F5
F5
F5
ENDCHAR
STARTCHAR 0078
ENCODING 120
SWIDTH 333 0
DWIDTH 10 0
BBX 9 18 0 0
BITMAP
F480
F480
F480
F480
F480
F480
F480
F480
F480
F480
F480
F480
F480
F480
F480
F480
F480
F480
ENDCHAR
STARTCHAR 0079
ENCODING 121
SWIDTH 333 0
DWIDTH 10 0
BBX 9 18 0 0
BITMAP
DF80
DF80
DF80
DF80
DF80
DF80
DF80
DF80
DF80
DF80
DF80
DF80
DF80
DF80
DF80
DF80
DF80
DF80
ENDCHAR
STARTCHAR 007A
ENCODING 122
SWIDTH 333 0
DWIDTH 10 0
BBX 9 18 0 0
BITMAP
DD80
DD80
DD80
DD80
DD80
DD80
DD80
DD80
DD80
DD80
DD80
DD80
DD80
DD80
DD80
DD80
DD80
DD80
ENDCHAR
STARTCHAR 007B
ENCODING 123
SWIDTH 333 0
DWIDTH 10 0
BBX 9 18 0 0
BITMAP
FD80
FD80
FD80
FD80
FD80
FD80
FD80
FD80
FD80
FD80
FD80
FD80
FD80
FD80
FD80
FD80
FD80
FD80
ENDCHAR
STARTCHAR 007C
ENCODING 124
SWIDTH 333 0
DWIDTH 10 0
BBX 7 18 0 0
BITMAP
AE
AE
AE
AE
AE
AE
AE
AE
AE
AE
AE
AE
AE
AE
AE
AE
AE
AE
ENDCHAR
STARTCHAR 007D
ENCODING 125
SWIDTH 333 0
DWIDTH 10 0
BBX 9 18 0 0
BITMAP
A780
A780
A780
A780
A780
A780
A780
A780
A780
A780
A780
A780
A780
A780
A780
A780
A780
A780
ENDCHAR
STARTCHAR 007E
ENCODING 126
SWIDTH 333 0
DWIDTH 10 0
BBX 9 18 0 0
BITMAP
8F80
8F80
8F80
8F80
8F80
8F80
8F80
8F80
8F80
8F80
8F80
8F80
8F80
8F80
8F80
8F80
8F80
8F80
ENDCHAR
STARTCHAR 00A0
ENCODING 160
SWIDTH 333 0
DWIDTH 10 0
BBX 0 0 0 0
BITMAP
ENDCHAR
STARTCHAR 00C2
ENCODING 194
SWIDTH 333 0
DWIDTH 10 0
BBX 8 18 0 0
BITMAP
DB
DB
DB
DB
DB
DB
DB
DB
DB
DB
DB
DB
DB
DB
DB
DB
DB
DB
ENDCHAR
STARTCHAR 00C3
ENCODING 195
SWIDTH 333 0
DWIDTH 10 0
BBX 7 18 0 0
BITMAP
BA
BA
BA
BA
BA
BA
BA
BA
BA
BA
BA
BA
BA
BA
BA
BA
BA
BA
ENDCHAR
STARTCHAR 00C4
ENCODING 196
SWIDTH 333 0
DWIDTH 10 0
BBX 9 18 0 0
BITMAP
B880
B880
B880
B880
B880
B880
B880
B880
B880
B880
B880
B880
B880
B880
B880
B880
B880
B880
ENDCHAR
STARTCHAR 00C5
ENCODING 197
SWIDTH 333 0
DWIDTH 10 0
BBX 7 18 0 0
BITMAP
FA
FA
FA
FA
FA
FA
FA
FA
FA
FA
FA
FA
FA
FA
FA
FA
FA
FA
ENDCHAR
STARTCHAR 00C6
ENCODING 198
SWIDTH 333 0
DWIDTH 10 0
BBX 9 18 0 0
BITMAP
F880
F880
F880
F880
F880
F880
F880
F880
F880
F880
F880
F880
F880
F880
F880
F880
F880
F880
ENDCHAR
STARTCHAR 00C7
ENCODING 199
SWIDTH 333 0
DWIDTH 10 0
BBX 9 18 0 0
BITMAP
BF80
BF80
BF80
BF80
BF80
BF80
BF80
BF80
BF80
BF80
BF80
BF80
BF80
BF80
BF80
BF80
BF80
BF80
ENDCHAR
STARTCHAR 00C8
ENCODING 200
SWIDTH 333 0
DWIDTH 10 0
BBX 9 18 0 0
BITMAP
BB80
BB80
BB80
BB80
BB80
BB80
BB80
BB80
BB80
BB80
BB80
BB80
BB80
BB80
BB80
BB80
BB80
BB80
ENDCHAR
STARTCHAR 00C9
ENCODING 201
SWIDTH 333 0
DWIDTH 10 0
BBX 9 18 0 0
BITMAP
EF80
EF80
EF80
EF80
EF80
EF80
EF80
EF80
EF80
EF80
EF80
EF80
EF80
EF80
EF80
EF80
EF80
EF80
ENDCHAR
STARTCHAR 00CA
ENCODING 202
SWIDTH 333 0
DWIDTH 10 0
BBX 9 18 0 0
BITMAP
FB80
FB80
FB80
FB80
FB80
FB80
FB80
FB80
FB80
FB80
FB80
FB80
FB80
FB80
FB80
FB80
FB80
FB80
ENDCHAR
STARTCHAR 00CB
ENCODING 203
SWIDTH 333 0
DWIDTH 10 0
BBX 8 18 0 0
BITMAP
D1
D1
D1
D1
D1
D1
D1
D1
D1
D1
D1
D1
D1
D1
D1
D1
D1
D1
ENDCHAR
STARTCHAR 00CC
ENCODING 204
SWIDTH 333 0
DWIDTH 10 0
BBX 6 18 0 0
BITMAP
D4
D4
D4
D4
D4
D4
D4
D4
D4
D4
D4
D4
D4
D4
D4
D4
D4
D4
ENDCHAR
STARTCHAR 00CD
ENCODING 205
SWIDTH 333 0
DWIDTH 10 0
BBX 8 18 0 0
BITMAP
D7
D7
D7
D7
D7
D7
D7
D7
D7
D7
D7
D7
D7
D7
D7
D7
D7
D7
ENDCHAR
STARTCHAR 00CE
ENCODING 206
SWIDTH 400 0
DWIDTH 12 0
BBX 12 18 0 0
BITMAP
CEB0
CEB0
CEB0
CEB0
CEB0
CEB0
CEB0
CEB0
CEB0
CEB0
CEB0
CEB0
CEB0
CEB0
CEB0
CEB0
CEB0
CEB0
ENDCHAR
STARTCHAR 200B
ENCODING 8203
SWIDTH 0 0
DWIDTH 0 0
BBX 0 0 0 0
BITMAP
ENDCHAR
STARTCHAR 200C
ENCODING 8204
SWIDTH 0 0
DWIDTH 0 0
BBX 0 0 0 0
BITMAP
ENDCHAR
ENDFONT
