STARTFONT 2.1
COMMENT
COMMENT Converted from OpenType font "LibreBarcode128-Regular.ttf" by "otf2bdf 3.0".
COMMENT
FONT -FreeType-Libre Barcode 128-Medium-R-Normal--32-320-72-72-P-92-ISO10646-1
SIZE 32 72 72
FONTBOUNDINGBOX 12 19 0 0
STARTPROPERTIES 19
FOUNDRY "FreeType"
FAMILY_NAME "Libre Barcode 128"
WEIGHT_NAME "Medium"
SLANT "R"
SETWIDTH_NAME "Normal"
ADD_STYLE_NAME ""
PIXEL_SIZE 32
POINT_SIZE 320
RESOLUTION_X 72
RESOLUTION_Y 72
SPACING "P"
AVERAGE_WIDTH 92
CHARSET_REGISTRY "ISO10646"
CHARSET_ENCODING "1"
FONT_ASCENT 19
FONT_DESCENT 12
COPYRIGHT "Copyright 2017-2020 The Libre Barcode Project Authors (https://github.com/graphicore/librebarcode)"
_OTF_FONTFILE "LibreBarcode128-Regular.ttf"
_OTF_PSNAME "LibreBarcode128-Regular"
ENDPROPERTIES
CHARS 113
STARTCHAR 0000
ENCODING 0
SWIDTH 0 0
DWIDTH 0 0
BBX 0 0 0 0
BITMAP
ENDCHAR
STARTCHAR 000D
ENCODING 13
SWIDTH 0 0
DWIDTH 0 0
BBX 0 0 0 0
BITMAP
ENDCHAR
STARTCHAR 0020
ENCODING 32
SWIDTH 343 0
DWIDTH 11 0
BBX 0 0 0 0
BITMAP
ENDCHAR
STARTCHAR 0021
ENCODING 33
SWIDTH 343 0
DWIDTH 11 0
BBX 9 19 0 0
BITMAP
CD80
CD80
CD80
CD80
CD80
CD80
CD80
CD80
CD80
CD80
CD80
CD80
CD80
CD80
CD80
CD80
CD80
CD80
CD80
ENDCHAR
STARTCHAR 0022
ENCODING 34
SWIDTH 343 0
DWIDTH 11 0
BBX 10 19 0 0
BITMAP
CCC0
CCC0
CCC0
CCC0
CCC0
CCC0
CCC0
CCC0
CCC0
CCC0
CCC0
CCC0
CCC0
CCC0
CCC0
CCC0
CCC0
CCC0
CCC0
ENDCHAR
STARTCHAR 0023
ENCODING 35
SWIDTH 343 0
DWIDTH 11 0
BBX 8 19 0 0
BITMAP
93
93
93
93
93
93
93
93
93
93
93
93
93
93
93
93
93
93
93
ENDCHAR
STARTCHAR 0024
ENCODING 36
SWIDTH 343 0
DWIDTH 11 0
BBX 9 19 0 0
BITMAP
9180
9180
9180
9180
9180
9180
9180
9180
9180
9180
9180
9180
9180
9180
9180
9180
9180
9180
9180
ENDCHAR
STARTCHAR 0025
ENCODING 37
SWIDTH 343 0
DWIDTH 11 0
BBX 9 19 0 0
BITMAP
8980
8980
8980
8980
8980
8980
8980
8980
8980
8980
8980
8980
8980
8980
8980
8980
8980
8980
8980
ENDCHAR
STARTCHAR 0026
ENCODING 38
SWIDTH 343 0
DWIDTH 11 0
BBX 8 19 0 0
BITMAP
99
99
99
99
99
99
99
99
99
99
99
99
99
99
99
99
99
99
99
ENDCHAR
STARTCHAR 0027
ENCODING 39
SWIDTH 343 0
DWIDTH 11 0
BBX 9 19 0 0
BITMAP
9880
9880
9880
9880
9880
9880
9880
9880
9880
9880
9880
9880
9880
9880
9880
9880
9880
9880
9880
ENDCHAR
STARTCHAR 0028
ENCODING 40
SWIDTH 343 0
DWIDTH 11 0
BBX 9 19 0 0
BITMAP
8C80
8C80
8C80
8C80
8C80
8C80
8C80
8C80
8C80
8C80
8C80
8C80
8C80
8C80
8C80
8C80
8C80
8C80
8C80
ENDCHAR
STARTCHAR 0029
ENCODING 41
SWIDTH 343 0
DWIDTH 11 0
BBX 8 19 0 0
BITMAP
C9
C9
C9
C9
C9
C9
C9
C9
C9
C9
C9
C9
C9
C9
C9
C9
C9
C9
C9
ENDCHAR
STARTCHAR 002A
ENCODING 42
SWIDTH 343 0
DWIDTH 11 0
BBX 9 19 0 0
BITMAP
C880
C880
C880
C880
C880
C880
C880
C880
C880
C880
C880
C880
C880
C880
C880
C880
C880
C880
C880
ENDCHAR
STARTCHAR 002B
ENCODING 43
SWIDTH 343 0
DWIDTH 11 0
BBX 9 19 0 0
BITMAP
C480
C480
C480
C480
C480
C480
C480
C480
C480
C480
C480
C480
C480
C480
C480
C480
C480
C480
C480
ENDCHAR
STARTCHAR 002C
ENCODING 44
SWIDTH 343 0
DWIDTH 11 0
BBX 9 19 0 0
BITMAP
B380
B380
B380
B380
B380
B380
B380
B380
B380
B380
B380
B380
B380
B380
B380
B380
B380
B380
B380
ENDCHAR
STARTCHAR 002D
ENCODING 45
SWIDTH 343 0
DWIDTH 11 0
BBX 9 19 0 0
BITMAP
9B80
9B80
9B80
9B80
9B80
9B80
9B80
9B80
9B80
9B80
9B80
9B80
9B80
9B80
9B80
9B80
9B80
9B80
9B80
ENDCHAR
STARTCHAR 002E
ENCODING 46
SWIDTH 343 0
DWIDTH 11 0
BBX 10 19 0 0
BITMAP
99C0
99C0
99C0
99C0
99C0
99C0
99C0
99C0
99C0
99C0
99C0
99C0
99C0
99C0
99C0
99C0
99C0
99C0
99C0
ENDCHAR
STARTCHAR 002F
ENCODING 47
SWIDTH 343 0
DWIDTH 11 0
BBX 9 19 0 0
BITMAP
B980
B980
B980
B980
B980
B980
B980
B980
B980
B980
B980
B980
B980
B980
B980
B980
B980
B980
B980
ENDCHAR
STARTCHAR 0030
ENCODING 48
SWIDTH 343 0
DWIDTH 11 0
BBX 9 19 0 0
BITMAP
9D80
9D80
9D80
9D80
9D80
9D80
9D80
9D80
9D80
9D80
9D80
9D80
9D80
9D80
9D80
9D80
9D80
9D80
9D80
ENDCHAR
STARTCHAR 0031
ENCODING 49
SWIDTH 343 0
DWIDTH 11 0
BBX 10 19 0 0
BITMAP
9CC0
9CC0
9CC0
9CC0
9CC0
9CC0
9CC0
9CC0
9CC0
9CC0
9CC0
9CC0
9CC0
9CC0
9CC0
9CC0
9CC0
9CC0
9CC0
ENDCHAR
STARTCHAR 0032
ENCODING 50
SWIDTH 343 0
DWIDTH 11 0
BBX 10 19 0 0
BITMAP
CE40
CE40
CE40
CE40
CE40
CE40
CE40
CE40
CE40
CE40
CE40
CE40
CE40
CE40
CE40
CE40
CE40
CE40
CE40
ENDCHAR
STARTCHAR 0033
ENCODING 51
SWIDTH 343 0
DWIDTH 11 0
BBX 9 19 0 0
BITMAP
CB80
CB80
CB80
CB80
CB80
CB80
CB80
CB80
CB80
CB80
CB80
CB80
CB80
CB80
CB80
CB80
CB80
CB80
CB80
ENDCHAR
STARTCHAR 0034
ENCODING 52
SWIDTH 343 0
DWIDTH 11 0
BBX 10 19 0 0
BITMAP
C9C0
C9C0
C9C0
C9C0
C9C0
C9C0
C9C0
C9C0
C9C0
C9C0
C9C0
C9C0
C9C0
C9C0
C9C0
C9C0
C9C0
C9C0
C9C0
ENDCHAR
STARTCHAR 0035
ENCODING 53
SWIDTH 343 0
DWIDTH 11 0
BBX 9 19 0 0
BITMAP
DC80
DC80
DC80
DC80
DC80
DC80
DC80
DC80
DC80
DC80
DC80
DC80
DC80
DC80
DC80
DC80
DC80
DC80
DC80
ENDCHAR
STARTCHAR 0036
ENCODING 54
SWIDTH 343 0
DWIDTH 11 0
BBX 9 19 0 0
BITMAP
CE80
CE80
CE80
CE80
CE80
CE80
CE80
CE80
CE80
CE80
CE80
CE80
CE80
CE80
CE80
CE80
CE80
CE80
CE80
ENDCHAR
STARTCHAR 0037
ENCODING 55
SWIDTH 343 0
DWIDTH 11 0
BBX 10 19 0 0
BITMAP
EDC0
EDC0
EDC0
EDC0
EDC0
EDC0
EDC0
EDC0
EDC0
EDC0
EDC0
EDC0
EDC0
EDC0
EDC0
EDC0
EDC0
EDC0
EDC0
ENDCHAR
STARTCHAR 0038
ENCODING 56
SWIDTH 343 0
DWIDTH 11 0
BBX 9 19 0 0
BITMAP
E980
E980
E980
E980
E980
E980
E980
E980
E980
E980
E980
E980
E980
E980
E980
E980
E980
E980
E980
ENDCHAR
STARTCHAR 0039
ENCODING 57
SWIDTH 343 0
DWIDTH 11 0
BBX 9 19 0 0
BITMAP
E580
E580
E580
E580
E580
E580
E580
E580
E580
E580
E580
E580
E580
E580
E580
E580
E580
E580
E580
ENDCHAR
STARTCHAR 003A
ENCODING 58
SWIDTH 343 0
DWIDTH 11 0
BBX 10 19 0 0
BITMAP
E4C0
E4C0
E4C0
E4C0
E4C0
E4C0
E4C0
E4C0
E4C0
E4C0
E4C0
E4C0
E4C0
E4C0
E4C0
E4C0
E4C0
E4C0
E4C0
ENDCHAR
STARTCHAR 003B
ENCODING 59
SWIDTH 343 0
DWIDTH 11 0
BBX 9 19 0 0
BITMAP
EC80
EC80
EC80
EC80
EC80
EC80
EC80
EC80
EC80
EC80
EC80
EC80
EC80
EC80
EC80
EC80
EC80
EC80
EC80
ENDCHAR
STARTCHAR 003C
ENCODING 60
SWIDTH 343 0
DWIDTH 11 0
BBX 9 19 0 0
BITMAP
E680
E680
E680
E680
E680
E680
E680
E680
E680
E680
E680
E680
E680
E680
E680
E680
E680
E680
E680
ENDCHAR
STARTCHAR 003D
ENCODING 61
SWIDTH 343 0
DWIDTH 11 0
BBX 10 19 0 0
BITMAP
E640
E640
E640
E640
E640
E640
E640
E640
E640
E640
E640
E640
E640
E640
E640
E640
E640
E640
E640
ENDCHAR
STARTCHAR 003E
ENCODING 62
SWIDTH 343 0
DWIDTH 11 0
BBX 8 19 0 0
BITMAP
DB
DB
DB
DB
DB
DB
DB
DB
DB
DB
DB
DB
DB
DB
DB
DB
DB
DB
DB
ENDCHAR
STARTCHAR 003F
ENCODING 63
SWIDTH 343 0
DWIDTH 11 0
BBX 10 19 0 0
BITMAP
D8C0
D8C0
D8C0
D8C0
D8C0
D8C0
D8C0
D8C0
D8C0
D8C0
D8C0
D8C0
D8C0
D8C0
D8C0
D8C0
D8C0
D8C0
D8C0
ENDCHAR
STARTCHAR 0040
ENCODING 64
SWIDTH 343 0
DWIDTH 11 0
BBX 10 19 0 0
BITMAP
C6C0
C6C0
C6C0
C6C0
C6C0
C6C0
C6C0
C6C0
C6C0
C6C0
C6C0
C6C0
C6C0
C6C0
C6C0
C6C0
C6C0
C6C0
C6C0
ENDCHAR
STARTCHAR 0041
ENCODING 65
SWIDTH 343 0
DWIDTH 11 0
BBX 8 19 0 0
BITMAP
A3
A3
A3
A3
A3
A3
A3
A3
A3
A3
A3
A3
A3
A3
A3
A3
A3
A3
A3
ENDCHAR
STARTCHAR 0042
ENCODING 66
SWIDTH 343 0
DWIDTH 11 0
BBX 8 19 0 0
BITMAP
8B
8B
8B
8B
8B
8B
8B
8B
8B
8B
8B
8B
8B
8B
8B
8B
8B
8B
8B
ENDCHAR
STARTCHAR 0043
ENCODING 67
SWIDTH 343 0
DWIDTH 11 0
BBX 10 19 0 0
BITMAP
88C0
88C0
88C0
88C0
88C0
88C0
88C0
88C0
88C0
88C0
88C0
88C0
88C0
88C0
88C0
88C0
88C0
88C0
88C0
ENDCHAR
STARTCHAR 0044
ENCODING 68
SWIDTH 343 0
DWIDTH 11 0
BBX 8 19 0 0
BITMAP
B1
B1
B1
B1
B1
B1
B1
B1
B1
B1
B1
B1
B1
B1
B1
B1
B1
B1
B1
ENDCHAR
STARTCHAR 0045
ENCODING 69
SWIDTH 343 0
DWIDTH 11 0
BBX 8 19 0 0
BITMAP
8D
8D
8D
8D
8D
8D
8D
8D
8D
8D
8D
8D
8D
8D
8D
8D
8D
8D
8D
ENDCHAR
STARTCHAR 0046
ENCODING 70
SWIDTH 343 0
DWIDTH 11 0
BBX 10 19 0 0
BITMAP
8C40
8C40
8C40
8C40
8C40
8C40
8C40
8C40
8C40
8C40
8C40
8C40
8C40
8C40
8C40
8C40
8C40
8C40
8C40
ENDCHAR
STARTCHAR 0047
ENCODING 71
SWIDTH 343 0
DWIDTH 11 0
BBX 8 19 0 0
BITMAP
D1
D1
D1
D1
D1
D1
D1
D1
D1
D1
D1
D1
D1
D1
D1
D1
D1
D1
D1
ENDCHAR
STARTCHAR 0048
ENCODING 72
SWIDTH 343 0
DWIDTH 11 0
BBX 8 19 0 0
BITMAP
C5
C5
C5
C5
C5
C5
C5
C5
C5
C5
C5
C5
C5
C5
C5
C5
C5
C5
C5
ENDCHAR
STARTCHAR 0049
ENCODING 73
SWIDTH 343 0
DWIDTH 11 0
BBX 10 19 0 0
BITMAP
C440
C440
C440
C440
C440
C440
C440
C440
C440
C440
C440
C440
C440
C440
C440
C440
C440
C440
C440
ENDCHAR
STARTCHAR 004A
ENCODING 74
SWIDTH 343 0
DWIDTH 11 0
BBX 8 19 0 0
BITMAP
B7
B7
B7
B7
B7
B7
B7
B7
B7
B7
B7
B7
B7
B7
B7
B7
B7
B7
B7
ENDCHAR
STARTCHAR 004B
ENCODING 75
SWIDTH 343 0
DWIDTH 11 0
BBX 10 19 0 0
BITMAP
B1C0
B1C0
B1C0
B1C0
B1C0
B1C0
B1C0
B1C0
B1C0
B1C0
B1C0
B1C0
B1C0
B1C0
B1C0
B1C0
B1C0
B1C0
B1C0
ENDCHAR
STARTCHAR 004C
ENCODING 76
SWIDTH 343 0
DWIDTH 11 0
BBX 10 19 0 0
BITMAP
8DC0
8DC0
8DC0
8DC0
8DC0
8DC0
8DC0
8DC0
8DC0
8DC0
8DC0
8DC0
8DC0
8DC0
8DC0
8DC0
8DC0
8DC0
8DC0
ENDCHAR
STARTCHAR 004D
ENCODING 77
SWIDTH 343 0
DWIDTH 11 0
BBX 8 19 0 0
BITMAP
BB
BB
BB
BB
BB
BB
BB
BB
BB
BB
BB
BB
BB
BB
BB
BB
BB
BB
BB
ENDCHAR
STARTCHAR 004E
ENCODING 78
SWIDTH 343 0
DWIDTH 11 0
BBX 10 19 0 0
BITMAP
B8C0
B8C0
B8C0
B8C0
B8C0
B8C0
B8C0
B8C0
B8C0
B8C0
B8C0
B8C0
B8C0
B8C0
B8C0
B8C0
B8C0
B8C0
B8C0
ENDCHAR
STARTCHAR 004F
ENCODING 79
SWIDTH 343 0
DWIDTH 11 0
BBX 10 19 0 0
BITMAP
8EC0
8EC0
8EC0
8EC0
8EC0
8EC0
8EC0
8EC0
8EC0
8EC0
8EC0
8EC0
8EC0
8EC0
8EC0
8EC0
8EC0
8EC0
8EC0
ENDCHAR
STARTCHAR 0050
ENCODING 80
SWIDTH 343 0
DWIDTH 11 0
BBX 10 19 0 0
BITMAP
EEC0
EEC0
EEC0
EEC0
EEC0
EEC0
EEC0
EEC0
EEC0
EEC0
EEC0
EEC0
EEC0
EEC0
EEC0
EEC0
EEC0
EEC0
EEC0
ENDCHAR
STARTCHAR 0051
ENCODING 81
SWIDTH 343 0
DWIDTH 11 0
BBX 10 19 0 0
BITMAP
D1C0
D1C0
D1C0
D1C0
D1C0
D1C0
D1C0
D1C0
D1C0
D1C0
D1C0
D1C0
D1C0
D1C0
D1C0
D1C0
D1C0
D1C0
D1C0
ENDCHAR
STARTCHAR 0052
ENCODING 82
SWIDTH 343 0
DWIDTH 11 0
BBX 10 19 0 0
BITMAP
C5C0
C5C0
C5C0
C5C0
C5C0
C5C0
C5C0
C5C0
C5C0
C5C0
C5C0
C5C0
C5C0
C5C0
C5C0
C5C0
C5C0
C5C0
C5C0
ENDCHAR
STARTCHAR 0053
ENCODING 83
SWIDTH 343 0
DWIDTH 11 0
BBX 8 19 0 0
BITMAP
DD
DD
DD
DD
DD
DD
DD
DD
DD
DD
DD
DD
DD
DD
DD
DD
DD
DD
DD
ENDCHAR
STARTCHAR 0054
ENCODING 84
SWIDTH 343 0
DWIDTH 11 0
BBX 10 19 0 0
BITMAP
DC40
DC40
DC40
DC40
DC40
DC40
DC40
DC40
DC40
DC40
DC40
DC40
DC40
DC40
DC40
DC40
DC40
DC40
DC40
ENDCHAR
STARTCHAR 0055
ENCODING 85
SWIDTH 343 0
DWIDTH 11 0
BBX 10 19 0 0
BITMAP
DDC0
DDC0
DDC0
DDC0
DDC0
DDC0
DDC0
DDC0
DDC0
DDC0
DDC0
DDC0
DDC0
DDC0
DDC0
DDC0
DDC0
DDC0
DDC0
ENDCHAR
STARTCHAR 0056
ENCODING 86
SWIDTH 343 0
DWIDTH 11 0
BBX 8 19 0 0
BITMAP
EB
EB
EB
EB
EB
EB
EB
EB
EB
EB
EB
EB
EB
EB
EB
EB
EB
EB
EB
ENDCHAR
STARTCHAR 0057
ENCODING 87
SWIDTH 343 0
DWIDTH 11 0
BBX 10 19 0 0
BITMAP
E8C0
E8C0
E8C0
E8C0
E8C0
E8C0
E8C0
E8C0
E8C0
E8C0
E8C0
E8C0
E8C0
E8C0
E8C0
E8C0
E8C0
E8C0
E8C0
ENDCHAR
STARTCHAR 0058
ENCODING 88
SWIDTH 343 0
DWIDTH 11 0
BBX 10 19 0 0
BITMAP
E2C0
E2C0
E2C0
E2C0
E2C0
E2C0
E2C0
E2C0
E2C0
E2C0
E2C0
E2C0
E2C0
E2C0
E2C0
E2C0
E2C0
E2C0
E2C0
ENDCHAR
STARTCHAR 0059
ENCODING 89
SWIDTH 343 0
DWIDTH 11 0
BBX 8 19 0 0
BITMAP
ED
ED
ED
ED
ED
ED
ED
ED
ED
ED
ED
ED
ED
ED
ED
ED
ED
ED
ED
ENDCHAR
STARTCHAR 005A
ENCODING 90
SWIDTH 343 0
DWIDTH 11 0
BBX 10 19 0 0
BITMAP
EC40
EC40
EC40
EC40
EC40
EC40
EC40
EC40
EC40
EC40
EC40
EC40
EC40
EC40
EC40
EC40
EC40
EC40
EC40
ENDCHAR
STARTCHAR 005B
ENCODING 91
SWIDTH 343 0
DWIDTH 11 0
BBX 10 19 0 0
BITMAP
E340
E340
E340
E340
E340
E340
E340
E340
E340
E340
E340
E340
E340
E340
E340
E340
E340
E340
E340
ENDCHAR
STARTCHAR 005C
ENCODING 92
SWIDTH 343 0
DWIDTH 11 0
BBX 10 19 0 0
BITMAP
EF40
EF40
EF40
EF40
EF40
EF40
EF40
EF40
EF40
EF40
EF40
EF40
EF40
EF40
EF40
EF40
EF40
EF40
EF40
ENDCHAR
STARTCHAR 005D
ENCODING 93
SWIDTH 343 0
DWIDTH 11 0
BBX 10 19 0 0
BITMAP
C840
C840
C840
C840
C840
C840
C840
C840
C840
C840
C840
C840
C840
C840
C840
C840
C840
C840
C840
ENDCHAR
STARTCHAR 005E
ENCODING 94
SWIDTH 343 0
DWIDTH 11 0
BBX 10 19 0 0
BITMAP
F140
F140
F140
F140
F140
F140
F140
F140
F140
F140
F140
F140
F140
F140
F140
F140
F140
F140
F140
ENDCHAR
STARTCHAR 005F
ENCODING 95
SWIDTH 343 0
DWIDTH 11 0
BBX 7 19 0 0
BITMAP
A6
A6
A6
A6
A6
A6
A6
A6
A6
A6
A6
A6
A6
A6
A6
A6
A6
A6
A6
ENDCHAR
STARTCHAR 0060
ENCODING 96
SWIDTH 343 0
DWIDTH 11 0
BBX 9 19 0 0
BITMAP
A180
A180
A180
A180
A180
A180
A180
A180
A180
A180
A180
A180
A180
A180
A180
A180
A180
A180
A180
ENDCHAR
STARTCHAR 0061
ENCODING 97
SWIDTH 343 0
DWIDTH 11 0
BBX 7 19 0 0
BITMAP
96
96
96
96
96
96
96
96
96
96
96
96
96
96
96
96
96
96
96
ENDCHAR
STARTCHAR 0062
ENCODING 98
SWIDTH 343 0
DWIDTH 11 0
BBX 10 19 0 0
BITMAP
90C0
90C0
90C0
90C0
90C0
90C0
90C0
90C0
90C0
90C0
90C0
90C0
90C0
90C0
90C0
90C0
90C0
90C0
90C0
ENDCHAR
STARTCHAR 0063
ENCODING 99
SWIDTH 343 0
DWIDTH 11 0
BBX 9 19 0 0
BITMAP
8580
8580
8580
8580
8580
8580
8580
8580
8580
8580
8580
8580
8580
8580
8580
8580
8580
8580
8580
ENDCHAR
STARTCHAR 0064
ENCODING 100
SWIDTH 343 0
DWIDTH 11 0
BBX 10 19 0 0
BITMAP
84C0
84C0
84C0
84C0
84C0
84C0
84C0
84C0
84C0
84C0
84C0
84C0
84C0
84C0
84C0
84C0
84C0
84C0
84C0
ENDCHAR
STARTCHAR 0065
ENCODING 101
SWIDTH 343 0
DWIDTH 11 0
BBX 7 19 0 0
BITMAP
B2
B2
B2
B2
B2
B2
B2
B2
B2
B2
B2
B2
B2
B2
B2
B2
B2
B2
B2
ENDCHAR
STARTCHAR 0066
ENCODING 102
SWIDTH 343 0
DWIDTH 11 0
BBX 9 19 0 0
BITMAP
B080
B080
B080
B080
B080
B080
B080
B080
B080
B080
B080
B080
B080
B080
B080
B080
B080
B080
B080
ENDCHAR
STARTCHAR 0067
ENCODING 103
SWIDTH 343 0
DWIDTH 11 0
BBX 7 19 0 0
BITMAP
9A
9A
9A
9A
9A
9A
9A
9A
9A
9A
9A
9A
9A
9A
9A
9A
9A
9A
9A
ENDCHAR
STARTCHAR 0068
ENCODING 104
SWIDTH 343 0
DWIDTH 11 0
BBX 10 19 0 0
BITMAP
9840
9840
9840
9840
9840
9840
9840
9840
9840
9840
9840
9840
9840
9840
9840
9840
9840
9840
9840
ENDCHAR
STARTCHAR 0069
ENCODING 105
SWIDTH 343 0
DWIDTH 11 0
BBX 9 19 0 0
BITMAP
8680
8680
8680
8680
8680
8680
8680
8680
8680
8680
8680
8680
8680
8680
8680
8680
8680
8680
8680
ENDCHAR
STARTCHAR 006A
ENCODING 106
SWIDTH 343 0
DWIDTH 11 0
BBX 10 19 0 0
BITMAP
8640
8640
8640
8640
8640
8640
8640
8640
8640
8640
8640
8640
8640
8640
8640
8640
8640
8640
8640
ENDCHAR
STARTCHAR 006B
ENCODING 107
SWIDTH 343 0
DWIDTH 11 0
BBX 10 19 0 0
BITMAP
C240
C240
C240
C240
C240
C240
C240
C240
C240
C240
C240
C240
C240
C240
C240
C240
C240
C240
C240
ENDCHAR
STARTCHAR 006C
ENCODING 108
SWIDTH 343 0
DWIDTH 11 0
BBX 7 19 0 0
BITMAP
CA
CA
CA
CA
CA
CA
CA
CA
CA
CA
CA
CA
CA
CA
CA
CA
CA
CA
CA
ENDCHAR
STARTCHAR 006D
ENCODING 109
SWIDTH 343 0
DWIDTH 11 0
BBX 10 19 0 0
BITMAP
F740
F740
F740
F740
F740
F740
F740
F740
F740
F740
F740
F740
F740
F740
F740
F740
F740
F740
F740
ENDCHAR
STARTCHAR 006E
ENCODING 110
SWIDTH 343 0
DWIDTH 11 0
BBX 9 19 0 0
BITMAP
C280
C280
C280
C280
C280
C280
C280
C280
C280
C280
C280
C280
C280
C280
C280
C280
C280
C280
C280
ENDCHAR
STARTCHAR 006F
ENCODING 111
SWIDTH 343 0
DWIDTH 11 0
BBX 10 19 0 0
BITMAP
8F40
8F40
8F40
8F40
8F40
8F40
8F40
8F40
8F40
8F40
8F40
8F40
8F40
8F40
8F40
8F40
8F40
8F40
8F40
ENDCHAR
STARTCHAR 0070
ENCODING 112
SWIDTH 343 0
DWIDTH 11 0
BBX 9 19 0 0
BITMAP
A780
A780
A780
A780
A780
A780
A780
A780
A780
A780
A780
A780
A780
A780
A780
A780
A780
A780
A780
ENDCHAR
STARTCHAR 0071
ENCODING 113
SWIDTH 343 0
DWIDTH 11 0
BBX 9 19 0 0
BITMAP
9780
9780
9780
9780
9780
9780
9780
9780
9780
9780
9780
9780
9780
9780
9780
9780
9780
9780
9780
ENDCHAR
STARTCHAR 0072
ENCODING 114
SWIDTH 343 0
DWIDTH 11 0
BBX 10 19 0 0
BITMAP
93C0
93C0
93C0
93C0
93C0
93C0
93C0
93C0
93C0
93C0
93C0
93C0
93C0
93C0
93C0
93C0
93C0
93C0
93C0
ENDCHAR
STARTCHAR 0073
ENCODING 115
SWIDTH 343 0
DWIDTH 11 0
BBX 9 19 0 0
BITMAP
BC80
BC80
BC80
BC80
BC80
BC80
BC80
BC80
BC80
BC80
BC80
BC80
BC80
BC80
BC80
BC80
BC80
BC80
BC80
ENDCHAR
STARTCHAR 0074
ENCODING 116
SWIDTH 343 0
DWIDTH 11 0
BBX 9 19 0 0
BITMAP
9E80
9E80
9E80
9E80
9E80
9E80
9E80
9E80
9E80
9E80
9E80
9E80
9E80
9E80
9E80
9E80
9E80
9E80
9E80
ENDCHAR
STARTCHAR 0075
ENCODING 117
SWIDTH 343 0
DWIDTH 11 0
BBX 10 19 0 0
BITMAP
9E40
9E40
9E40
9E40
9E40
9E40
9E40
9E40
9E40
9E40
9E40
9E40
9E40
9E40
9E40
9E40
9E40
9E40
9E40
ENDCHAR
STARTCHAR 0076
ENCODING 118
SWIDTH 343 0
DWIDTH 11 0
BBX 9 19 0 0
BITMAP
F480
F480
F480
F480
F480
F480
F480
F480
F480
F480
F480
F480
F480
F480
F480
F480
F480
F480
F480
ENDCHAR
STARTCHAR 0077
ENCODING 119
SWIDTH 343 0
DWIDTH 11 0
BBX 9 19 0 0
BITMAP
F280
F280
F280
F280
F280
F280
F280
F280
F280
F280
F280
F280
F280
F280
F280
F280
F280
F280
F280
ENDCHAR
STARTCHAR 0078
ENCODING 120
SWIDTH 343 0
DWIDTH 11 0
BBX 10 19 0 0
BITMAP
F240
F240
F240
F240
F240
F240
F240
F240
F240
F240
F240
F240
F240
F240
F240
F240
F240
F240
F240
ENDCHAR
STARTCHAR 0079
ENCODING 121
SWIDTH 343 0
DWIDTH 11 0
BBX 10 19 0 0
BITMAP
DBC0
DBC0
DBC0
DBC0
DBC0
DBC0
DBC0
DBC0
DBC0
DBC0
DBC0
DBC0
DBC0
DBC0
DBC0
DBC0
DBC0
DBC0
DBC0
ENDCHAR
STARTCHAR 007A
ENCODING 122
SWIDTH 343 0
DWIDTH 11 0
BBX 10 19 0 0
BITMAP
DEC0
DEC0
DEC0
DEC0
DEC0
DEC0
DEC0
DEC0
DEC0
DEC0
DEC0
DEC0
DEC0
DEC0
DEC0
DEC0
DEC0
DEC0
DEC0
ENDCHAR
STARTCHAR 007B
ENCODING 123
SWIDTH 343 0
DWIDTH 11 0
BBX 10 19 0 0
BITMAP
F6C0
F6C0
F6C0
F6C0
F6C0
F6C0
F6C0
F6C0
F6C0
F6C0
F6C0
F6C0
F6C0
F6C0
F6C0
F6C0
F6C0
F6C0
F6C0
ENDCHAR
STARTCHAR 007C
ENCODING 124
SWIDTH 343 0
DWIDTH 11 0
BBX 8 19 0 0
BITMAP
AF
AF
AF
AF
AF
AF
AF
AF
AF
AF
AF
AF
AF
AF
AF
AF
AF
AF
AF
ENDCHAR
STARTCHAR 007D
ENCODING 125
SWIDTH 343 0
DWIDTH 11 0
BBX 10 19 0 0
BITMAP
A3C0
A3C0
A3C0
A3C0
A3C0
A3C0
A3C0
A3C0
A3C0
A3C0
A3C0
A3C0
A3C0
A3C0
A3C0
A3C0
A3C0
A3C0
A3C0
ENDCHAR
STARTCHAR 007E
ENCODING 126
SWIDTH 343 0
DWIDTH 11 0
BBX 10 19 0 0
BITMAP
8BC0
8BC0
8BC0
8BC0
8BC0
8BC0
8BC0
8BC0
8BC0
8BC0
8BC0
8BC0
8BC0
8BC0
8BC0
8BC0
8BC0
8BC0
8BC0
ENDCHAR
STARTCHAR 00A0
ENCODING 160
SWIDTH 343 0
DWIDTH 11 0
BBX 0 0 0 0
BITMAP
ENDCHAR
STARTCHAR 00C2
ENCODING 194
SWIDTH 343 0
DWIDTH 11 0
BBX 9 19 0 0
BITMAP
D980
D980
D980
D980
D980
D980
D980
D980
D980
D980
D980
D980
D980
D980
D980
D980
D980
D980
D980
ENDCHAR
STARTCHAR 00C3
ENCODING 195
SWIDTH 343 0
DWIDTH 11 0
BBX 8 19 0 0
BITMAP
BD
BD
BD
BD
BD
BD
BD
BD
BD
BD
BD
BD
BD
BD
BD
BD
BD
BD
BD
ENDCHAR
STARTCHAR 00C4
ENCODING 196
SWIDTH 343 0
DWIDTH 11 0
BBX 10 19 0 0
BITMAP
BC40
BC40
BC40
BC40
BC40
BC40
BC40
BC40
BC40
BC40
BC40
BC40
BC40
BC40
BC40
BC40
BC40
BC40
BC40
ENDCHAR
STARTCHAR 00C5
ENCODING 197
SWIDTH 343 0
DWIDTH 11 0
BBX 8 19 0 0
BITMAP
F5
F5
F5
F5
F5
F5
F5
F5
F5
F5
F5
F5
F5
F5
F5
F5
F5
F5
F5
ENDCHAR
STARTCHAR 00C6
ENCODING 198
SWIDTH 343 0
DWIDTH 11 0
BBX 10 19 0 0
BITMAP
F440
F440
F440
F440
F440
F440
F440
F440
F440
F440
F440
F440
F440
F440
F440
F440
F440
F440
F440
ENDCHAR
STARTCHAR 00C7
ENCODING 199
SWIDTH 343 0
DWIDTH 11 0
BBX 10 19 0 0
BITMAP
BBC0
BBC0
BBC0
BBC0
BBC0
BBC0
BBC0
BBC0
BBC0
BBC0
BBC0
BBC0
BBC0
BBC0
BBC0
BBC0
BBC0
BBC0
BBC0
ENDCHAR
STARTCHAR 00C8
ENCODING 200
SWIDTH 343 0
DWIDTH 11 0
BBX 10 19 0 0
BITMAP
BDC0
BDC0
BDC0
BDC0
BDC0
BDC0
BDC0
BDC0
BDC0
BDC0
BDC0
BDC0
BDC0
BDC0
BDC0
BDC0
BDC0
BDC0
BDC0
ENDCHAR
STARTCHAR 00C9
ENCODING 201
SWIDTH 343 0
DWIDTH 11 0
BBX 10 19 0 0
BITMAP
EBC0
EBC0
EBC0
EBC0
EBC0
EBC0
EBC0
EBC0
EBC0
EBC0
EBC0
EBC0
EBC0
EBC0
EBC0
EBC0
EBC0
EBC0
EBC0
ENDCHAR
STARTCHAR 00CA
ENCODING 202
SWIDTH 343 0
DWIDTH 11 0
BBX 10 19 0 0
BITMAP
F5C0
F5C0
F5C0
F5C0
F5C0
F5C0
F5C0
F5C0
F5C0
F5C0
F5C0
F5C0
F5C0
F5C0
F5C0
F5C0
F5C0
F5C0
F5C0
ENDCHAR
STARTCHAR 00CB
ENCODING 203
SWIDTH 343 0
DWIDTH 11 0
BBX 9 19 0 0
BITMAP
D080
D080
D080
D080
D080
D080
D080
D080
D080
D080
D080
D080
D080
D080
D080
D080
D080
D080
D080
ENDCHAR
STARTCHAR 00CC
ENCODING 204
SWIDTH 343 0
DWIDTH 11 0
BBX 7 19 0 0
BITMAP
D2
D2
D2
D2
D2
D2
D2
D2
D2
D2
D2
D2
D2
D2
D2
D2
D2
D2
D2
ENDCHAR
STARTCHAR 00CD
ENCODING 205
SWIDTH 343 0
DWIDTH 11 0
BBX 9 19 0 0
BITMAP
D380
D380
D380
D380
D380
D380
D380
D380
D380
D380
D380
D380
D380
D380
D380
D380
D380
D380
D380
ENDCHAR
STARTCHAR 00CE
ENCODING 206
SWIDTH 375 0
DWIDTH 12 0
BBX 12 19 0 0
BITMAP
C750
C750
C750
C750
C750
C750
C750
C750
C750
C750
C750
C750
C750
C750
C750
C750
C750
C750
C750
ENDCHAR
STARTCHAR 200B
ENCODING 8203
SWIDTH 0 0
DWIDTH 0 0
BBX 0 0 0 0
BITMAP
ENDCHAR
STARTCHAR 200C
ENCODING 8204
SWIDTH 0 0
DWIDTH 0 0
BBX 0 0 0 0
BITMAP
ENDCHAR
ENDFONT
