STARTFONT 2.1
COMMENT
COMMENT Converted from OpenType font "LibreBarcode128-Regular.ttf" by "otf2bdf 3.0".
COMMENT
FONT -FreeType-Libre Barcode 128-Medium-R-Normal--23-230-72-72-P-65-ISO10646-1
SIZE 23 72 72
FONTBOUNDINGBOX 9 14 0 0
STARTPROPERTIES 19
FOUNDRY "FreeType"
FAMILY_NAME "Libre Barcode 128"
WEIGHT_NAME "Medium"
SLANT "R"
SETWIDTH_NAME "Normal"
ADD_STYLE_NAME ""
PIXEL_SIZE 23
POINT_SIZE 230
RESOLUTION_X 72
RESOLUTION_Y 72
SPACING "P"
AVERAGE_WIDTH 65
CHARSET_REGISTRY "ISO10646"
CHARSET_ENCODING "1"
FONT_ASCENT 13
FONT_DESCENT 9
COPYRIGHT "Copyright 2017-2020 The Libre Barcode Project Authors (https://github.com/graphicore/librebarcode)"
_OTF_FONTFILE "LibreBarcode128-Regular.ttf"
_OTF_PSNAME "LibreBarcode128-Regular"
ENDPROPERTIES
CHARS 113
STARTCHAR 0000
ENCODING 0
SWIDTH 0 0
DWIDTH 0 0
BBX 0 0 0 0
BITMAP
ENDCHAR
STARTCHAR 000D
ENCODING 13
SWIDTH 0 0
DWIDTH 0 0
BBX 0 0 0 0
BITMAP
ENDCHAR
STARTCHAR 0020
ENCODING 32
SWIDTH 347 0
DWIDTH 8 0
BBX 0 0 0 0
BITMAP
ENDCHAR
STARTCHAR 0021
ENCODING 33
SWIDTH 347 0
DWIDTH 8 0
BBX 6 14 0 0
BITMAP
94
94
94
94
94
94
94
94
94
94
94
94
94
94
ENDCHAR
STARTCHAR 0022
ENCODING 34
SWIDTH 347 0
DWIDTH 8 0
BBX 7 14 0 0
BITMAP
92
92
92
92
92
92
92
92
92
92
92
92
92
92
ENDCHAR
STARTCHAR 0023
ENCODING 35
SWIDTH 347 0
DWIDTH 8 0
BBX 6 14 0 0
BITMAP
AC
AC
AC
AC
AC
AC
AC
AC
AC
AC
AC
AC
AC
AC
ENDCHAR
STARTCHAR 0024
ENCODING 36
SWIDTH 347 0
DWIDTH 8 0
BBX 6 14 0 0
BITMAP
A4
A4
A4
A4
A4
A4
A4
A4
A4
A4
A4
A4
A4
A4
ENDCHAR
STARTCHAR 0025
ENCODING 37
SWIDTH 347 0
DWIDTH 8 0
BBX 6 14 0 0
BITMAP
94
94
94
94
94
94
94
94
94
94
94
94
94
94
ENDCHAR
STARTCHAR 0026
ENCODING 38
SWIDTH 347 0
DWIDTH 8 0
BBX 6 14 0 0
BITMAP
A4
A4
A4
A4
A4
A4
A4
A4
A4
A4
A4
A4
A4
A4
ENDCHAR
STARTCHAR 0027
ENCODING 39
SWIDTH 347 0
DWIDTH 8 0
BBX 6 14 0 0
BITMAP
A4
A4
A4
A4
A4
A4
A4
A4
A4
A4
A4
A4
A4
A4
ENDCHAR
STARTCHAR 0028
ENCODING 40
SWIDTH 347 0
DWIDTH 8 0
BBX 6 14 0 0
BITMAP
94
94
94
94
94
94
94
94
94
94
94
94
94
94
ENDCHAR
STARTCHAR 0029
ENCODING 41
SWIDTH 347 0
DWIDTH 8 0
BBX 6 14 0 0
BITMAP
94
94
94
94
94
94
94
94
94
94
94
94
94
94
ENDCHAR
STARTCHAR 002A
ENCODING 42
SWIDTH 347 0
DWIDTH 8 0
BBX 6 14 0 0
BITMAP
94
94
94
94
94
94
94
94
94
94
94
94
94
94
ENDCHAR
STARTCHAR 002B
ENCODING 43
SWIDTH 347 0
DWIDTH 8 0
BBX 6 14 0 0
BITMAP
94
94
94
94
94
94
94
94
94
94
94
94
94
94
ENDCHAR
STARTCHAR 002C
ENCODING 44
SWIDTH 347 0
DWIDTH 8 0
BBX 6 14 0 0
BITMAP
EC
EC
EC
EC
EC
EC
EC
EC
EC
EC
EC
EC
EC
EC
ENDCHAR
STARTCHAR 002D
ENCODING 45
SWIDTH 347 0
DWIDTH 8 0
BBX 6 14 0 0
BITMAP
AC
AC
AC
AC
AC
AC
AC
AC
AC
AC
AC
AC
AC
AC
ENDCHAR
STARTCHAR 002E
ENCODING 46
SWIDTH 347 0
DWIDTH 8 0
BBX 7 14 0 0
BITMAP
A6
A6
A6
A6
A6
A6
A6
A6
A6
A6
A6
A6
A6
A6
ENDCHAR
STARTCHAR 002F
ENCODING 47
SWIDTH 347 0
DWIDTH 8 0
BBX 6 14 0 0
BITMAP
E4
E4
E4
E4
E4
E4
E4
E4
E4
E4
E4
E4
E4
E4
ENDCHAR
STARTCHAR 0030
ENCODING 48
SWIDTH 347 0
DWIDTH 8 0
BBX 6 14 0 0
BITMAP
B4
B4
B4
B4
B4
B4
B4
B4
B4
B4
B4
B4
B4
B4
ENDCHAR
STARTCHAR 0031
ENCODING 49
SWIDTH 347 0
DWIDTH 8 0
BBX 7 14 0 0
BITMAP
B2
B2
B2
B2
B2
B2
B2
B2
B2
B2
B2
B2
B2
B2
ENDCHAR
STARTCHAR 0032
ENCODING 50
SWIDTH 347 0
DWIDTH 8 0
BBX 7 14 0 0
BITMAP
9A
9A
9A
9A
9A
9A
9A
9A
9A
9A
9A
9A
9A
9A
ENDCHAR
STARTCHAR 0033
ENCODING 51
SWIDTH 347 0
DWIDTH 8 0
BBX 6 14 0 0
BITMAP
9C
9C
9C
9C
9C
9C
9C
9C
9C
9C
9C
9C
9C
9C
ENDCHAR
STARTCHAR 0034
ENCODING 52
SWIDTH 347 0
DWIDTH 8 0
BBX 7 14 0 0
BITMAP
96
96
96
96
96
96
96
96
96
96
96
96
96
96
ENDCHAR
STARTCHAR 0035
ENCODING 53
SWIDTH 347 0
DWIDTH 8 0
BBX 6 14 0 0
BITMAP
B4
B4
B4
B4
B4
B4
B4
B4
B4
B4
B4
B4
B4
B4
ENDCHAR
STARTCHAR 0036
ENCODING 54
SWIDTH 347 0
DWIDTH 8 0
BBX 6 14 0 0
BITMAP
9C
9C
9C
9C
9C
9C
9C
9C
9C
9C
9C
9C
9C
9C
ENDCHAR
STARTCHAR 0037
ENCODING 55
SWIDTH 347 0
DWIDTH 8 0
BBX 7 14 0 0
BITMAP
D6
D6
D6
D6
D6
D6
D6
D6
D6
D6
D6
D6
D6
D6
ENDCHAR
STARTCHAR 0038
ENCODING 56
SWIDTH 347 0
DWIDTH 8 0
BBX 6 14 0 0
BITMAP
D4
D4
D4
D4
D4
D4
D4
D4
D4
D4
D4
D4
D4
D4
ENDCHAR
STARTCHAR 0039
ENCODING 57
SWIDTH 347 0
DWIDTH 8 0
BBX 6 14 0 0
BITMAP
D4
D4
D4
D4
D4
D4
D4
D4
D4
D4
D4
D4
D4
D4
ENDCHAR
STARTCHAR 003A
ENCODING 58
SWIDTH 347 0
DWIDTH 8 0
BBX 7 14 0 0
BITMAP
D2
D2
D2
D2
D2
D2
D2
D2
D2
D2
D2
D2
D2
D2
ENDCHAR
STARTCHAR 003B
ENCODING 59
SWIDTH 347 0
DWIDTH 8 0
BBX 6 14 0 0
BITMAP
D4
D4
D4
D4
D4
D4
D4
D4
D4
D4
D4
D4
D4
D4
ENDCHAR
STARTCHAR 003C
ENCODING 60
SWIDTH 347 0
DWIDTH 8 0
BBX 6 14 0 0
BITMAP
DC
DC
DC
DC
DC
DC
DC
DC
DC
DC
DC
DC
DC
DC
ENDCHAR
STARTCHAR 003D
ENCODING 61
SWIDTH 347 0
DWIDTH 8 0
BBX 7 14 0 0
BITMAP
DA
DA
DA
DA
DA
DA
DA
DA
DA
DA
DA
DA
DA
DA
ENDCHAR
STARTCHAR 003E
ENCODING 62
SWIDTH 347 0
DWIDTH 8 0
BBX 6 14 0 0
BITMAP
AC
AC
AC
AC
AC
AC
AC
AC
AC
AC
AC
AC
AC
AC
ENDCHAR
STARTCHAR 003F
ENCODING 63
SWIDTH 347 0
DWIDTH 8 0
BBX 7 14 0 0
BITMAP
A2
A2
A2
A2
A2
A2
A2
A2
A2
A2
A2
A2
A2
A2
ENDCHAR
STARTCHAR 0040
ENCODING 64
SWIDTH 347 0
DWIDTH 8 0
BBX 7 14 0 0
BITMAP
9A
9A
9A
9A
9A
9A
9A
9A
9A
9A
9A
9A
9A
9A
ENDCHAR
STARTCHAR 0041
ENCODING 65
SWIDTH 347 0
DWIDTH 8 0
BBX 6 14 0 0
BITMAP
CC
CC
CC
CC
CC
CC
CC
CC
CC
CC
CC
CC
CC
CC
ENDCHAR
STARTCHAR 0042
ENCODING 66
SWIDTH 347 0
DWIDTH 8 0
BBX 6 14 0 0
BITMAP
9C
9C
9C
9C
9C
9C
9C
9C
9C
9C
9C
9C
9C
9C
ENDCHAR
STARTCHAR 0043
ENCODING 67
SWIDTH 347 0
DWIDTH 8 0
BBX 7 14 0 0
BITMAP
92
92
92
92
92
92
92
92
92
92
92
92
92
92
ENDCHAR
STARTCHAR 0044
ENCODING 68
SWIDTH 347 0
DWIDTH 8 0
BBX 6 14 0 0
BITMAP
E4
E4
E4
E4
E4
E4
E4
E4
E4
E4
E4
E4
E4
E4
ENDCHAR
STARTCHAR 0045
ENCODING 69
SWIDTH 347 0
DWIDTH 8 0
BBX 6 14 0 0
BITMAP
94
94
94
94
94
94
94
94
94
94
94
94
94
94
ENDCHAR
STARTCHAR 0046
ENCODING 70
SWIDTH 347 0
DWIDTH 8 0
BBX 7 14 0 0
BITMAP
92
92
92
92
92
92
92
92
92
92
92
92
92
92
ENDCHAR
STARTCHAR 0047
ENCODING 71
SWIDTH 347 0
DWIDTH 8 0
BBX 6 14 0 0
BITMAP
A4
A4
A4
A4
A4
A4
A4
A4
A4
A4
A4
A4
A4
A4
ENDCHAR
STARTCHAR 0048
ENCODING 72
SWIDTH 347 0
DWIDTH 8 0
BBX 6 14 0 0
BITMAP
94
94
94
94
94
94
94
94
94
94
94
94
94
94
ENDCHAR
STARTCHAR 0049
ENCODING 73
SWIDTH 347 0
DWIDTH 8 0
BBX 7 14 0 0
BITMAP
92
92
92
92
92
92
92
92
92
92
92
92
92
92
ENDCHAR
STARTCHAR 004A
ENCODING 74
SWIDTH 347 0
DWIDTH 8 0
BBX 6 14 0 0
BITMAP
FC
FC
FC
FC
FC
FC
FC
FC
FC
FC
FC
FC
FC
FC
ENDCHAR
STARTCHAR 004B
ENCODING 75
SWIDTH 347 0
DWIDTH 8 0
BBX 7 14 0 0
BITMAP
E6
E6
E6
E6
E6
E6
E6
E6
E6
E6
E6
E6
E6
E6
ENDCHAR
STARTCHAR 004C
ENCODING 76
SWIDTH 347 0
DWIDTH 8 0
BBX 7 14 0 0
BITMAP
96
96
96
96
96
96
96
96
96
96
96
96
96
96
ENDCHAR
STARTCHAR 004D
ENCODING 77
SWIDTH 347 0
DWIDTH 8 0
BBX 6 14 0 0
BITMAP
EC
EC
EC
EC
EC
EC
EC
EC
EC
EC
EC
EC
EC
EC
ENDCHAR
STARTCHAR 004E
ENCODING 78
SWIDTH 347 0
DWIDTH 8 0
BBX 7 14 0 0
BITMAP
E2
E2
E2
E2
E2
E2
E2
E2
E2
E2
E2
E2
E2
E2
ENDCHAR
STARTCHAR 004F
ENCODING 79
SWIDTH 347 0
DWIDTH 8 0
BBX 7 14 0 0
BITMAP
9A
9A
9A
9A
9A
9A
9A
9A
9A
9A
9A
9A
9A
9A
ENDCHAR
STARTCHAR 0050
ENCODING 80
SWIDTH 347 0
DWIDTH 8 0
BBX 7 14 0 0
BITMAP
DA
DA
DA
DA
DA
DA
DA
DA
DA
DA
DA
DA
DA
DA
ENDCHAR
STARTCHAR 0051
ENCODING 81
SWIDTH 347 0
DWIDTH 8 0
BBX 7 14 0 0
BITMAP
A6
A6
A6
A6
A6
A6
A6
A6
A6
A6
A6
A6
A6
A6
ENDCHAR
STARTCHAR 0052
ENCODING 82
SWIDTH 347 0
DWIDTH 8 0
BBX 7 14 0 0
BITMAP
96
96
96
96
96
96
96
96
96
96
96
96
96
96
ENDCHAR
STARTCHAR 0053
ENCODING 83
SWIDTH 347 0
DWIDTH 8 0
BBX 6 14 0 0
BITMAP
B4
B4
B4
B4
B4
B4
B4
B4
B4
B4
B4
B4
B4
B4
ENDCHAR
STARTCHAR 0054
ENCODING 84
SWIDTH 347 0
DWIDTH 8 0
BBX 7 14 0 0
BITMAP
B2
B2
B2
B2
B2
B2
B2
B2
B2
B2
B2
B2
B2
B2
ENDCHAR
STARTCHAR 0055
ENCODING 85
SWIDTH 347 0
DWIDTH 8 0
BBX 7 14 0 0
BITMAP
B6
B6
B6
B6
B6
B6
B6
B6
B6
B6
B6
B6
B6
B6
ENDCHAR
STARTCHAR 0056
ENCODING 86
SWIDTH 347 0
DWIDTH 8 0
BBX 6 14 0 0
BITMAP
DC
DC
DC
DC
DC
DC
DC
DC
DC
DC
DC
DC
DC
DC
ENDCHAR
STARTCHAR 0057
ENCODING 87
SWIDTH 347 0
DWIDTH 8 0
BBX 7 14 0 0
BITMAP
D2
D2
D2
D2
D2
D2
D2
D2
D2
D2
D2
D2
D2
D2
ENDCHAR
STARTCHAR 0058
ENCODING 88
SWIDTH 347 0
DWIDTH 8 0
BBX 7 14 0 0
BITMAP
CA
CA
CA
CA
CA
CA
CA
CA
CA
CA
CA
CA
CA
CA
ENDCHAR
STARTCHAR 0059
ENCODING 89
SWIDTH 347 0
DWIDTH 8 0
BBX 6 14 0 0
BITMAP
D4
D4
D4
D4
D4
D4
D4
D4
D4
D4
D4
D4
D4
D4
ENDCHAR
STARTCHAR 005A
ENCODING 90
SWIDTH 347 0
DWIDTH 8 0
BBX 7 14 0 0
BITMAP
D2
D2
D2
D2
D2
D2
D2
D2
D2
D2
D2
D2
D2
D2
ENDCHAR
STARTCHAR 005B
ENCODING 91
SWIDTH 347 0
DWIDTH 8 0
BBX 7 14 0 0
BITMAP
CE
CE
CE
CE
CE
CE
CE
CE
CE
CE
CE
CE
CE
CE
ENDCHAR
STARTCHAR 005C
ENCODING 92
SWIDTH 347 0
DWIDTH 8 0
BBX 7 14 0 0
BITMAP
DE
DE
DE
DE
DE
DE
DE
DE
DE
DE
DE
DE
DE
DE
ENDCHAR
STARTCHAR 005D
ENCODING 93
SWIDTH 347 0
DWIDTH 8 0
BBX 7 14 0 0
BITMAP
92
92
92
92
92
92
92
92
92
92
92
92
92
92
ENDCHAR
STARTCHAR 005E
ENCODING 94
SWIDTH 347 0
DWIDTH 8 0
BBX 7 14 0 0
BITMAP
E6
E6
E6
E6
E6
E6
E6
E6
E6
E6
E6
E6
E6
E6
ENDCHAR
STARTCHAR 005F
ENCODING 95
SWIDTH 347 0
DWIDTH 8 0
BBX 5 14 0 0
BITMAP
D8
D8
D8
D8
D8
D8
D8
D8
D8
D8
D8
D8
D8
D8
ENDCHAR
STARTCHAR 0060
ENCODING 96
SWIDTH 347 0
DWIDTH 8 0
BBX 6 14 0 0
BITMAP
C4
C4
C4
C4
C4
C4
C4
C4
C4
C4
C4
C4
C4
C4
ENDCHAR
STARTCHAR 0061
ENCODING 97
SWIDTH 347 0
DWIDTH 8 0
BBX 5 14 0 0
BITMAP
B8
B8
B8
B8
B8
B8
B8
B8
B8
B8
B8
B8
B8
B8
ENDCHAR
STARTCHAR 0062
ENCODING 98
SWIDTH 347 0
DWIDTH 8 0
BBX 7 14 0 0
BITMAP
A2
A2
A2
A2
A2
A2
A2
A2
A2
A2
A2
A2
A2
A2
ENDCHAR
STARTCHAR 0063
ENCODING 99
SWIDTH 347 0
DWIDTH 8 0
BBX 6 14 0 0
BITMAP
94
94
94
94
94
94
94
94
94
94
94
94
94
94
ENDCHAR
STARTCHAR 0064
ENCODING 100
SWIDTH 347 0
DWIDTH 8 0
BBX 7 14 0 0
BITMAP
92
92
92
92
92
92
92
92
92
92
92
92
92
92
ENDCHAR
STARTCHAR 0065
ENCODING 101
SWIDTH 347 0
DWIDTH 8 0
BBX 5 14 0 0
BITMAP
E8
E8
E8
E8
E8
E8
E8
E8
E8
E8
E8
E8
E8
E8
ENDCHAR
STARTCHAR 0066
ENCODING 102
SWIDTH 347 0
DWIDTH 8 0
BBX 6 14 0 0
BITMAP
E4
E4
E4
E4
E4
E4
E4
E4
E4
E4
E4
E4
E4
E4
ENDCHAR
STARTCHAR 0067
ENCODING 103
SWIDTH 347 0
DWIDTH 8 0
BBX 5 14 0 0
BITMAP
A8
A8
A8
A8
A8
A8
A8
A8
A8
A8
A8
A8
A8
A8
ENDCHAR
STARTCHAR 0068
ENCODING 104
SWIDTH 347 0
DWIDTH 8 0
BBX 7 14 0 0
BITMAP
A2
A2
A2
A2
A2
A2
A2
A2
A2
A2
A2
A2
A2
A2
ENDCHAR
STARTCHAR 0069
ENCODING 105
SWIDTH 347 0
DWIDTH 8 0
BBX 6 14 0 0
BITMAP
9C
9C
9C
9C
9C
9C
9C
9C
9C
9C
9C
9C
9C
9C
ENDCHAR
STARTCHAR 006A
ENCODING 106
SWIDTH 347 0
DWIDTH 8 0
BBX 7 14 0 0
BITMAP
9A
9A
9A
9A
9A
9A
9A
9A
9A
9A
9A
9A
9A
9A
ENDCHAR
STARTCHAR 006B
ENCODING 107
SWIDTH 347 0
DWIDTH 8 0
BBX 7 14 0 0
BITMAP
8A
8A
8A
8A
8A
8A
8A
8A
8A
8A
8A
8A
8A
8A
ENDCHAR
STARTCHAR 006C
ENCODING 108
SWIDTH 347 0
DWIDTH 8 0
BBX 5 14 0 0
BITMAP
98
98
98
98
98
98
98
98
98
98
98
98
98
98
ENDCHAR
STARTCHAR 006D
ENCODING 109
SWIDTH 347 0
DWIDTH 8 0
BBX 7 14 0 0
BITMAP
FE
FE
FE
FE
FE
FE
FE
FE
FE
FE
FE
FE
FE
FE
ENDCHAR
STARTCHAR 006E
ENCODING 110
SWIDTH 347 0
DWIDTH 8 0
BBX 6 14 0 0
BITMAP
8C
8C
8C
8C
8C
8C
8C
8C
8C
8C
8C
8C
8C
8C
ENDCHAR
STARTCHAR 006F
ENCODING 111
SWIDTH 347 0
DWIDTH 8 0
BBX 7 14 0 0
BITMAP
9E
9E
9E
9E
9E
9E
9E
9E
9E
9E
9E
9E
9E
9E
ENDCHAR
STARTCHAR 0070
ENCODING 112
SWIDTH 347 0
DWIDTH 8 0
BBX 6 14 0 0
BITMAP
DC
DC
DC
DC
DC
DC
DC
DC
DC
DC
DC
DC
DC
DC
ENDCHAR
STARTCHAR 0071
ENCODING 113
SWIDTH 347 0
DWIDTH 8 0
BBX 6 14 0 0
BITMAP
BC
BC
BC
BC
BC
BC
BC
BC
BC
BC
BC
BC
BC
BC
ENDCHAR
STARTCHAR 0072
ENCODING 114
SWIDTH 347 0
DWIDTH 8 0
BBX 7 14 0 0
BITMAP
AE
AE
AE
AE
AE
AE
AE
AE
AE
AE
AE
AE
AE
AE
ENDCHAR
STARTCHAR 0073
ENCODING 115
SWIDTH 347 0
DWIDTH 8 0
BBX 6 14 0 0
BITMAP
F4
F4
F4
F4
F4
F4
F4
F4
F4
F4
F4
F4
F4
F4
ENDCHAR
STARTCHAR 0074
ENCODING 116
SWIDTH 347 0
DWIDTH 8 0
BBX 6 14 0 0
BITMAP
BC
BC
BC
BC
BC
BC
BC
BC
BC
BC
BC
BC
BC
BC
ENDCHAR
STARTCHAR 0075
ENCODING 117
SWIDTH 347 0
DWIDTH 8 0
BBX 7 14 0 0
BITMAP
BA
BA
BA
BA
BA
BA
BA
BA
BA
BA
BA
BA
BA
BA
ENDCHAR
STARTCHAR 0076
ENCODING 118
SWIDTH 347 0
DWIDTH 8 0
BBX 6 14 0 0
BITMAP
F4
F4
F4
F4
F4
F4
F4
F4
F4
F4
F4
F4
F4
F4
ENDCHAR
STARTCHAR 0077
ENCODING 119
SWIDTH 347 0
DWIDTH 8 0
BBX 6 14 0 0
BITMAP
EC
EC
EC
EC
EC
EC
EC
EC
EC
EC
EC
EC
EC
EC
ENDCHAR
STARTCHAR 0078
ENCODING 120
SWIDTH 347 0
DWIDTH 8 0
BBX 7 14 0 0
BITMAP
EA
EA
EA
EA
EA
EA
EA
EA
EA
EA
EA
EA
EA
EA
ENDCHAR
STARTCHAR 0079
ENCODING 121
SWIDTH 347 0
DWIDTH 8 0
BBX 7 14 0 0
BITMAP
AE
AE
AE
AE
AE
AE
AE
AE
AE
AE
AE
AE
AE
AE
ENDCHAR
STARTCHAR 007A
ENCODING 122
SWIDTH 347 0
DWIDTH 8 0
BBX 7 14 0 0
BITMAP
BA
BA
BA
BA
BA
BA
BA
BA
BA
BA
BA
BA
BA
BA
ENDCHAR
STARTCHAR 007B
ENCODING 123
SWIDTH 347 0
DWIDTH 8 0
BBX 7 14 0 0
BITMAP
FA
FA
FA
FA
FA
FA
FA
FA
FA
FA
FA
FA
FA
FA
ENDCHAR
STARTCHAR 007C
ENCODING 124
SWIDTH 347 0
DWIDTH 8 0
BBX 6 14 0 0
BITMAP
DC
DC
DC
DC
DC
DC
DC
DC
DC
DC
DC
DC
DC
DC
ENDCHAR
STARTCHAR 007D
ENCODING 125
SWIDTH 347 0
DWIDTH 8 0
BBX 7 14 0 0
BITMAP
CE
CE
CE
CE
CE
CE
CE
CE
CE
CE
CE
CE
CE
CE
ENDCHAR
STARTCHAR 007E
ENCODING 126
SWIDTH 347 0
DWIDTH 8 0
BBX 7 14 0 0
BITMAP
9E
9E
9E
9E
9E
9E
9E
9E
9E
9E
9E
9E
9E
9E
ENDCHAR
STARTCHAR 00A0
ENCODING 160
SWIDTH 347 0
DWIDTH 8 0
BBX 0 0 0 0
BITMAP
ENDCHAR
STARTCHAR 00C2
ENCODING 194
SWIDTH 347 0
DWIDTH 8 0
BBX 6 14 0 0
BITMAP
A4
A4
A4
A4
A4
A4
A4
A4
A4
A4
A4
A4
A4
A4
ENDCHAR
STARTCHAR 00C3
ENCODING 195
SWIDTH 347 0
DWIDTH 8 0
BBX 6 14 0 0
BITMAP
F4
F4
F4
F4
F4
F4
F4
F4
F4
F4
F4
F4
F4
F4
ENDCHAR
STARTCHAR 00C4
ENCODING 196
SWIDTH 347 0
DWIDTH 8 0
BBX 7 14 0 0
BITMAP
F2
F2
F2
F2
F2
F2
F2
F2
F2
F2
F2
F2
F2
F2
ENDCHAR
STARTCHAR 00C5
ENCODING 197
SWIDTH 347 0
DWIDTH 8 0
BBX 6 14 0 0
BITMAP
F4
F4
F4
F4
F4
F4
F4
F4
F4
F4
F4
F4
F4
F4
ENDCHAR
STARTCHAR 00C6
ENCODING 198
SWIDTH 347 0
DWIDTH 8 0
BBX 7 14 0 0
BITMAP
F2
F2
F2
F2
F2
F2
F2
F2
F2
F2
F2
F2
F2
F2
ENDCHAR
STARTCHAR 00C7
ENCODING 199
SWIDTH 347 0
DWIDTH 8 0
BBX 7 14 0 0
BITMAP
EE
EE
EE
EE
EE
EE
EE
EE
EE
EE
EE
EE
EE
EE
ENDCHAR
STARTCHAR 00C8
ENCODING 200
SWIDTH 347 0
DWIDTH 8 0
BBX 7 14 0 0
BITMAP
F6
F6
F6
F6
F6
F6
F6
F6
F6
F6
F6
F6
F6
F6
ENDCHAR
STARTCHAR 00C9
ENCODING 201
SWIDTH 347 0
DWIDTH 8 0
BBX 7 14 0 0
BITMAP
DE
DE
DE
DE
DE
DE
DE
DE
DE
DE
DE
DE
DE
DE
ENDCHAR
STARTCHAR 00CA
ENCODING 202
SWIDTH 347 0
DWIDTH 8 0
BBX 7 14 0 0
BITMAP
F6
F6
F6
F6
F6
F6
F6
F6
F6
F6
F6
F6
F6
F6
ENDCHAR
STARTCHAR 00CB
ENCODING 203
SWIDTH 347 0
DWIDTH 8 0
BBX 6 14 0 0
BITMAP
A4
A4
A4
A4
A4
A4
A4
A4
A4
A4
A4
A4
A4
A4
ENDCHAR
STARTCHAR 00CC
ENCODING 204
SWIDTH 347 0
DWIDTH 8 0
BBX 5 14 0 0
BITMAP
A8
A8
A8
A8
A8
A8
A8
A8
A8
A8
A8
A8
A8
A8
ENDCHAR
STARTCHAR 00CD
ENCODING 205
SWIDTH 347 0
DWIDTH 8 0
BBX 6 14 0 0
BITMAP
AC
AC
AC
AC
AC
AC
AC
AC
AC
AC
AC
AC
AC
AC
ENDCHAR
STARTCHAR 00CE
ENCODING 206
SWIDTH 391 0
DWIDTH 9 0
BBX 9 14 0 0
BITMAP
9E80
9E80
9E80
9E80
9E80
9E80
9E80
9E80
9E80
9E80
9E80
9E80
9E80
9E80
ENDCHAR
STARTCHAR 200B
ENCODING 8203
SWIDTH 0 0
DWIDTH 0 0
BBX 0 0 0 0
BITMAP
ENDCHAR
STARTCHAR 200C
ENCODING 8204
SWIDTH 0 0
DWIDTH 0 0
BBX 0 0 0 0
BITMAP
ENDCHAR
ENDFONT
