STARTFONT 2.1
COMMENT
COMMENT Converted from OpenType font "NotoSansOgham-Regular.ttf" by "otf2bdf 3.0".
COMMENT
FONT -FreeType-Noto Sans Ogham-Medium-R-Normal--13-130-72-72-P-63-ISO10646-1
SIZE 13 72 72
FONTBOUNDINGBOX 18 16 -6 -3
STARTPROPERTIES 19
FOUNDRY "FreeType"
FAMILY_NAME "Noto Sans Ogham"
WEIGHT_NAME "Medium"
SLANT "R"
SETWIDTH_NAME "Normal"
ADD_STYLE_NAME ""
PIXEL_SIZE 13
POINT_SIZE 130
RESOLUTION_X 72
RESOLUTION_Y 72
SPACING "P"
AVERAGE_WIDTH 63
CHARSET_REGISTRY "ISO10646"
CHARSET_ENCODING "1"
FONT_ASCENT 13
FONT_DESCENT 3
COPYRIGHT "Copyright 2022 The Noto Project Authors (https://github.com/notofonts/ogham)"
_OTF_FONTFILE "NotoSansOgham-Regular.ttf"
_OTF_PSNAME "NotoSansOgham-Regular"
ENDPROPERTIES
CHARS 364
STARTCHAR 0000
ENCODING 0
SWIDTH 0 0
DWIDTH 0 0
BBX 0 0 0 0
BITMAP
ENDCHAR
STARTCHAR 000D
ENCODING 13
SWIDTH 230 0
DWIDTH 3 0
BBX 0 0 0 0
BITMAP
ENDCHAR
STARTCHAR 0020
ENCODING 32
SWIDTH 230 0
DWIDTH 3 0
BBX 0 0 0 0
BITMAP
ENDCHAR
STARTCHAR 0021
ENCODING 33
SWIDTH 307 0
DWIDTH 4 0
BBX 2 9 1 0
BITMAP
80
80
80
80
80
80
00
80
C0
ENDCHAR
STARTCHAR 0022
ENCODING 34
SWIDTH 384 0
DWIDTH 5 0
BBX 3 3 1 6
BITMAP
A0
A0
A0
ENDCHAR
STARTCHAR 0023
ENCODING 35
SWIDTH 615 0
DWIDTH 8 0
BBX 8 9 0 0
BITMAP
12
12
7F
24
24
FF
24
28
48
ENDCHAR
STARTCHAR 0024
ENCODING 36
SWIDTH 538 0
DWIDTH 7 0
BBX 6 10 1 0
BITMAP
20
78
A4
A0
E0
38
24
AC
F8
20
ENDCHAR
STARTCHAR 0025
ENCODING 37
SWIDTH 846 0
DWIDTH 11 0
BBX 9 9 1 0
BITMAP
E200
A200
A400
AB00
AC80
F480
1480
2480
6300
ENDCHAR
STARTCHAR 0026
ENCODING 38
SWIDTH 769 0
DWIDTH 10 0
BBX 8 9 1 0
BITMAP
78
48
48
30
F1
9A
8E
86
7B
ENDCHAR
STARTCHAR 0027
ENCODING 39
SWIDTH 230 0
DWIDTH 3 0
BBX 1 3 1 6
BITMAP
80
80
80
ENDCHAR
STARTCHAR 0028
ENCODING 40
SWIDTH 307 0
DWIDTH 4 0
BBX 3 11 1 -2
BITMAP
60
C0
80
80
80
80
80
80
80
C0
60
ENDCHAR
STARTCHAR 0029
ENCODING 41
SWIDTH 307 0
DWIDTH 4 0
BBX 3 11 0 -2
BITMAP
C0
40
20
20
20
20
20
20
20
40
C0
ENDCHAR
STARTCHAR 002A
ENCODING 42
SWIDTH 538 0
DWIDTH 7 0
BBX 6 6 1 4
BITMAP
20
20
FC
20
50
D8
ENDCHAR
STARTCHAR 002B
ENCODING 43
SWIDTH 538 0
DWIDTH 7 0
BBX 6 6 1 1
BITMAP
20
20
FC
20
20
20
ENDCHAR
STARTCHAR 002C
ENCODING 44
SWIDTH 230 0
DWIDTH 3 0
BBX 2 3 1 -2
BITMAP
C0
80
80
ENDCHAR
STARTCHAR 002D
ENCODING 45
SWIDTH 307 0
DWIDTH 4 0
BBX 3 1 1 3
BITMAP
E0
ENDCHAR
STARTCHAR 002E
ENCODING 46
SWIDTH 230 0
DWIDTH 3 0
BBX 2 2 1 0
BITMAP
80
C0
ENDCHAR
STARTCHAR 002F
ENCODING 47
SWIDTH 384 0
DWIDTH 5 0
BBX 5 9 0 0
BITMAP
18
10
10
20
20
60
40
40
80
ENDCHAR
STARTCHAR 0030
ENCODING 48
SWIDTH 538 0
DWIDTH 7 0
BBX 6 9 1 0
BITMAP
70
88
8C
84
84
84
8C
88
70
ENDCHAR
STARTCHAR 0031
ENCODING 49
SWIDTH 538 0
DWIDTH 7 0
BBX 4 9 1 0
BITMAP
30
50
90
30
30
30
30
30
30
ENDCHAR
STARTCHAR 0032
ENCODING 50
SWIDTH 538 0
DWIDTH 7 0
BBX 6 9 1 0
BITMAP
70
88
08
08
18
30
60
C0
FC
ENDCHAR
STARTCHAR 0033
ENCODING 51
SWIDTH 538 0
DWIDTH 7 0
BBX 6 9 1 0
BITMAP
F8
88
08
08
70
08
0C
08
F8
ENDCHAR
STARTCHAR 0034
ENCODING 52
SWIDTH 538 0
DWIDTH 7 0
BBX 7 9 0 0
BITMAP
0C
0C
14
24
64
44
FE
04
04
ENDCHAR
STARTCHAR 0035
ENCODING 53
SWIDTH 538 0
DWIDTH 7 0
BBX 6 9 1 0
BITMAP
F8
80
80
F8
08
0C
0C
88
F0
ENDCHAR
STARTCHAR 0036
ENCODING 54
SWIDTH 538 0
DWIDTH 7 0
BBX 6 9 1 0
BITMAP
38
40
80
B8
CC
84
84
C8
78
ENDCHAR
STARTCHAR 0037
ENCODING 55
SWIDTH 538 0
DWIDTH 7 0
BBX 6 9 1 0
BITMAP
FC
08
08
18
10
30
20
60
40
ENDCHAR
STARTCHAR 0038
ENCODING 56
SWIDTH 538 0
DWIDTH 7 0
BBX 6 9 1 0
BITMAP
78
88
88
C8
70
88
84
8C
78
ENDCHAR
STARTCHAR 0039
ENCODING 57
SWIDTH 538 0
DWIDTH 7 0
BBX 6 9 1 0
BITMAP
70
88
8C
84
8C
74
08
18
F0
ENDCHAR
STARTCHAR 003A
ENCODING 58
SWIDTH 230 0
DWIDTH 3 0
BBX 2 7 1 0
BITMAP
C0
80
00
00
00
80
C0
ENDCHAR
STARTCHAR 003B
ENCODING 59
SWIDTH 230 0
DWIDTH 3 0
BBX 3 9 0 -2
BITMAP
60
40
00
00
00
00
40
40
C0
ENDCHAR
STARTCHAR 003C
ENCODING 60
SWIDTH 538 0
DWIDTH 7 0
BBX 6 6 1 2
BITMAP
04
18
60
80
60
1C
ENDCHAR
STARTCHAR 003D
ENCODING 61
SWIDTH 538 0
DWIDTH 7 0
BBX 6 4 1 3
BITMAP
FC
00
00
FC
ENDCHAR
STARTCHAR 003E
ENCODING 62
SWIDTH 538 0
DWIDTH 7 0
BBX 6 6 1 2
BITMAP
80
E0
10
0C
30
C0
ENDCHAR
STARTCHAR 003F
ENCODING 63
SWIDTH 461 0
DWIDTH 6 0
BBX 5 9 0 0
BITMAP
F8
88
08
18
30
20
00
20
20
ENDCHAR
STARTCHAR 0040
ENCODING 64
SWIDTH 923 0
DWIDTH 12 0
BBX 10 10 1 -1
BITMAP
1F00
6180
CE80
9240
A240
A240
9240
9D80
4000
3E00
ENDCHAR
STARTCHAR 0041
ENCODING 65
SWIDTH 615 0
DWIDTH 8 0
BBX 8 9 0 0
BITMAP
18
18
14
24
24
7E
42
41
81
ENDCHAR
STARTCHAR 0042
ENCODING 66
SWIDTH 615 0
DWIDTH 8 0
BBX 7 9 1 0
BITMAP
FC
84
84
84
F8
86
86
86
FC
ENDCHAR
STARTCHAR 0043
ENCODING 67
SWIDTH 615 0
DWIDTH 8 0
BBX 7 9 1 0
BITMAP
3E
40
80
80
80
80
80
40
3C
ENDCHAR
STARTCHAR 0044
ENCODING 68
SWIDTH 692 0
DWIDTH 9 0
BBX 8 9 1 0
BITMAP
FC
86
82
83
83
83
82
86
F8
ENDCHAR
STARTCHAR 0045
ENCODING 69
SWIDTH 538 0
DWIDTH 7 0
BBX 5 9 1 0
BITMAP
F8
80
80
80
F8
80
80
80
F8
ENDCHAR
STARTCHAR 0046
ENCODING 70
SWIDTH 538 0
DWIDTH 7 0
BBX 5 9 1 0
BITMAP
F8
80
80
80
F8
80
80
80
80
ENDCHAR
STARTCHAR 0047
ENCODING 71
SWIDTH 692 0
DWIDTH 9 0
BBX 8 9 1 0
BITMAP
3E
40
80
80
8F
83
83
43
3F
ENDCHAR
STARTCHAR 0048
ENCODING 72
SWIDTH 769 0
DWIDTH 10 0
BBX 7 9 1 0
BITMAP
82
82
82
82
FE
82
82
82
82
ENDCHAR
STARTCHAR 0049
ENCODING 73
SWIDTH 307 0
DWIDTH 4 0
BBX 3 9 1 0
BITMAP
E0
40
40
40
40
40
40
40
E0
ENDCHAR
STARTCHAR 004A
ENCODING 74
SWIDTH 307 0
DWIDTH 4 0
BBX 3 12 -1 -3
BITMAP
20
20
20
20
20
20
20
20
20
20
20
C0
ENDCHAR
STARTCHAR 004B
ENCODING 75
SWIDTH 615 0
DWIDTH 8 0
BBX 7 9 1 0
BITMAP
86
8C
98
B0
F0
D0
88
84
86
ENDCHAR
STARTCHAR 004C
ENCODING 76
SWIDTH 538 0
DWIDTH 7 0
BBX 5 9 1 0
BITMAP
80
80
80
80
80
80
80
80
F8
ENDCHAR
STARTCHAR 004D
ENCODING 77
SWIDTH 923 0
DWIDTH 12 0
BBX 10 9 1 0
BITMAP
C0C0
E1C0
A1C0
A2C0
92C0
92C0
94C0
8CC0
8CC0
ENDCHAR
STARTCHAR 004E
ENCODING 78
SWIDTH 769 0
DWIDTH 10 0
BBX 8 9 1 0
BITMAP
C1
E1
A1
91
99
89
85
85
83
ENDCHAR
STARTCHAR 004F
ENCODING 79
SWIDTH 769 0
DWIDTH 10 0
BBX 8 9 1 0
BITMAP
3C
43
81
81
81
81
81
42
3C
ENDCHAR
STARTCHAR 0050
ENCODING 80
SWIDTH 615 0
DWIDTH 8 0
BBX 6 9 1 0
BITMAP
F8
84
84
84
F8
80
80
80
80
ENDCHAR
STARTCHAR 0051
ENCODING 81
SWIDTH 769 0
DWIDTH 10 0
BBX 8 11 1 -2
BITMAP
3C
43
81
81
81
81
81
43
3C
04
03
ENDCHAR
STARTCHAR 0052
ENCODING 82
SWIDTH 615 0
DWIDTH 8 0
BBX 7 9 1 0
BITMAP
F8
84
84
84
F8
88
88
84
86
ENDCHAR
STARTCHAR 0053
ENCODING 83
SWIDTH 538 0
DWIDTH 7 0
BBX 6 9 1 0
BITMAP
78
80
80
C0
70
08
0C
08
F0
ENDCHAR
STARTCHAR 0054
ENCODING 84
SWIDTH 538 0
DWIDTH 7 0
BBX 7 9 0 0
BITMAP
FE
10
10
10
10
10
10
10
10
ENDCHAR
STARTCHAR 0055
ENCODING 85
SWIDTH 769 0
DWIDTH 10 0
BBX 7 9 1 0
BITMAP
82
82
82
82
82
82
82
42
3C
ENDCHAR
STARTCHAR 0056
ENCODING 86
SWIDTH 615 0
DWIDTH 8 0
BBX 8 9 0 0
BITMAP
83
42
42
46
24
24
38
18
18
ENDCHAR
STARTCHAR 0057
ENCODING 87
SWIDTH 923 0
DWIDTH 12 0
BBX 12 9 0 0
BITMAP
C610
4630
4620
4920
6920
2940
39C0
30C0
30C0
ENDCHAR
STARTCHAR 0058
ENCODING 88
SWIDTH 615 0
DWIDTH 8 0
BBX 8 9 0 0
BITMAP
C2
44
24
18
18
38
24
46
C3
ENDCHAR
STARTCHAR 0059
ENCODING 89
SWIDTH 538 0
DWIDTH 7 0
BBX 7 9 0 0
BITMAP
C2
46
64
28
38
10
10
10
10
ENDCHAR
STARTCHAR 005A
ENCODING 90
SWIDTH 538 0
DWIDTH 7 0
BBX 7 9 0 0
BITMAP
7E
04
0C
08
10
30
20
40
FE
ENDCHAR
STARTCHAR 005B
ENCODING 91
SWIDTH 307 0
DWIDTH 4 0
BBX 3 11 1 -2
BITMAP
E0
80
80
80
80
80
80
80
80
80
E0
ENDCHAR
STARTCHAR 005C
ENCODING 92
SWIDTH 384 0
DWIDTH 5 0
BBX 5 9 0 0
BITMAP
80
40
40
60
20
20
10
10
18
ENDCHAR
STARTCHAR 005D
ENCODING 93
SWIDTH 307 0
DWIDTH 4 0
BBX 3 11 0 -2
BITMAP
E0
20
20
20
20
20
20
20
20
20
E0
ENDCHAR
STARTCHAR 005E
ENCODING 94
SWIDTH 538 0
DWIDTH 7 0
BBX 7 6 0 3
BITMAP
10
18
28
24
44
C2
ENDCHAR
STARTCHAR 005F
ENCODING 95
SWIDTH 461 0
DWIDTH 6 0
BBX 6 1 0 -2
BITMAP
FC
ENDCHAR
STARTCHAR 0060
ENCODING 96
SWIDTH 307 0
DWIDTH 4 0
BBX 2 2 1 8
BITMAP
80
40
ENDCHAR
STARTCHAR 0061
ENCODING 97
SWIDTH 538 0
DWIDTH 7 0
BBX 5 7 1 0
BITMAP
78
88
08
F8
88
88
F8
ENDCHAR
STARTCHAR 0062
ENCODING 98
SWIDTH 615 0
DWIDTH 8 0
BBX 6 10 1 0
BITMAP
80
80
80
B8
C4
84
84
84
C4
B8
ENDCHAR
STARTCHAR 0063
ENCODING 99
SWIDTH 461 0
DWIDTH 6 0
BBX 5 7 1 0
BITMAP
78
80
80
80
80
80
78
ENDCHAR
STARTCHAR 0064
ENCODING 100
SWIDTH 615 0
DWIDTH 8 0
BBX 6 10 1 0
BITMAP
04
04
04
74
8C
84
84
84
8C
74
ENDCHAR
STARTCHAR 0065
ENCODING 101
SWIDTH 538 0
DWIDTH 7 0
BBX 6 7 1 0
BITMAP
70
88
8C
FC
80
80
78
ENDCHAR
STARTCHAR 0066
ENCODING 102
SWIDTH 307 0
DWIDTH 4 0
BBX 5 10 0 0
BITMAP
38
20
60
F0
60
60
60
60
60
60
ENDCHAR
STARTCHAR 0067
ENCODING 103
SWIDTH 615 0
DWIDTH 8 0
BBX 6 10 1 -3
BITMAP
74
8C
84
84
84
8C
74
04
0C
F8
ENDCHAR
STARTCHAR 0068
ENCODING 104
SWIDTH 615 0
DWIDTH 8 0
BBX 6 10 1 0
BITMAP
80
80
80
B8
C4
84
84
84
84
84
ENDCHAR
STARTCHAR 0069
ENCODING 105
SWIDTH 230 0
DWIDTH 3 0
BBX 1 10 1 0
BITMAP
80
00
00
80
80
80
80
80
80
80
ENDCHAR
STARTCHAR 006A
ENCODING 106
SWIDTH 230 0
DWIDTH 3 0
BBX 3 13 -1 -3
BITMAP
20
00
00
20
20
20
20
20
20
20
20
20
E0
ENDCHAR
STARTCHAR 006B
ENCODING 107
SWIDTH 538 0
DWIDTH 7 0
BBX 6 10 1 0
BITMAP
80
80
80
8C
90
A0
E0
90
98
8C
ENDCHAR
STARTCHAR 006C
ENCODING 108
SWIDTH 230 0
DWIDTH 3 0
BBX 1 10 1 0
BITMAP
80
80
80
80
80
80
80
80
80
80
ENDCHAR
STARTCHAR 006D
ENCODING 109
SWIDTH 923 0
DWIDTH 12 0
BBX 10 7 1 0
BITMAP
BB80
CC40
8440
8440
8440
8440
8440
ENDCHAR
STARTCHAR 006E
ENCODING 110
SWIDTH 615 0
DWIDTH 8 0
BBX 6 7 1 0
BITMAP
B8
C4
84
84
84
84
84
ENDCHAR
STARTCHAR 006F
ENCODING 111
SWIDTH 615 0
DWIDTH 8 0
BBX 6 7 1 0
BITMAP
78
8C
84
84
84
8C
78
ENDCHAR
STARTCHAR 0070
ENCODING 112
SWIDTH 615 0
DWIDTH 8 0
BBX 6 10 1 -3
BITMAP
B8
C4
84
84
84
CC
B8
80
80
80
ENDCHAR
STARTCHAR 0071
ENCODING 113
SWIDTH 615 0
DWIDTH 8 0
BBX 6 10 1 -3
BITMAP
74
8C
84
84
84
8C
74
04
04
04
ENDCHAR
STARTCHAR 0072
ENCODING 114
SWIDTH 384 0
DWIDTH 5 0
BBX 4 7 1 0
BITMAP
B0
C0
80
80
80
80
80
ENDCHAR
STARTCHAR 0073
ENCODING 115
SWIDTH 461 0
DWIDTH 6 0
BBX 5 7 1 0
BITMAP
F8
80
80
70
18
18
F0
ENDCHAR
STARTCHAR 0074
ENCODING 116
SWIDTH 384 0
DWIDTH 5 0
BBX 4 9 0 0
BITMAP
40
40
F0
40
40
40
40
40
30
ENDCHAR
STARTCHAR 0075
ENCODING 117
SWIDTH 615 0
DWIDTH 8 0
BBX 6 7 1 0
BITMAP
84
84
84
84
84
8C
74
ENDCHAR
STARTCHAR 0076
ENCODING 118
SWIDTH 538 0
DWIDTH 7 0
BBX 7 7 0 0
BITMAP
86
44
4C
48
28
38
30
ENDCHAR
STARTCHAR 0077
ENCODING 119
SWIDTH 769 0
DWIDTH 10 0
BBX 10 7 0 0
BITMAP
8C40
4C40
4E80
5280
5280
3280
3100
ENDCHAR
STARTCHAR 0078
ENCODING 120
SWIDTH 538 0
DWIDTH 7 0
BBX 7 7 0 0
BITMAP
C6
68
28
10
28
6C
C6
ENDCHAR
STARTCHAR 0079
ENCODING 121
SWIDTH 538 0
DWIDTH 7 0
BBX 7 10 0 -3
BITMAP
86
44
4C
68
28
38
10
10
20
E0
ENDCHAR
STARTCHAR 007A
ENCODING 122
SWIDTH 461 0
DWIDTH 6 0
BBX 6 7 0 0
BITMAP
7C
08
10
30
20
40
FC
ENDCHAR
STARTCHAR 007B
ENCODING 123
SWIDTH 384 0
DWIDTH 5 0
BBX 5 11 0 -2
BITMAP
18
20
20
20
20
C0
20
20
20
20
18
ENDCHAR
STARTCHAR 007C
ENCODING 124
SWIDTH 538 0
DWIDTH 7 0
BBX 1 13 3 -3
BITMAP
80
80
80
80
80
80
80
80
80
80
80
80
80
ENDCHAR
STARTCHAR 007D
ENCODING 125
SWIDTH 384 0
DWIDTH 5 0
BBX 5 11 0 -2
BITMAP
C0
20
20
20
20
18
20
20
20
20
C0
ENDCHAR
STARTCHAR 007E
ENCODING 126
SWIDTH 538 0
DWIDTH 7 0
BBX 6 2 1 4
BITMAP
E4
98
ENDCHAR
STARTCHAR 00A0
ENCODING 160
SWIDTH 230 0
DWIDTH 3 0
BBX 0 0 0 0
BITMAP
ENDCHAR
STARTCHAR 00A1
ENCODING 161
SWIDTH 307 0
DWIDTH 4 0
BBX 2 10 1 -3
BITMAP
C0
80
00
80
80
80
80
80
80
80
ENDCHAR
STARTCHAR 00A2
ENCODING 162
SWIDTH 538 0
DWIDTH 7 0
BBX 5 9 1 0
BITMAP
10
78
40
80
80
80
40
78
10
ENDCHAR
STARTCHAR 00A3
ENCODING 163
SWIDTH 538 0
DWIDTH 7 0
BBX 7 9 0 0
BITMAP
1E
20
20
20
FC
20
20
60
FE
ENDCHAR
STARTCHAR 00A5
ENCODING 165
SWIDTH 538 0
DWIDTH 7 0
BBX 7 9 0 0
BITMAP
C2
44
64
28
18
7C
7C
10
10
ENDCHAR
STARTCHAR 00A7
ENCODING 167
SWIDTH 538 0
DWIDTH 7 0
BBX 5 10 1 0
BITMAP
78
80
C0
70
88
88
70
18
08
F0
ENDCHAR
STARTCHAR 00A8
ENCODING 168
SWIDTH 615 0
DWIDTH 8 0
BBX 4 1 2 8
BITMAP
B0
ENDCHAR
STARTCHAR 00A9
ENCODING 169
SWIDTH 846 0
DWIDTH 11 0
BBX 9 10 1 0
BITMAP
3E00
4300
9C80
A080
A080
A080
A080
9C80
4300
3E00
ENDCHAR
STARTCHAR 00AA
ENCODING 170
SWIDTH 384 0
DWIDTH 5 0
BBX 4 5 0 5
BITMAP
70
10
70
90
70
ENDCHAR
STARTCHAR 00AB
ENCODING 171
SWIDTH 538 0
DWIDTH 7 0
BBX 5 5 1 1
BITMAP
68
D0
A0
90
68
ENDCHAR
STARTCHAR 00AE
ENCODING 174
SWIDTH 846 0
DWIDTH 11 0
BBX 9 10 1 0
BITMAP
3E00
4300
9C80
9480
9480
9C80
9480
9680
4300
3E00
ENDCHAR
STARTCHAR 00AF
ENCODING 175
SWIDTH 538 0
DWIDTH 7 0
BBX 7 1 0 10
BITMAP
FE
ENDCHAR
STARTCHAR 00B0
ENCODING 176
SWIDTH 461 0
DWIDTH 6 0
BBX 4 4 1 5
BITMAP
E0
90
90
E0
ENDCHAR
STARTCHAR 00B4
ENCODING 180
SWIDTH 307 0
DWIDTH 4 0
BBX 2 2 1 8
BITMAP
C0
80
ENDCHAR
STARTCHAR 00B6
ENCODING 182
SWIDTH 692 0
DWIDTH 9 0
BBX 6 11 1 -1
BITMAP
7C
F4
F4
F4
F4
F4
14
14
14
14
14
ENDCHAR
STARTCHAR 00B7
ENCODING 183
SWIDTH 230 0
DWIDTH 3 0
BBX 2 2 1 4
BITMAP
80
C0
ENDCHAR
STARTCHAR 00B8
ENCODING 184
SWIDTH 230 0
DWIDTH 3 0
BBX 3 3 0 -3
BITMAP
40
20
C0
ENDCHAR
STARTCHAR 00BA
ENCODING 186
SWIDTH 384 0
DWIDTH 5 0
BBX 4 5 0 5
BITMAP
70
90
90
90
70
ENDCHAR
STARTCHAR 00BB
ENCODING 187
SWIDTH 538 0
DWIDTH 7 0
BBX 6 5 0 1
BITMAP
D0
68
34
28
D8
ENDCHAR
STARTCHAR 00BF
ENCODING 191
SWIDTH 461 0
DWIDTH 6 0
BBX 5 10 0 -3
BITMAP
30
10
00
10
30
60
40
80
C8
78
ENDCHAR
STARTCHAR 00C0
ENCODING 192
SWIDTH 615 0
DWIDTH 8 0
BBX 8 12 0 0
BITMAP
30
08
00
18
18
14
24
24
7E
42
41
81
ENDCHAR
STARTCHAR 00C1
ENCODING 193
SWIDTH 615 0
DWIDTH 8 0
BBX 8 12 0 0
BITMAP
0C
18
00
18
18
14
24
24
7E
42
41
81
ENDCHAR
STARTCHAR 00C2
ENCODING 194
SWIDTH 615 0
DWIDTH 8 0
BBX 8 12 0 0
BITMAP
18
24
00
18
18
14
24
24
7E
42
41
81
ENDCHAR
STARTCHAR 00C3
ENCODING 195
SWIDTH 615 0
DWIDTH 8 0
BBX 8 12 0 0
BITMAP
32
2C
00
18
18
14
24
24
7E
42
41
81
ENDCHAR
STARTCHAR 00C4
ENCODING 196
SWIDTH 615 0
DWIDTH 8 0
BBX 8 11 0 0
BITMAP
34
00
18
18
14
24
24
7E
42
41
81
ENDCHAR
STARTCHAR 00C5
ENCODING 197
SWIDTH 615 0
DWIDTH 8 0
BBX 8 12 0 0
BITMAP
18
14
18
18
18
14
24
24
7E
42
41
81
ENDCHAR
STARTCHAR 00C6
ENCODING 198
SWIDTH 846 0
DWIDTH 11 0
BBX 11 9 0 0
BITMAP
0FE0
0A00
1200
1200
23C0
3E00
4200
4200
83E0
ENDCHAR
STARTCHAR 00C7
ENCODING 199
SWIDTH 615 0
DWIDTH 8 0
BBX 7 12 1 -3
BITMAP
3E
40
80
80
80
80
80
40
3C
10
08
18
ENDCHAR
STARTCHAR 00C8
ENCODING 200
SWIDTH 538 0
DWIDTH 7 0
BBX 5 12 1 0
BITMAP
60
10
00
F8
80
80
80
F8
80
80
80
F8
ENDCHAR
STARTCHAR 00C9
ENCODING 201
SWIDTH 538 0
DWIDTH 7 0
BBX 5 12 1 0
BITMAP
18
30
00
F8
80
80
80
F8
80
80
80
F8
ENDCHAR
STARTCHAR 00CA
ENCODING 202
SWIDTH 538 0
DWIDTH 7 0
BBX 5 12 1 0
BITMAP
30
48
00
F8
80
80
80
F8
80
80
80
F8
ENDCHAR
STARTCHAR 00CB
ENCODING 203
SWIDTH 538 0
DWIDTH 7 0
BBX 5 11 1 0
BITMAP
48
00
F8
80
80
80
F8
80
80
80
F8
ENDCHAR
STARTCHAR 00CC
ENCODING 204
SWIDTH 307 0
DWIDTH 4 0
BBX 3 12 1 0
BITMAP
80
40
00
E0
40
40
40
40
40
40
40
E0
ENDCHAR
STARTCHAR 00CD
ENCODING 205
SWIDTH 307 0
DWIDTH 4 0
BBX 3 12 1 0
BITMAP
60
40
00
E0
40
40
40
40
40
40
40
E0
ENDCHAR
STARTCHAR 00CE
ENCODING 206
SWIDTH 307 0
DWIDTH 4 0
BBX 4 12 0 0
BITMAP
60
90
00
70
20
20
20
20
20
20
20
70
ENDCHAR
STARTCHAR 00CF
ENCODING 207
SWIDTH 307 0
DWIDTH 4 0
BBX 4 11 0 0
BITMAP
D0
00
70
20
20
20
20
20
20
20
70
ENDCHAR
STARTCHAR 00D0
ENCODING 208
SWIDTH 692 0
DWIDTH 9 0
BBX 9 9 0 0
BITMAP
7E00
6300
6100
6180
F980
6180
6100
6300
7C00
ENDCHAR
STARTCHAR 00D1
ENCODING 209
SWIDTH 769 0
DWIDTH 10 0
BBX 8 12 1 0
BITMAP
34
4C
00
C1
E1
A1
91
99
89
85
85
83
ENDCHAR
STARTCHAR 00D2
ENCODING 210
SWIDTH 769 0
DWIDTH 10 0
BBX 8 12 1 0
BITMAP
30
08
00
3C
43
81
81
81
81
81
42
3C
ENDCHAR
STARTCHAR 00D3
ENCODING 211
SWIDTH 769 0
DWIDTH 10 0
BBX 8 12 1 0
BITMAP
0C
18
00
3C
43
81
81
81
81
81
42
3C
ENDCHAR
STARTCHAR 00D4
ENCODING 212
SWIDTH 769 0
DWIDTH 10 0
BBX 8 12 1 0
BITMAP
18
24
00
3C
43
81
81
81
81
81
42
3C
ENDCHAR
STARTCHAR 00D5
ENCODING 213
SWIDTH 769 0
DWIDTH 10 0
BBX 8 12 1 0
BITMAP
32
2C
00
3C
43
81
81
81
81
81
42
3C
ENDCHAR
STARTCHAR 00D6
ENCODING 214
SWIDTH 769 0
DWIDTH 10 0
BBX 8 11 1 0
BITMAP
24
00
3C
43
81
81
81
81
81
42
3C
ENDCHAR
STARTCHAR 00D7
ENCODING 215
SWIDTH 538 0
DWIDTH 7 0
BBX 6 5 1 2
BITMAP
8C
50
20
50
8C
ENDCHAR
STARTCHAR 00D8
ENCODING 216
SWIDTH 769 0
DWIDTH 10 0
BBX 8 9 1 0
BITMAP
3F
42
85
89
99
91
A1
42
FC
ENDCHAR
STARTCHAR 00D9
ENCODING 217
SWIDTH 769 0
DWIDTH 10 0
BBX 7 12 1 0
BITMAP
30
18
00
82
82
82
82
82
82
82
42
3C
ENDCHAR
STARTCHAR 00DA
ENCODING 218
SWIDTH 769 0
DWIDTH 10 0
BBX 7 12 1 0
BITMAP
0C
10
00
82
82
82
82
82
82
82
42
3C
ENDCHAR
STARTCHAR 00DB
ENCODING 219
SWIDTH 769 0
DWIDTH 10 0
BBX 7 12 1 0
BITMAP
18
2C
00
82
82
82
82
82
82
82
42
3C
ENDCHAR
STARTCHAR 00DC
ENCODING 220
SWIDTH 769 0
DWIDTH 10 0
BBX 7 11 1 0
BITMAP
2C
00
82
82
82
82
82
82
82
42
3C
ENDCHAR
STARTCHAR 00DD
ENCODING 221
SWIDTH 538 0
DWIDTH 7 0
BBX 7 12 0 0
BITMAP
0C
10
00
C2
46
64
28
38
10
10
10
10
ENDCHAR
STARTCHAR 00DE
ENCODING 222
SWIDTH 615 0
DWIDTH 8 0
BBX 6 9 1 0
BITMAP
80
F8
8C
84
84
8C
F8
80
80
ENDCHAR
STARTCHAR 00DF
ENCODING 223
SWIDTH 615 0
DWIDTH 8 0
BBX 7 10 1 0
BITMAP
78
84
8C
98
90
98
8C
86
86
BC
ENDCHAR
STARTCHAR 00E0
ENCODING 224
SWIDTH 538 0
DWIDTH 7 0
BBX 5 10 1 0
BITMAP
60
30
00
78
88
08
F8
88
88
F8
ENDCHAR
STARTCHAR 00E1
ENCODING 225
SWIDTH 538 0
DWIDTH 7 0
BBX 5 10 1 0
BITMAP
18
20
00
78
88
08
F8
88
88
F8
ENDCHAR
STARTCHAR 00E2
ENCODING 226
SWIDTH 538 0
DWIDTH 7 0
BBX 5 10 1 0
BITMAP
30
D8
00
78
88
08
F8
88
88
F8
ENDCHAR
STARTCHAR 00E3
ENCODING 227
SWIDTH 538 0
DWIDTH 7 0
BBX 5 10 1 0
BITMAP
68
98
00
78
88
08
F8
88
88
F8
ENDCHAR
STARTCHAR 00E4
ENCODING 228
SWIDTH 538 0
DWIDTH 7 0
BBX 5 9 1 0
BITMAP
50
00
78
88
08
F8
88
88
F8
ENDCHAR
STARTCHAR 00E5
ENCODING 229
SWIDTH 538 0
DWIDTH 7 0
BBX 5 11 1 0
BITMAP
30
50
30
00
78
88
08
F8
88
88
F8
ENDCHAR
STARTCHAR 00E6
ENCODING 230
SWIDTH 846 0
DWIDTH 11 0
BBX 10 7 1 0
BITMAP
F700
8C80
08C0
FFC0
8800
8C00
F780
ENDCHAR
STARTCHAR 00E7
ENCODING 231
SWIDTH 461 0
DWIDTH 6 0
BBX 5 10 1 -3
BITMAP
78
80
80
80
80
80
78
20
10
70
ENDCHAR
STARTCHAR 00E8
ENCODING 232
SWIDTH 538 0
DWIDTH 7 0
BBX 6 10 1 0
BITMAP
60
30
00
70
88
8C
FC
80
80
78
ENDCHAR
STARTCHAR 00E9
ENCODING 233
SWIDTH 538 0
DWIDTH 7 0
BBX 6 10 1 0
BITMAP
18
20
00
70
88
8C
FC
80
80
78
ENDCHAR
STARTCHAR 00EA
ENCODING 234
SWIDTH 538 0
DWIDTH 7 0
BBX 6 10 1 0
BITMAP
30
D8
00
70
88
8C
FC
80
80
78
ENDCHAR
STARTCHAR 00EB
ENCODING 235
SWIDTH 538 0
DWIDTH 7 0
BBX 6 9 1 0
BITMAP
58
00
70
88
8C
FC
80
80
78
ENDCHAR
STARTCHAR 00EC
ENCODING 236
SWIDTH 230 0
DWIDTH 3 0
BBX 3 10 0 0
BITMAP
C0
60
00
40
40
40
40
40
40
40
ENDCHAR
STARTCHAR 00ED
ENCODING 237
SWIDTH 230 0
DWIDTH 3 0
BBX 3 10 1 0
BITMAP
60
80
00
80
80
80
80
80
80
80
ENDCHAR
STARTCHAR 00EE
ENCODING 238
SWIDTH 230 0
DWIDTH 3 0
BBX 5 10 -1 0
BITMAP
30
D8
00
20
20
20
20
20
20
20
ENDCHAR
STARTCHAR 00EF
ENCODING 239
SWIDTH 230 0
DWIDTH 3 0
BBX 4 9 0 0
BITMAP
B0
00
40
40
40
40
40
40
40
ENDCHAR
STARTCHAR 00F0
ENCODING 240
SWIDTH 615 0
DWIDTH 8 0
BBX 6 10 1 0
BITMAP
48
38
78
08
7C
8C
84
84
8C
78
ENDCHAR
STARTCHAR 00F1
ENCODING 241
SWIDTH 615 0
DWIDTH 8 0
BBX 6 10 1 0
BITMAP
68
58
00
B8
C4
84
84
84
84
84
ENDCHAR
STARTCHAR 00F2
ENCODING 242
SWIDTH 615 0
DWIDTH 8 0
BBX 6 10 1 0
BITMAP
60
10
00
78
8C
84
84
84
8C
78
ENDCHAR
STARTCHAR 00F3
ENCODING 243
SWIDTH 615 0
DWIDTH 8 0
BBX 6 10 1 0
BITMAP
18
30
00
78
8C
84
84
84
8C
78
ENDCHAR
STARTCHAR 00F4
ENCODING 244
SWIDTH 615 0
DWIDTH 8 0
BBX 6 10 1 0
BITMAP
30
48
00
78
8C
84
84
84
8C
78
ENDCHAR
STARTCHAR 00F5
ENCODING 245
SWIDTH 615 0
DWIDTH 8 0
BBX 6 10 1 0
BITMAP
68
98
00
78
8C
84
84
84
8C
78
ENDCHAR
STARTCHAR 00F6
ENCODING 246
SWIDTH 615 0
DWIDTH 8 0
BBX 6 9 1 0
BITMAP
48
00
78
8C
84
84
84
8C
78
ENDCHAR
STARTCHAR 00F7
ENCODING 247
SWIDTH 538 0
DWIDTH 7 0
BBX 6 6 1 2
BITMAP
20
00
FC
00
00
20
ENDCHAR
STARTCHAR 00F8
ENCODING 248
SWIDTH 615 0
DWIDTH 8 0
BBX 6 7 1 0
BITMAP
7C
8C
94
B4
A4
CC
F8
ENDCHAR
STARTCHAR 00F9
ENCODING 249
SWIDTH 615 0
DWIDTH 8 0
BBX 6 10 1 0
BITMAP
60
10
00
84
84
84
84
84
8C
74
ENDCHAR
STARTCHAR 00FA
ENCODING 250
SWIDTH 615 0
DWIDTH 8 0
BBX 6 10 1 0
BITMAP
18
30
00
84
84
84
84
84
8C
74
ENDCHAR
STARTCHAR 00FB
ENCODING 251
SWIDTH 615 0
DWIDTH 8 0
BBX 6 10 1 0
BITMAP
30
48
00
84
84
84
84
84
8C
74
ENDCHAR
STARTCHAR 00FC
ENCODING 252
SWIDTH 615 0
DWIDTH 8 0
BBX 6 9 1 0
BITMAP
48
00
84
84
84
84
84
8C
74
ENDCHAR
STARTCHAR 00FD
ENCODING 253
SWIDTH 538 0
DWIDTH 7 0
BBX 7 13 0 -3
BITMAP
08
10
00
86
44
4C
68
28
38
10
10
20
E0
ENDCHAR
STARTCHAR 00FE
ENCODING 254
SWIDTH 615 0
DWIDTH 8 0
BBX 6 13 1 -3
BITMAP
80
80
80
B8
C4
84
84
84
C4
B8
80
80
80
ENDCHAR
STARTCHAR 00FF
ENCODING 255
SWIDTH 538 0
DWIDTH 7 0
BBX 7 12 0 -3
BITMAP
68
00
86
44
4C
68
28
38
10
10
20
E0
ENDCHAR
STARTCHAR 0100
ENCODING 256
SWIDTH 615 0
DWIDTH 8 0
BBX 8 11 0 0
BITMAP
3C
00
18
18
14
24
24
7E
42
41
81
ENDCHAR
STARTCHAR 0101
ENCODING 257
SWIDTH 538 0
DWIDTH 7 0
BBX 5 9 1 0
BITMAP
78
00
78
88
08
F8
88
88
F8
ENDCHAR
STARTCHAR 0102
ENCODING 258
SWIDTH 615 0
DWIDTH 8 0
BBX 8 12 0 0
BITMAP
24
1C
00
18
18
14
24
24
7E
42
41
81
ENDCHAR
STARTCHAR 0103
ENCODING 259
SWIDTH 538 0
DWIDTH 7 0
BBX 5 10 1 0
BITMAP
88
70
00
78
88
08
F8
88
88
F8
ENDCHAR
STARTCHAR 0104
ENCODING 260
SWIDTH 615 0
DWIDTH 8 0
BBX 8 12 0 -3
BITMAP
18
18
14
24
24
7E
42
41
81
01
02
03
ENDCHAR
STARTCHAR 0105
ENCODING 261
SWIDTH 538 0
DWIDTH 7 0
BBX 6 10 1 -3
BITMAP
78
88
08
F8
88
88
F8
08
10
0C
ENDCHAR
STARTCHAR 0106
ENCODING 262
SWIDTH 615 0
DWIDTH 8 0
BBX 7 12 1 0
BITMAP
0C
18
00
3E
40
80
80
80
80
80
40
3C
ENDCHAR
STARTCHAR 0107
ENCODING 263
SWIDTH 461 0
DWIDTH 6 0
BBX 5 10 1 0
BITMAP
18
20
00
78
80
80
80
80
80
78
ENDCHAR
STARTCHAR 010A
ENCODING 266
SWIDTH 615 0
DWIDTH 8 0
BBX 7 11 1 0
BITMAP
18
00
3E
40
80
80
80
80
80
40
3C
ENDCHAR
STARTCHAR 010B
ENCODING 267
SWIDTH 461 0
DWIDTH 6 0
BBX 5 9 1 0
BITMAP
20
00
78
80
80
80
80
80
78
ENDCHAR
STARTCHAR 010C
ENCODING 268
SWIDTH 615 0
DWIDTH 8 0
BBX 7 12 1 0
BITMAP
24
18
00
3E
40
80
80
80
80
80
40
3C
ENDCHAR
STARTCHAR 010D
ENCODING 269
SWIDTH 461 0
DWIDTH 6 0
BBX 5 10 1 0
BITMAP
D8
30
00
78
80
80
80
80
80
78
ENDCHAR
STARTCHAR 010E
ENCODING 270
SWIDTH 692 0
DWIDTH 9 0
BBX 8 12 1 0
BITMAP
6C
18
00
FC
86
82
83
83
83
82
86
F8
ENDCHAR
STARTCHAR 010F
ENCODING 271
SWIDTH 615 0
DWIDTH 8 0
BBX 8 10 1 0
BITMAP
05
06
04
74
8C
84
84
84
8C
74
ENDCHAR
STARTCHAR 0110
ENCODING 272
SWIDTH 692 0
DWIDTH 9 0
BBX 9 9 0 0
BITMAP
7E00
6300
6100
6180
F980
6180
6100
6300
7C00
ENDCHAR
STARTCHAR 0111
ENCODING 273
SWIDTH 615 0
DWIDTH 8 0
BBX 7 10 1 0
BITMAP
04
3E
04
74
8C
84
84
84
8C
74
ENDCHAR
STARTCHAR 0112
ENCODING 274
SWIDTH 538 0
DWIDTH 7 0
BBX 5 11 1 0
BITMAP
78
00
F8
80
80
80
F8
80
80
80
F8
ENDCHAR
STARTCHAR 0113
ENCODING 275
SWIDTH 538 0
DWIDTH 7 0
BBX 6 9 1 0
BITMAP
78
00
70
88
8C
FC
80
80
78
ENDCHAR
STARTCHAR 0116
ENCODING 278
SWIDTH 538 0
DWIDTH 7 0
BBX 5 11 1 0
BITMAP
30
00
F8
80
80
80
F8
80
80
80
F8
ENDCHAR
STARTCHAR 0117
ENCODING 279
SWIDTH 538 0
DWIDTH 7 0
BBX 6 9 1 0
BITMAP
20
00
70
88
8C
FC
80
80
78
ENDCHAR
STARTCHAR 0118
ENCODING 280
SWIDTH 538 0
DWIDTH 7 0
BBX 5 12 1 -3
BITMAP
F8
80
80
80
F8
80
80
80
F8
08
10
18
ENDCHAR
STARTCHAR 0119
ENCODING 281
SWIDTH 538 0
DWIDTH 7 0
BBX 6 10 1 -3
BITMAP
70
88
8C
FC
80
80
78
10
10
18
ENDCHAR
STARTCHAR 011A
ENCODING 282
SWIDTH 538 0
DWIDTH 7 0
BBX 5 12 1 0
BITMAP
48
30
00
F8
80
80
80
F8
80
80
80
F8
ENDCHAR
STARTCHAR 011B
ENCODING 283
SWIDTH 538 0
DWIDTH 7 0
BBX 6 10 1 0
BITMAP
D8
30
00
70
88
8C
FC
80
80
78
ENDCHAR
STARTCHAR 011E
ENCODING 286
SWIDTH 692 0
DWIDTH 9 0
BBX 8 12 1 0
BITMAP
24
1C
00
3E
40
80
80
8F
83
83
43
3F
ENDCHAR
STARTCHAR 011F
ENCODING 287
SWIDTH 615 0
DWIDTH 8 0
BBX 6 13 1 -3
BITMAP
48
70
00
74
8C
84
84
84
8C
74
04
0C
F8
ENDCHAR
STARTCHAR 0120
ENCODING 288
SWIDTH 692 0
DWIDTH 9 0
BBX 8 11 1 0
BITMAP
08
00
3E
40
80
80
8F
83
83
43
3F
ENDCHAR
STARTCHAR 0121
ENCODING 289
SWIDTH 615 0
DWIDTH 8 0
BBX 6 12 1 -3
BITMAP
30
00
74
8C
84
84
84
8C
74
04
0C
F8
ENDCHAR
STARTCHAR 0122
ENCODING 290
SWIDTH 692 0
DWIDTH 9 0
BBX 8 12 1 -3
BITMAP
3E
40
80
80
8F
83
83
43
3F
00
08
10
ENDCHAR
STARTCHAR 0123
ENCODING 291
SWIDTH 615 0
DWIDTH 8 0
BBX 6 13 1 -3
BITMAP
10
20
00
74
8C
84
84
84
8C
74
04
0C
F8
ENDCHAR
STARTCHAR 0126
ENCODING 294
SWIDTH 769 0
DWIDTH 10 0
BBX 10 9 0 0
BITMAP
4100
FFC0
4100
4100
7F00
4100
4100
4100
4100
ENDCHAR
STARTCHAR 0127
ENCODING 295
SWIDTH 615 0
DWIDTH 8 0
BBX 7 10 0 0
BITMAP
40
F8
40
5C
62
42
42
42
42
42
ENDCHAR
STARTCHAR 012A
ENCODING 298
SWIDTH 307 0
DWIDTH 4 0
BBX 4 11 0 0
BITMAP
F0
00
70
20
20
20
20
20
20
20
70
ENDCHAR
STARTCHAR 012B
ENCODING 299
SWIDTH 230 0
DWIDTH 3 0
BBX 4 9 0 0
BITMAP
F0
00
40
40
40
40
40
40
40
ENDCHAR
STARTCHAR 012E
ENCODING 302
SWIDTH 307 0
DWIDTH 4 0
BBX 3 12 1 -3
BITMAP
E0
40
40
40
40
40
40
40
E0
40
40
60
ENDCHAR
STARTCHAR 012F
ENCODING 303
SWIDTH 230 0
DWIDTH 3 0
BBX 3 13 0 -3
BITMAP
40
00
00
40
40
40
40
40
40
40
40
80
60
ENDCHAR
STARTCHAR 0130
ENCODING 304
SWIDTH 307 0
DWIDTH 4 0
BBX 3 11 1 0
BITMAP
40
00
E0
40
40
40
40
40
40
40
E0
ENDCHAR
STARTCHAR 0131
ENCODING 305
SWIDTH 230 0
DWIDTH 3 0
BBX 1 7 1 0
BITMAP
80
80
80
80
80
80
80
ENDCHAR
STARTCHAR 0132
ENCODING 306
SWIDTH 615 0
DWIDTH 8 0
BBX 6 12 1 -3
BITMAP
E4
44
44
44
44
44
44
44
E4
04
0C
38
ENDCHAR
STARTCHAR 0133
ENCODING 307
SWIDTH 538 0
DWIDTH 7 0
BBX 5 13 1 -3
BITMAP
98
00
00
98
98
98
98
98
98
98
18
18
30
ENDCHAR
STARTCHAR 0136
ENCODING 310
SWIDTH 615 0
DWIDTH 8 0
BBX 7 12 1 -3
BITMAP
86
8C
98
B0
F0
D0
88
84
86
00
10
30
ENDCHAR
STARTCHAR 0137
ENCODING 311
SWIDTH 538 0
DWIDTH 7 0
BBX 6 13 1 -3
BITMAP
80
80
80
8C
90
A0
E0
90
98
8C
00
20
20
ENDCHAR
STARTCHAR 0139
ENCODING 313
SWIDTH 538 0
DWIDTH 7 0
BBX 5 12 1 0
BITMAP
60
80
00
80
80
80
80
80
80
80
80
F8
ENDCHAR
STARTCHAR 013A
ENCODING 314
SWIDTH 230 0
DWIDTH 3 0
BBX 3 13 1 0
BITMAP
60
80
00
80
80
80
80
80
80
80
80
80
80
ENDCHAR
STARTCHAR 013B
ENCODING 315
SWIDTH 538 0
DWIDTH 7 0
BBX 5 12 1 -3
BITMAP
80
80
80
80
80
80
80
80
F8
00
30
20
ENDCHAR
STARTCHAR 013C
ENCODING 316
SWIDTH 230 0
DWIDTH 3 0
BBX 2 13 1 -3
BITMAP
80
80
80
80
80
80
80
80
80
80
00
C0
80
ENDCHAR
STARTCHAR 013D
ENCODING 317
SWIDTH 538 0
DWIDTH 7 0
BBX 5 9 1 0
BITMAP
88
88
80
80
80
80
80
80
F8
ENDCHAR
STARTCHAR 013E
ENCODING 318
SWIDTH 230 0
DWIDTH 3 0
BBX 3 10 1 0
BITMAP
A0
A0
80
80
80
80
80
80
80
80
ENDCHAR
STARTCHAR 0141
ENCODING 321
SWIDTH 538 0
DWIDTH 7 0
BBX 6 9 0 0
BITMAP
40
40
40
48
70
C0
40
40
7C
ENDCHAR
STARTCHAR 0142
ENCODING 322
SWIDTH 230 0
DWIDTH 3 0
BBX 3 10 0 0
BITMAP
40
40
40
40
60
40
C0
40
40
40
ENDCHAR
STARTCHAR 0143
ENCODING 323
SWIDTH 769 0
DWIDTH 10 0
BBX 8 12 1 0
BITMAP
0C
18
00
C1
E1
A1
91
99
89
85
85
83
ENDCHAR
STARTCHAR 0144
ENCODING 324
SWIDTH 615 0
DWIDTH 8 0
BBX 6 10 1 0
BITMAP
18
30
00
B8
C4
84
84
84
84
84
ENDCHAR
STARTCHAR 0145
ENCODING 325
SWIDTH 769 0
DWIDTH 10 0
BBX 8 12 1 -3
BITMAP
C1
E1
A1
91
99
89
85
85
83
00
08
10
ENDCHAR
STARTCHAR 0146
ENCODING 326
SWIDTH 615 0
DWIDTH 8 0
BBX 6 10 1 -3
BITMAP
B8
C4
84
84
84
84
84
00
10
20
ENDCHAR
STARTCHAR 0147
ENCODING 327
SWIDTH 769 0
DWIDTH 10 0
BBX 8 12 1 0
BITMAP
24
18
00
C1
E1
A1
91
99
89
85
85
83
ENDCHAR
STARTCHAR 0148
ENCODING 328
SWIDTH 615 0
DWIDTH 8 0
BBX 6 10 1 0
BITMAP
48
30
00
B8
C4
84
84
84
84
84
ENDCHAR
STARTCHAR 014A
ENCODING 330
SWIDTH 769 0
DWIDTH 10 0
BBX 8 11 1 -2
BITMAP
C1
E1
A1
91
99
89
85
83
83
03
0E
ENDCHAR
STARTCHAR 014B
ENCODING 331
SWIDTH 615 0
DWIDTH 8 0
BBX 6 10 1 -3
BITMAP
B8
C4
84
84
84
84
84
04
04
1C
ENDCHAR
STARTCHAR 014C
ENCODING 332
SWIDTH 769 0
DWIDTH 10 0
BBX 8 11 1 0
BITMAP
3C
00
3C
43
81
81
81
81
81
42
3C
ENDCHAR
STARTCHAR 014D
ENCODING 333
SWIDTH 615 0
DWIDTH 8 0
BBX 6 9 1 0
BITMAP
78
00
78
8C
84
84
84
8C
78
ENDCHAR
STARTCHAR 0150
ENCODING 336
SWIDTH 769 0
DWIDTH 10 0
BBX 8 12 1 0
BITMAP
14
28
00
3C
43
81
81
81
81
81
42
3C
ENDCHAR
STARTCHAR 0151
ENCODING 337
SWIDTH 615 0
DWIDTH 8 0
BBX 6 10 1 0
BITMAP
68
50
00
78
8C
84
84
84
8C
78
ENDCHAR
STARTCHAR 0152
ENCODING 338
SWIDTH 923 0
DWIDTH 12 0
BBX 10 9 1 0
BITMAP
3FC0
4600
8600
8600
87C0
8600
8600
4600
3FC0
ENDCHAR
STARTCHAR 0153
ENCODING 339
SWIDTH 923 0
DWIDTH 12 0
BBX 11 7 1 0
BITMAP
7B80
8E40
8460
87E0
8400
8E00
7BC0
ENDCHAR
STARTCHAR 0154
ENCODING 340
SWIDTH 615 0
DWIDTH 8 0
BBX 7 12 1 0
BITMAP
18
30
00
F8
84
84
84
F8
88
88
84
86
ENDCHAR
STARTCHAR 0155
ENCODING 341
SWIDTH 384 0
DWIDTH 5 0
BBX 4 10 1 0
BITMAP
30
60
00
B0
C0
80
80
80
80
80
ENDCHAR
STARTCHAR 0156
ENCODING 342
SWIDTH 615 0
DWIDTH 8 0
BBX 7 12 1 -3
BITMAP
F8
84
84
84
F8
88
88
84
86
00
10
20
ENDCHAR
STARTCHAR 0157
ENCODING 343
SWIDTH 384 0
DWIDTH 5 0
BBX 4 10 1 -3
BITMAP
B0
C0
80
80
80
80
80
00
80
80
ENDCHAR
STARTCHAR 0158
ENCODING 344
SWIDTH 615 0
DWIDTH 8 0
BBX 7 12 1 0
BITMAP
48
30
00
F8
84
84
84
F8
88
88
84
86
ENDCHAR
STARTCHAR 0159
ENCODING 345
SWIDTH 384 0
DWIDTH 5 0
BBX 4 10 1 0
BITMAP
90
60
00
B0
C0
80
80
80
80
80
ENDCHAR
STARTCHAR 015A
ENCODING 346
SWIDTH 538 0
DWIDTH 7 0
BBX 6 12 1 0
BITMAP
18
20
00
78
80
80
C0
70
08
0C
08
F0
ENDCHAR
STARTCHAR 015B
ENCODING 347
SWIDTH 461 0
DWIDTH 6 0
BBX 5 10 1 0
BITMAP
30
60
00
F8
80
80
70
18
18
F0
ENDCHAR
STARTCHAR 015E
ENCODING 350
SWIDTH 538 0
DWIDTH 7 0
BBX 6 12 1 -3
BITMAP
78
80
80
C0
70
08
0C
08
F0
20
10
60
ENDCHAR
STARTCHAR 015F
ENCODING 351
SWIDTH 461 0
DWIDTH 6 0
BBX 5 10 1 -3
BITMAP
F8
80
80
70
18
18
F0
40
20
60
ENDCHAR
STARTCHAR 0160
ENCODING 352
SWIDTH 538 0
DWIDTH 7 0
BBX 6 12 1 0
BITMAP
D8
30
00
78
80
80
C0
70
08
0C
08
F0
ENDCHAR
STARTCHAR 0161
ENCODING 353
SWIDTH 461 0
DWIDTH 6 0
BBX 5 10 1 0
BITMAP
90
60
00
F8
80
80
70
18
18
F0
ENDCHAR
STARTCHAR 0164
ENCODING 356
SWIDTH 538 0
DWIDTH 7 0
BBX 7 12 0 0
BITMAP
6C
18
00
FE
10
10
10
10
10
10
10
10
ENDCHAR
STARTCHAR 0165
ENCODING 357
SWIDTH 384 0
DWIDTH 5 0
BBX 6 10 0 0
BITMAP
04
44
40
F0
40
40
40
40
40
30
ENDCHAR
STARTCHAR 016A
ENCODING 362
SWIDTH 769 0
DWIDTH 10 0
BBX 7 11 1 0
BITMAP
3C
00
82
82
82
82
82
82
82
42
3C
ENDCHAR
STARTCHAR 016B
ENCODING 363
SWIDTH 615 0
DWIDTH 8 0
BBX 6 9 1 0
BITMAP
78
00
84
84
84
84
84
8C
74
ENDCHAR
STARTCHAR 016C
ENCODING 364
SWIDTH 769 0
DWIDTH 10 0
BBX 7 12 1 0
BITMAP
24
38
00
82
82
82
82
82
82
82
42
3C
ENDCHAR
STARTCHAR 016D
ENCODING 365
SWIDTH 615 0
DWIDTH 8 0
BBX 6 10 1 0
BITMAP
48
78
00
84
84
84
84
84
8C
74
ENDCHAR
STARTCHAR 016E
ENCODING 366
SWIDTH 769 0
DWIDTH 10 0
BBX 7 13 1 0
BITMAP
18
28
18
00
82
82
82
82
82
82
82
42
3C
ENDCHAR
STARTCHAR 016F
ENCODING 367
SWIDTH 615 0
DWIDTH 8 0
BBX 6 11 1 0
BITMAP
30
48
30
00
84
84
84
84
84
8C
74
ENDCHAR
STARTCHAR 0170
ENCODING 368
SWIDTH 769 0
DWIDTH 10 0
BBX 7 12 1 0
BITMAP
34
68
00
82
82
82
82
82
82
82
42
3C
ENDCHAR
STARTCHAR 0171
ENCODING 369
SWIDTH 615 0
DWIDTH 8 0
BBX 6 10 1 0
BITMAP
28
50
00
84
84
84
84
84
8C
74
ENDCHAR
STARTCHAR 0172
ENCODING 370
SWIDTH 769 0
DWIDTH 10 0
BBX 7 12 1 -3
BITMAP
82
82
82
82
82
82
82
42
3C
08
08
0C
ENDCHAR
STARTCHAR 0173
ENCODING 371
SWIDTH 615 0
DWIDTH 8 0
BBX 6 10 1 -3
BITMAP
84
84
84
84
84
8C
74
08
08
0C
ENDCHAR
STARTCHAR 0174
ENCODING 372
SWIDTH 923 0
DWIDTH 12 0
BBX 12 12 0 0
BITMAP
0600
0900
0000
C610
4630
4620
4920
6920
2940
39C0
30C0
30C0
ENDCHAR
STARTCHAR 0175
ENCODING 373
SWIDTH 769 0
DWIDTH 10 0
BBX 10 10 0 0
BITMAP
0C00
1200
0000
8C40
4C40
4E80
5280
5280
3280
3100
ENDCHAR
STARTCHAR 0176
ENCODING 374
SWIDTH 538 0
DWIDTH 7 0
BBX 7 12 0 0
BITMAP
18
6C
00
C2
46
64
28
38
10
10
10
10
ENDCHAR
STARTCHAR 0177
ENCODING 375
SWIDTH 538 0
DWIDTH 7 0
BBX 7 13 0 -3
BITMAP
30
6C
00
86
44
4C
68
28
38
10
10
20
E0
ENDCHAR
STARTCHAR 0178
ENCODING 376
SWIDTH 538 0
DWIDTH 7 0
BBX 7 11 0 0
BITMAP
2C
00
C2
46
64
28
38
10
10
10
10
ENDCHAR
STARTCHAR 0179
ENCODING 377
SWIDTH 538 0
DWIDTH 7 0
BBX 7 12 0 0
BITMAP
0C
10
00
7E
04
0C
08
10
30
20
40
FE
ENDCHAR
STARTCHAR 017A
ENCODING 378
SWIDTH 461 0
DWIDTH 6 0
BBX 6 10 0 0
BITMAP
18
30
00
7C
08
10
30
20
40
FC
ENDCHAR
STARTCHAR 017B
ENCODING 379
SWIDTH 538 0
DWIDTH 7 0
BBX 7 11 0 0
BITMAP
10
00
7E
04
0C
08
10
30
20
40
FE
ENDCHAR
STARTCHAR 017C
ENCODING 380
SWIDTH 461 0
DWIDTH 6 0
BBX 6 9 0 0
BITMAP
30
00
7C
08
10
30
20
40
FC
ENDCHAR
STARTCHAR 017D
ENCODING 381
SWIDTH 538 0
DWIDTH 7 0
BBX 7 12 0 0
BITMAP
2C
18
00
7E
04
0C
08
10
30
20
40
FE
ENDCHAR
STARTCHAR 017E
ENCODING 382
SWIDTH 461 0
DWIDTH 6 0
BBX 6 10 0 0
BITMAP
48
30
00
7C
08
10
30
20
40
FC
ENDCHAR
STARTCHAR 01CD
ENCODING 461
SWIDTH 615 0
DWIDTH 8 0
BBX 8 12 0 0
BITMAP
24
18
00
18
18
14
24
24
7E
42
41
81
ENDCHAR
STARTCHAR 01CE
ENCODING 462
SWIDTH 538 0
DWIDTH 7 0
BBX 5 10 1 0
BITMAP
D8
30
00
78
88
08
F8
88
88
F8
ENDCHAR
STARTCHAR 0218
ENCODING 536
SWIDTH 538 0
DWIDTH 7 0
BBX 6 12 1 -3
BITMAP
78
80
80
C0
70
08
0C
08
F0
00
20
20
ENDCHAR
STARTCHAR 0219
ENCODING 537
SWIDTH 461 0
DWIDTH 6 0
BBX 5 10 1 -3
BITMAP
F8
80
80
70
18
18
F0
00
20
40
ENDCHAR
STARTCHAR 021A
ENCODING 538
SWIDTH 538 0
DWIDTH 7 0
BBX 7 12 0 -3
BITMAP
FE
10
10
10
10
10
10
10
10
00
10
10
ENDCHAR
STARTCHAR 021B
ENCODING 539
SWIDTH 384 0
DWIDTH 5 0
BBX 4 12 0 -3
BITMAP
40
40
F0
40
40
40
40
40
30
00
30
20
ENDCHAR
STARTCHAR 0237
ENCODING 567
SWIDTH 230 0
DWIDTH 3 0
BBX 3 10 -1 -3
BITMAP
20
20
20
20
20
20
20
20
20
E0
ENDCHAR
STARTCHAR 02C6
ENCODING 710
SWIDTH 384 0
DWIDTH 5 0
BBX 4 2 1 8
BITMAP
60
B0
ENDCHAR
STARTCHAR 02C7
ENCODING 711
SWIDTH 384 0
DWIDTH 5 0
BBX 4 2 1 8
BITMAP
B0
60
ENDCHAR
STARTCHAR 02C9
ENCODING 713
SWIDTH 384 0
DWIDTH 5 0
BBX 3 1 1 8
BITMAP
E0
ENDCHAR
STARTCHAR 02D8
ENCODING 728
SWIDTH 384 0
DWIDTH 5 0
BBX 4 2 1 8
BITMAP
90
E0
ENDCHAR
STARTCHAR 02D9
ENCODING 729
SWIDTH 153 0
DWIDTH 2 0
BBX 1 1 1 8
BITMAP
80
ENDCHAR
STARTCHAR 02DA
ENCODING 730
SWIDTH 307 0
DWIDTH 4 0
BBX 2 3 1 8
BITMAP
C0
C0
C0
ENDCHAR
STARTCHAR 02DB
ENCODING 731
SWIDTH 230 0
DWIDTH 3 0
BBX 2 3 1 -3
BITMAP
80
80
C0
ENDCHAR
STARTCHAR 02DC
ENCODING 732
SWIDTH 461 0
DWIDTH 6 0
BBX 4 2 1 8
BITMAP
D0
B0
ENDCHAR
STARTCHAR 02DD
ENCODING 733
SWIDTH 461 0
DWIDTH 6 0
BBX 4 2 1 8
BITMAP
D0
A0
ENDCHAR
STARTCHAR 0300
ENCODING 768
SWIDTH 0 0
DWIDTH 0 0
BBX 2 2 -6 8
BITMAP
80
40
ENDCHAR
STARTCHAR 0301
ENCODING 769
SWIDTH 0 0
DWIDTH 0 0
BBX 2 2 -4 8
BITMAP
40
80
ENDCHAR
STARTCHAR 0302
ENCODING 770
SWIDTH 0 0
DWIDTH 0 0
BBX 4 2 -2 8
BITMAP
60
90
ENDCHAR
STARTCHAR 0303
ENCODING 771
SWIDTH 0 0
DWIDTH 0 0
BBX 4 2 -6 8
BITMAP
D0
B0
ENDCHAR
STARTCHAR 0304
ENCODING 772
SWIDTH 0 0
DWIDTH 0 0
BBX 4 1 -2 8
BITMAP
F0
ENDCHAR
STARTCHAR 0306
ENCODING 774
SWIDTH 0 0
DWIDTH 0 0
BBX 4 2 -2 8
BITMAP
90
F0
ENDCHAR
STARTCHAR 0307
ENCODING 775
SWIDTH 0 0
DWIDTH 0 0
BBX 2 1 -1 8
BITMAP
C0
ENDCHAR
STARTCHAR 0308
ENCODING 776
SWIDTH 0 0
DWIDTH 0 0
BBX 4 1 -2 8
BITMAP
90
ENDCHAR
STARTCHAR 030A
ENCODING 778
SWIDTH 0 0
DWIDTH 0 0
BBX 2 3 -1 8
BITMAP
C0
C0
C0
ENDCHAR
STARTCHAR 030B
ENCODING 779
SWIDTH 0 0
DWIDTH 0 0
BBX 5 2 -2 8
BITMAP
68
D0
ENDCHAR
STARTCHAR 030C
ENCODING 780
SWIDTH 0 0
DWIDTH 0 0
BBX 4 2 -2 8
BITMAP
90
60
ENDCHAR
STARTCHAR 0312
ENCODING 786
SWIDTH 0 0
DWIDTH 0 0
BBX 2 3 -1 6
BITMAP
40
C0
80
ENDCHAR
STARTCHAR 0326
ENCODING 806
SWIDTH 0 0
DWIDTH 0 0
BBX 2 2 -1 -3
BITMAP
40
80
ENDCHAR
STARTCHAR 0327
ENCODING 807
SWIDTH 0 0
DWIDTH 0 0
BBX 2 3 -1 -3
BITMAP
C0
40
C0
ENDCHAR
STARTCHAR 0328
ENCODING 808
SWIDTH 0 0
DWIDTH 0 0
BBX 2 3 -1 -3
BITMAP
C0
80
C0
ENDCHAR
STARTCHAR 1680
ENCODING 5760
SWIDTH 461 0
DWIDTH 6 0
BBX 6 1 0 3
BITMAP
FC
ENDCHAR
STARTCHAR 1681
ENCODING 5761
SWIDTH 307 0
DWIDTH 4 0
BBX 4 6 0 -2
BITMAP
F0
40
40
40
40
40
ENDCHAR
STARTCHAR 1682
ENCODING 5762
SWIDTH 461 0
DWIDTH 6 0
BBX 6 6 0 -2
BITMAP
FC
50
50
50
50
50
ENDCHAR
STARTCHAR 1683
ENCODING 5763
SWIDTH 615 0
DWIDTH 8 0
BBX 8 6 0 -2
BITMAP
FF
54
54
54
54
54
ENDCHAR
STARTCHAR 1684
ENCODING 5764
SWIDTH 769 0
DWIDTH 10 0
BBX 10 6 0 -2
BITMAP
FFC0
5500
5500
5500
5500
5500
ENDCHAR
STARTCHAR 1685
ENCODING 5765
SWIDTH 846 0
DWIDTH 11 0
BBX 12 6 0 -2
BITMAP
FFF0
5540
5540
5540
5540
5540
ENDCHAR
STARTCHAR 1686
ENCODING 5766
SWIDTH 307 0
DWIDTH 4 0
BBX 4 6 0 3
BITMAP
40
40
40
40
40
F0
ENDCHAR
STARTCHAR 1687
ENCODING 5767
SWIDTH 461 0
DWIDTH 6 0
BBX 6 6 0 3
BITMAP
50
50
50
50
50
FC
ENDCHAR
STARTCHAR 1688
ENCODING 5768
SWIDTH 615 0
DWIDTH 8 0
BBX 8 6 0 3
BITMAP
54
54
54
54
54
FF
ENDCHAR
STARTCHAR 1689
ENCODING 5769
SWIDTH 769 0
DWIDTH 10 0
BBX 10 6 0 3
BITMAP
5500
5500
5500
5500
5500
FFC0
ENDCHAR
STARTCHAR 168A
ENCODING 5770
SWIDTH 846 0
DWIDTH 11 0
BBX 12 6 0 3
BITMAP
5540
5540
5540
5540
5540
FFF0
ENDCHAR
STARTCHAR 168B
ENCODING 5771
SWIDTH 307 0
DWIDTH 4 0
BBX 4 11 0 -2
BITMAP
10
20
20
20
20
F0
40
40
40
80
80
ENDCHAR
STARTCHAR 168C
ENCODING 5772
SWIDTH 461 0
DWIDTH 6 0
BBX 6 11 0 -2
BITMAP
14
28
28
28
28
FC
50
50
50
A0
A0
ENDCHAR
STARTCHAR 168D
ENCODING 5773
SWIDTH 615 0
DWIDTH 8 0
BBX 8 11 0 -2
BITMAP
16
2A
2A
2A
2C
FF
54
54
58
A8
A8
ENDCHAR
STARTCHAR 168E
ENCODING 5774
SWIDTH 769 0
DWIDTH 10 0
BBX 10 11 0 -2
BITMAP
1680
2A80
2A80
2A80
2D00
FFC0
5500
5500
5A00
AA00
AA00
ENDCHAR
STARTCHAR 168F
ENCODING 5775
SWIDTH 846 0
DWIDTH 11 0
BBX 12 11 0 -2
BITMAP
16A0
2AA0
2AA0
2AC0
2D40
FFF0
5540
5580
5A80
AA80
AA80
ENDCHAR
STARTCHAR 1690
ENCODING 5776
SWIDTH 307 0
DWIDTH 4 0
BBX 4 3 0 2
BITMAP
40
F0
40
ENDCHAR
STARTCHAR 1691
ENCODING 5777
SWIDTH 461 0
DWIDTH 6 0
BBX 6 3 0 2
BITMAP
50
FC
50
ENDCHAR
STARTCHAR 1692
ENCODING 5778
SWIDTH 615 0
DWIDTH 8 0
BBX 8 3 0 2
BITMAP
54
FF
54
ENDCHAR
STARTCHAR 1693
ENCODING 5779
SWIDTH 769 0
DWIDTH 10 0
BBX 10 3 0 2
BITMAP
5500
FFC0
5500
ENDCHAR
STARTCHAR 1694
ENCODING 5780
SWIDTH 846 0
DWIDTH 11 0
BBX 12 3 0 2
BITMAP
5540
FFF0
5540
ENDCHAR
STARTCHAR 1695
ENCODING 5781
SWIDTH 307 0
DWIDTH 4 0
BBX 4 11 0 -2
BITMAP
90
A0
60
60
60
F0
60
60
60
A0
90
ENDCHAR
STARTCHAR 1696
ENCODING 5782
SWIDTH 461 0
DWIDTH 6 0
BBX 6 11 0 -2
BITMAP
20
30
30
48
48
FC
48
48
30
30
20
ENDCHAR
STARTCHAR 1697
ENCODING 5783
SWIDTH 615 0
DWIDTH 8 0
BBX 8 6 0 -1
BITMAP
FF
40
40
4C
44
7C
ENDCHAR
STARTCHAR 1698
ENCODING 5784
SWIDTH 615 0
DWIDTH 8 0
BBX 8 6 0 -2
BITMAP
FF
5A
3C
3C
54
AA
ENDCHAR
STARTCHAR 1699
ENCODING 5785
SWIDTH 769 0
DWIDTH 10 0
BBX 10 9 0 3
BITMAP
5500
7F80
5500
7F80
5500
7F80
7F80
5500
FFC0
ENDCHAR
STARTCHAR 169A
ENCODING 5786
SWIDTH 615 0
DWIDTH 8 0
BBX 8 2 0 2
BITMAP
FF
7C
ENDCHAR
STARTCHAR 169B
ENCODING 5787
SWIDTH 461 0
DWIDTH 6 0
BBX 6 11 0 -2
BITMAP
80
40
40
20
20
1C
20
20
40
40
80
ENDCHAR
STARTCHAR 169C
ENCODING 5788
SWIDTH 461 0
DWIDTH 6 0
BBX 6 11 0 -2
BITMAP
04
08
08
10
10
E0
10
10
08
08
04
ENDCHAR
STARTCHAR 1E80
ENCODING 7808
SWIDTH 923 0
DWIDTH 12 0
BBX 12 12 0 0
BITMAP
0C00
0200
0000
C610
4630
4620
4920
6920
2940
39C0
30C0
30C0
ENDCHAR
STARTCHAR 1E81
ENCODING 7809
SWIDTH 769 0
DWIDTH 10 0
BBX 10 10 0 0
BITMAP
1800
0400
0000
8C40
4C40
4E80
5280
5280
3280
3100
ENDCHAR
STARTCHAR 1E82
ENCODING 7810
SWIDTH 923 0
DWIDTH 12 0
BBX 12 12 0 0
BITMAP
0300
0600
0000
C610
4630
4620
4920
6920
2940
39C0
30C0
30C0
ENDCHAR
STARTCHAR 1E83
ENCODING 7811
SWIDTH 769 0
DWIDTH 10 0
BBX 10 10 0 0
BITMAP
0600
0C00
0000
8C40
4C40
4E80
5280
5280
3280
3100
ENDCHAR
STARTCHAR 1E84
ENCODING 7812
SWIDTH 923 0
DWIDTH 12 0
BBX 12 11 0 0
BITMAP
0900
0000
C610
4630
4620
4920
6920
2940
39C0
30C0
30C0
ENDCHAR
STARTCHAR 1E85
ENCODING 7813
SWIDTH 769 0
DWIDTH 10 0
BBX 10 9 0 0
BITMAP
1A00
0000
8C40
4C40
4E80
5280
5280
3280
3100
ENDCHAR
STARTCHAR 1E9E
ENCODING 7838
SWIDTH 692 0
DWIDTH 9 0
BBX 8 9 1 0
BITMAP
3C
46
84
88
9E
83
81
83
BE
ENDCHAR
STARTCHAR 1EF2
ENCODING 7922
SWIDTH 538 0
DWIDTH 7 0
BBX 7 12 0 0
BITMAP
30
18
00
C2
46
64
28
38
10
10
10
10
ENDCHAR
STARTCHAR 1EF3
ENCODING 7923
SWIDTH 538 0
DWIDTH 7 0
BBX 7 13 0 -3
BITMAP
20
10
00
86
44
4C
68
28
38
10
10
20
E0
ENDCHAR
STARTCHAR 2013
ENCODING 8211
SWIDTH 538 0
DWIDTH 7 0
BBX 5 1 1 3
BITMAP
F8
ENDCHAR
STARTCHAR 2014
ENCODING 8212
SWIDTH 1000 0
DWIDTH 13 0
BBX 11 1 1 3
BITMAP
FFE0
ENDCHAR
STARTCHAR 2018
ENCODING 8216
SWIDTH 153 0
DWIDTH 2 0
BBX 2 3 0 6
BITMAP
40
40
C0
ENDCHAR
STARTCHAR 2019
ENCODING 8217
SWIDTH 153 0
DWIDTH 2 0
BBX 2 3 0 6
BITMAP
40
40
80
ENDCHAR
STARTCHAR 201A
ENCODING 8218
SWIDTH 230 0
DWIDTH 3 0
BBX 2 3 0 -2
BITMAP
40
40
C0
ENDCHAR
STARTCHAR 201C
ENCODING 8220
SWIDTH 384 0
DWIDTH 5 0
BBX 5 3 0 6
BITMAP
58
50
D0
ENDCHAR
STARTCHAR 201D
ENCODING 8221
SWIDTH 384 0
DWIDTH 5 0
BBX 5 3 0 6
BITMAP
58
50
90
ENDCHAR
STARTCHAR 201E
ENCODING 8222
SWIDTH 384 0
DWIDTH 5 0
BBX 5 3 0 -2
BITMAP
58
50
90
ENDCHAR
STARTCHAR 2022
ENCODING 8226
SWIDTH 384 0
DWIDTH 5 0
BBX 3 3 1 3
BITMAP
E0
E0
E0
ENDCHAR
STARTCHAR 2026
ENCODING 8230
SWIDTH 769 0
DWIDTH 10 0
BBX 8 2 1 0
BITMAP
99
D9
ENDCHAR
STARTCHAR 2039
ENCODING 8249
SWIDTH 307 0
DWIDTH 4 0
BBX 3 5 1 1
BITMAP
60
C0
80
80
60
ENDCHAR
STARTCHAR 203A
ENCODING 8250
SWIDTH 307 0
DWIDTH 4 0
BBX 4 5 0 1
BITMAP
C0
60
30
20
C0
ENDCHAR
STARTCHAR 20AC
ENCODING 8364
SWIDTH 538 0
DWIDTH 7 0
BBX 7 9 0 0
BITMAP
1E
20
60
FC
40
F8
60
20
1E
ENDCHAR
STARTCHAR 2122
ENCODING 8482
SWIDTH 769 0
DWIDTH 10 0
BBX 9 5 0 4
BITMAP
FC80
4D80
4D80
4A80
4A80
ENDCHAR
STARTCHAR 2212
ENCODING 8722
SWIDTH 307 0
DWIDTH 4 0
BBX 3 1 1 3
BITMAP
E0
ENDCHAR
ENDFONT
